STARTFONT 2.1
COMMENT
COMMENT Converted from OpenType font "NotoSansMono-Regular.ttf" by "otf2bdf 3.0".
COMMENT
FONT -FreeType-Noto Sans Mono-Medium-R-Normal--40-400-72-72-P-190-ISO10646-1
SIZE 40 72 72
FONTBOUNDINGBOX 97 65 -25 -16
STARTPROPERTIES 19
FOUNDRY "FreeType"
FAMILY_NAME "Noto Sans Mono"
WEIGHT_NAME "Medium"
SLANT "R"
SETWIDTH_NAME "Normal"
ADD_STYLE_NAME ""
PIXEL_SIZE 40
POINT_SIZE 400
RESOLUTION_X 72
RESOLUTION_Y 72
SPACING "P"
AVERAGE_WIDTH 190
CHARSET_REGISTRY "ISO10646"
CHARSET_ENCODING "1"
FONT_ASCENT 42
FONT_DESCENT 11
COPYRIGHT "Copyright 2015 Google LLC. All Rights Reserved."
_OTF_FONTFILE "NotoSansMono-Regular.ttf"
_OTF_PSNAME "NotoSansMono-Regular"
ENDPROPERTIES
CHARS 3363
STARTCHAR 0000
ENCODING 0
SWIDTH 0 0
DWIDTH 0 0
BBX 0 0 0 0
BITMAP
ENDCHAR
STARTCHAR 000D
ENCODING 13
SWIDTH 600 0
DWIDTH 24 0
BBX 0 0 0 0
BITMAP
ENDCHAR
STARTCHAR 0020
ENCODING 32
SWIDTH 600 0
DWIDTH 24 0
BBX 0 0 0 0
BITMAP
ENDCHAR
STARTCHAR 0021
ENCODING 33
SWIDTH 600 0
DWIDTH 24 0
BBX 4 29 10 0
BITMAP
F0
F0
F0
F0
F0
F0
F0
F0
F0
F0
F0
F0
F0
F0
F0
F0
F0
F0
F0
F0
F0
00
00
00
F0
F0
F0
F0
F0
ENDCHAR
STARTCHAR 0022
ENCODING 34
SWIDTH 600 0
DWIDTH 24 0
BBX 12 10 6 19
BITMAP
F0F0
70E0
70E0
70E0
70E0
70E0
70E0
70E0
70E0
6060
ENDCHAR
STARTCHAR 0023
ENCODING 35
SWIDTH 600 0
DWIDTH 24 0
BBX 22 29 1 0
BITMAP
00E0E0
00E0E0
00E0E0
00E0C0
00E1C0
01C1C0
01C1C0
01C1C0
01C1C0
7FFFFC
7FFFFC
7FFFFC
038380
038380
038300
030700
070700
070700
FFFFF8
FFFFF8
FFFFF8
0E0E00
0E0E00
0E0E00
0E0C00
0E1C00
0C1C00
1C1C00
1C1C00
ENDCHAR
STARTCHAR 0024
ENCODING 36
SWIDTH 600 0
DWIDTH 24 0
BBX 18 33 3 -2
BITMAP
00C000
00C000
00C000
07FC00
1FFF80
3FFF00
7CC700
70C000
F0C000
F0C000
F0C000
F0C000
78C000
7EC000
3FC000
1FF800
07FE00
00FF00
00DF80
00C780
00C3C0
00C3C0
00C3C0
00C3C0
80C780
70CF80
7FFF00
7FFE00
1FF000
00C000
00C000
00C000
00C000
ENDCHAR
STARTCHAR 0025
ENCODING 37
SWIDTH 600 0
DWIDTH 24 0
BBX 24 29 0 0
BITMAP
1F0078
3FC070
7FC0E0
71E0E0
E0E1C0
E0E1C0
E0E380
E0E380
E0E700
E0E700
71EE00
7FCE00
3FDE00
0F1C00
003C00
0038F0
007BFC
0073FE
00F78E
00E707
01E707
01C707
03C707
038707
038707
07070E
07038E
0E03FC
1E00F8
ENDCHAR
STARTCHAR 0026
ENCODING 38
SWIDTH 600 0
DWIDTH 24 0
BBX 21 29 2 0
BITMAP
07E000
0FF000
1FF800
3C3C00
3C3C00
381C00
381C00
383C00
3C3800
1C7800
1EF000
0FE000
0FC000
0F8000
1FC000
3FC0F0
7DE0F0
78F0E0
F078E0
E03DE0
E03DC0
E01FC0
E00F80
E00780
F01FC0
F83FE0
7FFDE0
3FF0F0
0FC078
ENDCHAR
STARTCHAR 0027
ENCODING 39
SWIDTH 600 0
DWIDTH 24 0
BBX 4 10 10 19
BITMAP
F0
F0
F0
F0
F0
60
60
60
60
60
ENDCHAR
STARTCHAR 0028
ENCODING 40
SWIDTH 600 0
DWIDTH 24 0
BBX 9 35 8 -6
BITMAP
0780
0700
0F00
1E00
1C00
3C00
3C00
3800
7800
7800
7000
7000
F000
F000
F000
F000
F000
F000
F000
F000
F000
F000
F000
7000
7000
7800
7800
3800
3C00
3C00
1C00
1E00
0F00
0700
0780
ENDCHAR
STARTCHAR 0029
ENCODING 41
SWIDTH 600 0
DWIDTH 24 0
BBX 9 35 7 -7
BITMAP
F000
7000
7800
3C00
3C00
1E00
1E00
0E00
0F00
0F00
0700
0700
0780
0780
0780
0780
0780
0780
0780
0780
0780
0780
0780
0700
0700
0F00
0F00
0E00
1E00
1E00
3C00
3C00
7800
7000
F000
ENDCHAR
STARTCHAR 002A
ENCODING 42
SWIDTH 600 0
DWIDTH 24 0
BBX 17 17 4 13
BITMAP
03C000
018000
018000
018000
018000
818100
F99F00
FFFF00
FFFF80
03C000
07E000
0E7000
0E7800
1C3800
3C3C00
181800
081000
ENDCHAR
STARTCHAR 002B
ENCODING 43
SWIDTH 600 0
DWIDTH 24 0
BBX 18 19 3 5
BITMAP
00C000
00C000
00C000
00C000
00C000
00C000
00C000
00C000
FFFFC0
FFFFC0
FFFFC0
00C000
00C000
00C000
00C000
00C000
00C000
00C000
00C000
ENDCHAR
STARTCHAR 002C
ENCODING 44
SWIDTH 600 0
DWIDTH 24 0
BBX 7 11 8 -6
BITMAP
1E
3E
3E
3C
3C
3C
78
78
70
70
F0
ENDCHAR
STARTCHAR 002D
ENCODING 45
SWIDTH 600 0
DWIDTH 24 0
BBX 12 3 6 9
BITMAP
FFF0
FFF0
FFF0
ENDCHAR
STARTCHAR 002E
ENCODING 46
SWIDTH 600 0
DWIDTH 24 0
BBX 4 5 10 0
BITMAP
F0
F0
F0
F0
F0
ENDCHAR
STARTCHAR 002F
ENCODING 47
SWIDTH 600 0
DWIDTH 24 0
BBX 14 29 5 0
BITMAP
001C
003C
0038
0078
0078
0070
00F0
00E0
00E0
01E0
01C0
03C0
0380
0380
0780
0700
0700
0F00
0E00
1E00
1C00
1C00
3C00
3800
7800
7800
7000
F000
E000
ENDCHAR
STARTCHAR 0030
ENCODING 48
SWIDTH 600 0
DWIDTH 24 0
BBX 20 29 2 0
BITMAP
01F800
07FE00
0FFF00
1E0F80
3C03C0
3807C0
7807E0
780FE0
700EE0
701EE0
703CE0
F038E0
F078F0
F070F0
F0F0F0
F1E0F0
F1C0F0
73C0E0
7380E0
7780E0
7F00E0
7E00E0
7E01E0
3C01C0
3C03C0
1E0780
0FFF00
07FE00
01F800
ENDCHAR
STARTCHAR 0031
ENCODING 49
SWIDTH 600 0
DWIDTH 24 0
BBX 17 29 4 0
BITMAP
01E000
07E000
1FE000
7FE000
FDE000
71E000
61E000
01E000
01E000
01E000
01E000
01E000
01E000
01E000
01E000
01E000
01E000
01E000
01E000
01E000
01E000
01E000
01E000
01E000
01E000
01E000
7FFF80
7FFF80
7FFF80
ENDCHAR
STARTCHAR 0032
ENCODING 50
SWIDTH 600 0
DWIDTH 24 0
BBX 19 29 3 0
BITMAP
07F000
1FFC00
7FFE00
FC1F00
700780
200780
000380
000380
000380
000380
000780
000780
000F00
000F00
001E00
003E00
007C00
00F800
01F000
03E000
03C000
078000
0F0000
1E0000
3C0000
780000
FFFFE0
FFFFE0
FFFFE0
ENDCHAR
STARTCHAR 0033
ENCODING 51
SWIDTH 600 0
DWIDTH 24 0
BBX 18 29 3 0
BITMAP
07F000
3FFE00
FFFF00
781F00
600780
000780
000780
000780
000780
000780
000F00
003E00
0FFC00
0FF000
0FFE00
001F00
000780
000380
0003C0
0003C0
0003C0
0003C0
0003C0
0003C0
800780
E01F00
FFFF00
FFFC00
1FF000
ENDCHAR
STARTCHAR 0034
ENCODING 52
SWIDTH 600 0
DWIDTH 24 0
BBX 20 29 2 0
BITMAP
001F00
001F00
003F00
003F00
007700
007700
00E700
01EF00
01CF00
03CF00
038F00
070F00
0F0F00
0E0F00
1E0F00
1C0F00
3C0F00
380F00
700F00
F00F00
FFFFF0
FFFFF0
FFFFF0
000F00
000F00
000F00
000F00
000F00
000F00
ENDCHAR
STARTCHAR 0035
ENCODING 53
SWIDTH 600 0
DWIDTH 24 0
BBX 18 29 3 0
BITMAP
3FFF00
3FFF00
3FFF00
380000
380000
780000
780000
780000
700000
700000
700000
7FF000
7FFC00
7FFE00
203F00
000F80
000780
0003C0
0003C0
0003C0
0003C0
0003C0
000380
000780
800F80
E03F00
FFFE00
FFFC00
1FE000
ENDCHAR
STARTCHAR 0036
ENCODING 54
SWIDTH 600 0
DWIDTH 24 0
BBX 20 29 2 0
BITMAP
007F80
01FF80
07FF80
0FC000
1F0000
1E0000
3C0000
380000
780000
780000
70FC00
73FF00
77FF80
7F07C0
FC01E0
F801E0
F000E0
F000E0
F000F0
7000F0
7000F0
7000E0
7800E0
3801E0
3C03C0
1F07C0
0FFF80
07FF00
01FC00
ENDCHAR
STARTCHAR 0037
ENCODING 55
SWIDTH 600 0
DWIDTH 24 0
BBX 20 29 2 0
BITMAP
FFFFF0
FFFFF0
FFFFF0
0000E0
0001E0
0001C0
0003C0
0003C0
000380
000780
000700
000F00
000F00
001E00
001E00
001C00
003C00
003C00
007800
007800
007000
00F000
00E000
01E000
01E000
03C000
03C000
038000
078000
ENDCHAR
STARTCHAR 0038
ENCODING 56
SWIDTH 600 0
DWIDTH 24 0
BBX 18 29 3 0
BITMAP
03F000
1FFE00
3FFF00
7C0F00
780780
700380
700380
700380
700380
780780
3C0F00
3E1E00
0FFC00
07F800
0FF800
1F7E00
3C1F00
780780
F003C0
F003C0
E001C0
E001C0
E001C0
F003C0
F007C0
7C0F80
3FFF00
1FFE00
07F800
ENDCHAR
STARTCHAR 0039
ENCODING 57
SWIDTH 600 0
DWIDTH 24 0
BBX 20 29 2 0
BITMAP
03F800
0FFE00
1FFF00
3E0F80
7803C0
7801C0
7001E0
F000E0
F000E0
F000E0
F000E0
7000F0
7801F0
7803F0
3E0FF0
1FFEE0
0FFCE0
03F0E0
0000E0
0001E0
0001E0
0003C0
0003C0
000780
000F80
003F00
1FFE00
1FF800
1FE000
ENDCHAR
STARTCHAR 003A
ENCODING 58
SWIDTH 600 0
DWIDTH 24 0
BBX 4 22 10 0
BITMAP
F0
F0
F0
F0
F0
00
00
00
00
00
00
00
00
00
00
00
00
F0
F0
F0
F0
F0
ENDCHAR
STARTCHAR 003B
ENCODING 59
SWIDTH 600 0
DWIDTH 24 0
BBX 7 27 8 -5
BITMAP
1E
1E
3E
1E
1E
00
00
00
00
00
00
00
00
00
00
00
1E
3E
3E
3C
3C
3C
78
78
70
70
F0
ENDCHAR
STARTCHAR 003C
ENCODING 60
SWIDTH 600 0
DWIDTH 24 0
BBX 16 19 4 5
BITMAP
0001
0007
001F
003E
00F8
03F0
0FC0
3F00
7C00
F000
F800
FE00
3F80
0FE0
01F8
007E
001F
0007
0001
ENDCHAR
STARTCHAR 003D
ENCODING 61
SWIDTH 600 0
DWIDTH 24 0
BBX 18 11 3 9
BITMAP
FFFFC0
FFFFC0
FFFFC0
000000
000000
000000
000000
000000
FFFFC0
FFFFC0
FFFFC0
ENDCHAR
STARTCHAR 003E
ENCODING 62
SWIDTH 600 0
DWIDTH 24 0
BBX 16 19 4 5
BITMAP
8000
E000
F800
7C00
1F00
0FC0
03F0
00FC
003E
000F
001F
007F
01FC
07F0
1F80
7E00
F800
E000
8000
ENDCHAR
STARTCHAR 003F
ENCODING 63
SWIDTH 600 0
DWIDTH 24 0
BBX 16 29 4 0
BITMAP
1FE0
FFFC
FFFE
F01E
400F
0007
0007
0007
0007
0007
000F
001E
003E
007C
00F8
01E0
03C0
0380
0780
0700
0700
0000
0000
0000
0780
0780
0F80
0780
0780
ENDCHAR
STARTCHAR 0040
ENCODING 64
SWIDTH 600 0
DWIDTH 24 0
BBX 22 33 1 -4
BITMAP
00FE00
03FF80
07FFC0
0F83E0
1E00F0
3C0070
380038
700038
707E1C
60FF9C
E1FF9C
E3C38C
E3838C
E7838C
C7078C
C7078C
C7070C
C7070C
C7071C
C7071C
E7871C
E38D98
E3FDF8
E1F9F0
70F0E0
700000
780000
3C0000
1E0000
1F80E0
0FFFE0
03FFC0
00FF00
ENDCHAR
STARTCHAR 0041
ENCODING 65
SWIDTH 600 0
DWIDTH 24 0
BBX 22 29 1 0
BITMAP
007800
007800
00FC00
00FC00
00FC00
01FE00
01CE00
01CE00
03CF00
03CF00
038700
078780
078780
070380
0F03C0
0F03C0
0E01C0
1FFFC0
1FFFE0
1FFFE0
3C00E0
3C00F0
380070
380070
780078
780078
700038
F0003C
F0003C
ENDCHAR
STARTCHAR 0042
ENCODING 66
SWIDTH 600 0
DWIDTH 24 0
BBX 18 29 4 0
BITMAP
FFF000
FFFC00
FFFF00
E01F00
E00780
E00780
E00780
E00780
E00780
E00780
E00F00
E01E00
FFFC00
FFF000
FFFE00
E01F00
E00780
E00780
E003C0
E003C0
E003C0
E003C0
E003C0
E00780
E00780
E01F00
FFFF00
FFFC00
FFF000
ENDCHAR
STARTCHAR 0043
ENCODING 67
SWIDTH 600 0
DWIDTH 24 0
BBX 19 29 3 0
BITMAP
00FF00
03FFE0
0FFFE0
1F81C0
3E0000
3C0000
780000
780000
F00000
F00000
F00000
E00000
E00000
E00000
E00000
E00000
E00000
E00000
F00000
F00000
F00000
700000
780000
3C0000
3E0000
1F00C0
0FFFC0
07FFC0
00FF00
ENDCHAR
STARTCHAR 0044
ENCODING 68
SWIDTH 600 0
DWIDTH 24 0
BBX 19 29 3 0
BITMAP
FFE000
FFF800
FFFE00
E03F00
E00F80
E00780
E003C0
E003C0
E001C0
E001E0
E001E0
E001E0
E001E0
E001E0
E001E0
E001E0
E001E0
E001E0
E001E0
E001E0
E001C0
E003C0
E007C0
E00780
E00F00
E07E00
FFFC00
FFF800
FFC000
ENDCHAR
STARTCHAR 0045
ENCODING 69
SWIDTH 600 0
DWIDTH 24 0
BBX 17 29 4 0
BITMAP
FFFF80
FFFF80
FFFF80
E00000
E00000
E00000
E00000
E00000
E00000
E00000
E00000
E00000
FFFF00
FFFF00
FFFF00
E00000
E00000
E00000
E00000
E00000
E00000
E00000
E00000
E00000
E00000
E00000
FFFF80
FFFF80
FFFF80
ENDCHAR
STARTCHAR 0046
ENCODING 70
SWIDTH 600 0
DWIDTH 24 0
BBX 17 29 4 0
BITMAP
FFFF80
FFFF80
FFFF80
E00000
E00000
E00000
E00000
E00000
E00000
E00000
E00000
E00000
E00000
E00000
FFFF00
FFFF00
FFFF00
E00000
E00000
E00000
E00000
E00000
E00000
E00000
E00000
E00000
E00000
E00000
E00000
ENDCHAR
STARTCHAR 0047
ENCODING 71
SWIDTH 600 0
DWIDTH 24 0
BBX 19 29 2 0
BITMAP
00FF00
03FFE0
0FFFC0
1F80C0
3E0000
3C0000
780000
780000
700000
F00000
F00000
F00000
F00000
F00000
E01FE0
E01FE0
F01FE0
F000E0
F000E0
F000E0
F000E0
7800E0
7800E0
3C00E0
3E00E0
1F80E0
0FFFE0
07FFE0
00FF00
ENDCHAR
STARTCHAR 0048
ENCODING 72
SWIDTH 600 0
DWIDTH 24 0
BBX 18 29 3 0
BITMAP
E001C0
E001C0
E001C0
E001C0
E001C0
E001C0
E001C0
E001C0
E001C0
E001C0
E001C0
E001C0
FFFFC0
FFFFC0
FFFFC0
E001C0
E001C0
E001C0
E001C0
E001C0
E001C0
E001C0
E001C0
E001C0
E001C0
E001C0
E001C0
E001C0
E001C0
ENDCHAR
STARTCHAR 0049
ENCODING 73
SWIDTH 600 0
DWIDTH 24 0
BBX 16 29 4 0
BITMAP
FFFF
FFFF
FFFF
03C0
03C0
03C0
03C0
03C0
03C0
03C0
03C0
03C0
03C0
03C0
03C0
03C0
03C0
03C0
03C0
03C0
03C0
03C0
03C0
03C0
03C0
03C0
FFFF
FFFF
FFFF
ENDCHAR
STARTCHAR 004A
ENCODING 74
SWIDTH 600 0
DWIDTH 24 0
BBX 15 29 4 0
BITMAP
001E
001E
001E
001E
001E
001E
001E
001E
001E
001E
001E
001E
001E
001E
001E
001E
001E
001E
001E
001E
001E
001E
001C
003C
003C
C0F8
FFF8
FFE0
3F80
ENDCHAR
STARTCHAR 004B
ENCODING 75
SWIDTH 600 0
DWIDTH 24 0
BBX 19 29 3 0
BITMAP
E003E0
E007C0
E00780
E00F00
E01E00
E03E00
E03C00
E07800
E0F800
E0F000
E1E000
E3C000
E7C000
E78000
EFC000
EFE000
FDE000
F8F000
F0F000
E07800
E03C00
E03C00
E01E00
E01F00
E00F00
E00780
E00780
E003C0
E001E0
ENDCHAR
STARTCHAR 004C
ENCODING 76
SWIDTH 600 0
DWIDTH 24 0
BBX 16 29 5 0
BITMAP
E000
E000
E000
E000
E000
E000
E000
E000
E000
E000
E000
E000
E000
E000
E000
E000
E000
E000
E000
E000
E000
E000
E000
E000
E000
E000
FFFF
FFFF
FFFF
ENDCHAR
STARTCHAR 004D
ENCODING 77
SWIDTH 600 0
DWIDTH 24 0
BBX 20 29 2 0
BITMAP
F801F0
FC03F0
FC03F0
FC03F0
FC03F0
EE0770
EE0770
EE0770
EF0F70
E70E70
E70E70
E70E70
E39C70
E39C70
E39C70
E3B870
E1F870
E1F870
E1F870
E0F070
E0F070
E0F070
E00070
E00070
E00070
E00070
E00070
E00070
E00070
ENDCHAR
STARTCHAR 004E
ENCODING 78
SWIDTH 600 0
DWIDTH 24 0
BBX 18 29 3 0
BITMAP
F801C0
F801C0
FC01C0
FC01C0
FC01C0
EE01C0
EE01C0
EF01C0
E701C0
E781C0
E381C0
E3C1C0
E1C1C0
E1C1C0
E0E1C0
E0E1C0
E0F1C0
E071C0
E079C0
E039C0
E039C0
E01DC0
E01DC0
E01FC0
E00FC0
E00FC0
E007C0
E007C0
E003C0
ENDCHAR
STARTCHAR 004F
ENCODING 79
SWIDTH 600 0
DWIDTH 24 0
BBX 20 29 2 0
BITMAP
01F800
07FE00
1FFF80
1E0780
3C03C0
7801E0
7801E0
7000E0
F000F0
F000F0
F000F0
F000F0
F000F0
E000F0
E00070
E000F0
F000F0
F000F0
F000F0
F000F0
F000F0
7000E0
7801E0
7801E0
3C03C0
1E0780
1FFF80
07FE00
01F800
ENDCHAR
STARTCHAR 0050
ENCODING 80
SWIDTH 600 0
DWIDTH 24 0
BBX 18 29 4 0
BITMAP
FFF000
FFFC00
FFFF00
E01F00
E00780
E00780
E003C0
E003C0
E003C0
E003C0
E003C0
E00380
E00780
E00F80
E01F00
FFFE00
FFFC00
FFE000
E00000
E00000
E00000
E00000
E00000
E00000
E00000
E00000
E00000
E00000
E00000
ENDCHAR
STARTCHAR 0051
ENCODING 81
SWIDTH 600 0
DWIDTH 24 0
BBX 20 36 2 -7
BITMAP
01F800
07FE00
1FFF80
1E0780
3C03C0
7801E0
7801E0
7000E0
F000F0
F000F0
F000F0
F000F0
F000F0
E000F0
E00070
E000F0
F000F0
F000F0
F000F0
F000F0
F000F0
7000E0
7801E0
7801E0
3C03C0
1E07C0
1FFF80
07FF00
01FF00
000F00
000780
000780
0003C0
0003C0
0001E0
0001F0
ENDCHAR
STARTCHAR 0052
ENCODING 82
SWIDTH 600 0
DWIDTH 24 0
BBX 19 29 4 0
BITMAP
FFE000
FFF800
FFFE00
E03E00
E00F00
E00F00
E00700
E00700
E00780
E00700
E00700
E00F00
E01F00
E03E00
FFFC00
FFF000
FFE000
E0F000
E07800
E07800
E03C00
E03C00
E01E00
E00F00
E00F00
E00780
E00780
E003C0
E003E0
ENDCHAR
STARTCHAR 0053
ENCODING 83
SWIDTH 600 0
DWIDTH 24 0
BBX 18 29 3 0
BITMAP
03FE00
0FFFC0
1FFF80
3E0380
3C0080
780000
780000
780000
780000
780000
3C0000
3F0000
1FC000
0FF000
03FC00
00FF00
003F80
000F80
0007C0
0003C0
0003C0
0003C0
0003C0
0003C0
800780
F00F80
FFFF00
FFFE00
1FF800
ENDCHAR
STARTCHAR 0054
ENCODING 84
SWIDTH 600 0
DWIDTH 24 0
BBX 20 29 2 0
BITMAP
FFFFF0
FFFFF0
FFFFF0
00F000
00F000
00F000
00F000
00F000
00F000
00F000
00F000
00F000
00F000
00F000
00F000
00F000
00F000
00F000
00F000
00F000
00F000
00F000
00F000
00F000
00F000
00F000
00F000
00F000
00F000
ENDCHAR
STARTCHAR 0055
ENCODING 85
SWIDTH 600 0
DWIDTH 24 0
BBX 18 29 3 0
BITMAP
E001C0
E001C0
E001C0
E001C0
E001C0
E001C0
E001C0
E001C0
E001C0
E001C0
E001C0
E001C0
E001C0
E001C0
E001C0
E001C0
E001C0
E001C0
E001C0
E001C0
F003C0
F003C0
F003C0
F00380
780780
7C0F00
3FFF00
1FFE00
07F000
ENDCHAR
STARTCHAR 0056
ENCODING 86
SWIDTH 600 0
DWIDTH 24 0
BBX 22 29 1 0
BITMAP
F0003C
F0003C
780078
780078
780078
380070
3C00F0
3C00F0
1C00E0
1E01E0
1E01E0
0E01C0
0E01C0
0F03C0
070380
070380
078780
038780
038700
03C700
01CF00
01CE00
01CE00
01EE00
00FC00
00FC00
00FC00
007800
007800
ENDCHAR
STARTCHAR 0057
ENCODING 87
SWIDTH 600 0
DWIDTH 24 0
BBX 22 29 1 0
BITMAP
E0001C
E0001C
F0003C
F0003C
F0003C
700038
700038
707838
707838
707838
70FC38
70FC38
70FC38
78EC38
38CE78
39CE70
39CE70
39C670
398670
398770
3B8770
3B8770
3B8370
1B03F0
1B03F0
1F03E0
1F01E0
1E01E0
1E01E0
ENDCHAR
STARTCHAR 0058
ENCODING 88
SWIDTH 600 0
DWIDTH 24 0
BBX 22 29 1 0
BITMAP
780078
3C00F0
3C00F0
1E01E0
0E01C0
0F03C0
070380
078780
03CF00
01CE00
01FE00
00FC00
00FC00
007800
007800
00FC00
00FC00
01FE00
01CE00
03CF00
078780
078380
0F03C0
0E01C0
1E01E0
3C00E0
3C00F0
780078
F8003C
ENDCHAR
STARTCHAR 0059
ENCODING 89
SWIDTH 600 0
DWIDTH 24 0
BBX 22 29 1 0
BITMAP
F8003C
780078
380070
3C00F0
1C00E0
1E01E0
0E01C0
0F03C0
070380
078780
038700
03C700
01CE00
01CE00
00FC00
00FC00
007800
007800
007800
007800
007800
007800
007800
007800
007800
007800
007800
007800
007800
ENDCHAR
STARTCHAR 005A
ENCODING 90
SWIDTH 600 0
DWIDTH 24 0
BBX 16 29 4 0
BITMAP
7FFF
7FFF
7FFF
000F
000E
001E
001C
003C
0078
0078
00F0
00F0
01E0
01C0
03C0
0380
0780
0700
0F00
0E00
1E00
3C00
3C00
7800
7800
F000
FFFF
FFFF
FFFF
ENDCHAR
STARTCHAR 005B
ENCODING 91
SWIDTH 600 0
DWIDTH 24 0
BBX 9 35 10 -6
BITMAP
FF80
FF80
FF80
E000
E000
E000
E000
E000
E000
E000
E000
E000
E000
E000
E000
E000
E000
E000
E000
E000
E000
E000
E000
E000
E000
E000
E000
E000
E000
E000
E000
E000
FF80
FF80
FF80
ENDCHAR
STARTCHAR 005C
ENCODING 92
SWIDTH 600 0
DWIDTH 24 0
BBX 14 29 5 0
BITMAP
E000
F000
7000
7800
7800
3800
3C00
1C00
1C00
1E00
0E00
0F00
0700
0700
0780
0380
0380
03C0
01C0
01E0
00E0
00E0
00F0
0070
0078
0078
0038
003C
001C
ENDCHAR
STARTCHAR 005D
ENCODING 93
SWIDTH 600 0
DWIDTH 24 0
BBX 9 35 5 -6
BITMAP
FF80
FF80
FF80
0380
0380
0380
0380
0380
0380
0380
0380
0380
0380
0380
0380
0380
0380
0380
0380
0380
0380
0380
0380
0380
0380
0380
0380
0380
0380
0380
0380
0380
FF80
FF80
FF80
ENDCHAR
STARTCHAR 005E
ENCODING 94
SWIDTH 600 0
DWIDTH 24 0
BBX 20 18 2 11
BITMAP
00E000
00E000
01F000
01F000
03B800
03B800
071C00
070E00
060E00
0E0700
0E0700
1C0380
1C0380
3801C0
3801C0
7000E0
7000E0
E00070
ENDCHAR
STARTCHAR 005F
ENCODING 95
SWIDTH 600 0
DWIDTH 24 0
BBX 24 3 0 -6
BITMAP
FFFFFF
FFFFFF
FFFFFF
ENDCHAR
STARTCHAR 0060
ENCODING 96
SWIDTH 600 0
DWIDTH 24 0
BBX 8 7 8 24
BITMAP
F0
F0
78
38
3C
0E
07
ENDCHAR
STARTCHAR 0061
ENCODING 97
SWIDTH 600 0
DWIDTH 24 0
BBX 17 22 3 0
BITMAP
07F800
3FFE00
7FFF00
380F80
000780
000380
000380
000380
07FF80
1FFF80
3FFF80
7C0380
F00380
F00380
E00380
E00380
E00780
F00F80
F83F80
7FFB80
3FF380
0FC380
ENDCHAR
STARTCHAR 0062
ENCODING 98
SWIDTH 600 0
DWIDTH 24 0
BBX 19 31 3 0
BITMAP
F00000
F00000
F00000
F00000
F00000
F00000
F00000
F00000
F00000
F1F800
F7FE00
FFFF00
FE0F80
FC07C0
F803C0
F003C0
F001C0
F001E0
F001E0
F001E0
F001E0
F001E0
F001E0
F001C0
F003C0
F803C0
FC07C0
FE0F80
EFFF00
E7FE00
E1F800
ENDCHAR
STARTCHAR 0063
ENCODING 99
SWIDTH 600 0
DWIDTH 24 0
BBX 17 22 3 0
BITMAP
01FE00
07FF80
1FFF80
3F0300
3C0000
780000
780000
700000
700000
F00000
F00000
F00000
F00000
700000
700000
780000
780000
3C0000
3F0180
1FFF80
0FFF80
01FE00
ENDCHAR
STARTCHAR 0064
ENCODING 100
SWIDTH 600 0
DWIDTH 24 0
BBX 19 31 2 0
BITMAP
0001E0
0001E0
0001E0
0001E0
0001E0
0001E0
0001E0
0001E0
0001E0
03F1E0
0FFDE0
1FFFE0
3E0FE0
7C07E0
7803E0
7801E0
F001E0
F001E0
F001E0
F001E0
F001E0
F001E0
F001E0
F001E0
7001E0
7803E0
7C03E0
3E0FE0
1FFEE0
0FFCE0
03F0E0
ENDCHAR
STARTCHAR 0065
ENCODING 101
SWIDTH 600 0
DWIDTH 24 0
BBX 20 22 2 0
BITMAP
01FC00
07FF00
0FFF80
1F07C0
3C03C0
7801E0
7800E0
7000E0
7000E0
FFFFF0
FFFFF0
FFFFF0
F00000
700000
700000
780000
780000
3C0020
1F00E0
0FFFE0
07FFE0
01FF00
ENDCHAR
STARTCHAR 0066
ENCODING 102
SWIDTH 600 0
DWIDTH 24 0
BBX 20 31 3 0
BITMAP
001FE0
007FF0
00FFE0
01F020
01E000
01C000
01C000
01C000
01C000
FFFFC0
FFFFC0
FFFFC0
01C000
01C000
01C000
01C000
01C000
01C000
01C000
01C000
01C000
01C000
01C000
01C000
01C000
01C000
01C000
01C000
01C000
01C000
01C000
ENDCHAR
STARTCHAR 0067
ENCODING 103
SWIDTH 600 0
DWIDTH 24 0
BBX 19 32 2 -10
BITMAP
03F0E0
0FFCE0
1FFEE0
3E0FE0
3C03E0
7803E0
7801E0
7001E0
F001E0
F001E0
F000E0
F000E0
F000E0
F001E0
F001E0
7801E0
7801E0
7C03E0
3E07E0
1FFEE0
0FFDE0
03F1E0
0001E0
0001E0
0001E0
0001E0
0003C0
4003C0
780F80
7FFF80
7FFE00
07F800
ENDCHAR
STARTCHAR 0068
ENCODING 104
SWIDTH 600 0
DWIDTH 24 0
BBX 18 31 3 0
BITMAP
F00000
F00000
F00000
F00000
F00000
F00000
F00000
F00000
F00000
F0FC00
F3FE00
F7FF80
FE0F80
FC07C0
F803C0
F803C0
F003C0
F003C0
F003C0
F003C0
F003C0
F003C0
F003C0
F003C0
F003C0
F003C0
F003C0
F003C0
F003C0
F003C0
F003C0
ENDCHAR
STARTCHAR 0069
ENCODING 105
SWIDTH 600 0
DWIDTH 24 0
BBX 19 31 3 0
BITMAP
00E000
01F000
01F000
01F000
00E000
000000
000000
000000
000000
7FE000
7FE000
7FE000
00E000
00E000
00E000
00E000
00E000
00E000
00E000
00E000
00E000
00E000
00E000
00E000
00E000
00E000
00E000
00E000
7FFFC0
FFFFE0
FFFFE0
ENDCHAR
STARTCHAR 006A
ENCODING 106
SWIDTH 600 0
DWIDTH 24 0
BBX 14 41 2 -10
BITMAP
0038
007C
007C
007C
0038
0000
0000
0000
0000
1FFC
1FFC
1FFC
003C
003C
003C
003C
003C
003C
003C
003C
003C
003C
003C
003C
003C
003C
003C
003C
003C
003C
003C
003C
003C
003C
003C
003C
0078
80F8
FFF0
FFE0
7F80
ENDCHAR
STARTCHAR 006B
ENCODING 107
SWIDTH 600 0
DWIDTH 24 0
BBX 19 31 4 0
BITMAP
F00000
F00000
F00000
F00000
F00000
F00000
F00000
F00000
F00000
F007C0
F00780
F00F00
F01E00
F03C00
F07800
F0F000
F1F000
F3E000
F3C000
F7C000
FFE000
FEF000
F87800
F07800
F03C00
F01E00
F01F00
F00F00
F00780
F003C0
F003E0
ENDCHAR
STARTCHAR 006C
ENCODING 108
SWIDTH 600 0
DWIDTH 24 0
BBX 19 31 3 0
BITMAP
FFF000
FFF000
FFF000
00F000
00F000
00F000
00F000
00F000
00F000
00F000
00F000
00F000
00F000
00F000
00F000
00F000
00F000
00F000
00F000
00F000
00F000
00F000
00F000
00F000
00F000
00F000
00F000
00F000
7FFFC0
FFFFE0
FFFFE0
ENDCHAR
STARTCHAR 006D
ENCODING 109
SWIDTH 600 0
DWIDTH 24 0
BBX 20 22 2 0
BITMAP
E787C0
EFCFE0
FFFFE0
F9F8F0
F0F870
F0F070
F0F070
E0F070
E0F070
E0F070
E0F070
E0F070
E0F070
E0F070
E0F070
E0F070
E0F070
E0F070
E0F070
E0F070
E0F070
E0F070
ENDCHAR
STARTCHAR 006E
ENCODING 110
SWIDTH 600 0
DWIDTH 24 0
BBX 18 22 3 0
BITMAP
E1FC00
E7FF00
EFFF80
FE0F80
FC03C0
F803C0
F003C0
F003C0
F003C0
F003C0
F003C0
F003C0
F003C0
F003C0
F003C0
F003C0
F003C0
F003C0
F003C0
F003C0
F003C0
F003C0
ENDCHAR
STARTCHAR 006F
ENCODING 111
SWIDTH 600 0
DWIDTH 24 0
BBX 20 22 2 0
BITMAP
01F800
0FFE00
1FFF80
3E07C0
3C03C0
7801E0
7801E0
7000E0
F000F0
F000F0
F000F0
F000F0
F000F0
F000F0
7000E0
7801E0
7801E0
3C03C0
3E07C0
1FFF80
0FFF00
01F800
ENDCHAR
STARTCHAR 0070
ENCODING 112
SWIDTH 600 0
DWIDTH 24 0
BBX 19 32 3 -10
BITMAP
E1F800
E7FE00
EFFF00
FE0F80
F807C0
F803C0
F001C0
F001C0
F001E0
F001E0
F001E0
F001E0
F001E0
F001E0
F001C0
F003C0
F803C0
F807C0
FE0F80
FFFF00
F7FE00
F1F800
F00000
F00000
F00000
F00000
F00000
F00000
F00000
F00000
F00000
F00000
ENDCHAR
STARTCHAR 0071
ENCODING 113
SWIDTH 600 0
DWIDTH 24 0
BBX 19 32 2 -10
BITMAP
03F0E0
0FFCE0
1FFEE0
3E0FE0
3C03E0
7803E0
7801E0
7001E0
F001E0
F001E0
F001E0
F001E0
F001E0
F001E0
F001E0
7801E0
7803E0
7C03E0
3E0FE0
1FFFE0
0FFDE0
03F1E0
0001E0
0001E0
0001E0
0001E0
0001E0
0001E0
0001E0
0001E0
0001E0
0001E0
ENDCHAR
STARTCHAR 0072
ENCODING 114
SWIDTH 600 0
DWIDTH 24 0
BBX 21 22 2 0
BITMAP
7FC3F8
7FC7F8
7FCFF0
01DC10
01F800
01F000
01F000
01E000
01E000
01E000
01E000
01E000
01E000
01E000
01E000
01E000
01E000
01E000
01E000
7FFF00
FFFF80
FFFF80
ENDCHAR
STARTCHAR 0073
ENCODING 115
SWIDTH 600 0
DWIDTH 24 0
BBX 16 22 4 0
BITMAP
07F8
1FFE
3FFE
780E
7000
7000
7000
7800
7E00
3F80
0FE0
03F8
00FE
003E
000F
000F
000F
800F
E01E
FFFE
FFFC
1FE0
ENDCHAR
STARTCHAR 0074
ENCODING 116
SWIDTH 600 0
DWIDTH 24 0
BBX 19 28 2 0
BITMAP
01C000
01C000
01C000
03C000
03C000
03C000
FFFFC0
FFFFC0
FFFFC0
03C000
03C000
03C000
03C000
03C000
03C000
03C000
03C000
03C000
03C000
03C000
03C000
03C000
03C000
03C000
01F020
01FFE0
00FFE0
003FC0
ENDCHAR
STARTCHAR 0075
ENCODING 117
SWIDTH 600 0
DWIDTH 24 0
BBX 18 22 3 0
BITMAP
F003C0
F003C0
F003C0
F003C0
F003C0
F003C0
F003C0
F003C0
F003C0
F003C0
F003C0
F003C0
F003C0
F003C0
F003C0
F003C0
F007C0
F007C0
7C1FC0
7FFDC0
3FF9C0
0FE1C0
ENDCHAR
STARTCHAR 0076
ENCODING 118
SWIDTH 600 0
DWIDTH 24 0
BBX 20 22 2 0
BITMAP
F000F0
F000F0
7000E0
7801E0
7801E0
3801C0
3C03C0
3C0380
1C0380
1E0780
0E0700
0E0700
0F0F00
070E00
070E00
079E00
039C00
03BC00
03F800
01F800
01F800
00F000
ENDCHAR
STARTCHAR 0077
ENCODING 119
SWIDTH 600 0
DWIDTH 24 0
BBX 22 22 1 0
BITMAP
E0001C
E0001C
E0001C
F0001C
F0783C
F0783C
70FC38
70FC38
70FC38
71FC38
79CE78
79CE78
39CE70
3B8E70
3B8770
3B8770
3B8770
3B0770
1F0360
1F03E0
1F03E0
1E03E0
ENDCHAR
STARTCHAR 0078
ENCODING 120
SWIDTH 600 0
DWIDTH 24 0
BBX 20 22 2 0
BITMAP
F801F0
7801E0
3C03C0
1E0780
1E0780
0F0F00
079E00
039C00
03FC00
01F800
00F000
01F800
01F800
03FC00
079E00
0F0E00
0F0F00
1E0780
3C03C0
3C03C0
7801E0
F000F0
ENDCHAR
STARTCHAR 0079
ENCODING 121
SWIDTH 600 0
DWIDTH 24 0
BBX 20 32 2 -10
BITMAP
F000F0
F000F0
7000E0
7801E0
3801E0
3C01C0
3C03C0
1C0380
1E0380
0E0780
0E0700
0F0700
070F00
078E00
038E00
039E00
01DC00
01DC00
01D800
00F800
00F800
007000
007000
00F000
00E000
01E000
01E000
03C000
07C000
7F8000
7F0000
7C0000
ENDCHAR
STARTCHAR 007A
ENCODING 122
SWIDTH 600 0
DWIDTH 24 0
BBX 16 22 4 0
BITMAP
FFFF
FFFF
FFFF
000F
001E
003C
003C
0078
00F0
01E0
03C0
03C0
0780
0F00
1E00
1E00
3C00
7800
F000
FFFF
FFFF
FFFF
ENDCHAR
STARTCHAR 007B
ENCODING 123
SWIDTH 600 0
DWIDTH 24 0
BBX 12 35 6 -6
BITMAP
0070
01F0
03F0
07C0
0700
0700
0F00
0F00
0F00
0F00
0F00
0F00
0F00
0F00
0F00
1E00
FC00
F000
FC00
3E00
0F00
0F00
0F00
0F00
0F00
0F00
0F00
0F00
0F00
0700
0700
07C0
03F0
01F0
0070
ENDCHAR
STARTCHAR 007C
ENCODING 124
SWIDTH 600 0
DWIDTH 24 0
BBX 2 41 11 -10
BITMAP
C0
C0
C0
C0
C0
C0
C0
C0
C0
C0
C0
C0
C0
C0
C0
C0
C0
C0
C0
C0
C0
C0
C0
C0
C0
C0
C0
C0
C0
C0
C0
C0
C0
C0
C0
C0
C0
C0
C0
C0
C0
ENDCHAR
STARTCHAR 007D
ENCODING 125
SWIDTH 600 0
DWIDTH 24 0
BBX 12 35 6 -7
BITMAP
E000
F800
FC00
3E00
0E00
0E00
0F00
0F00
0F00
0F00
0F00
0F00
0F00
0F00
0F00
0780
03F0
00F0
03F0
0780
0F00
0F00
0F00
0F00
0F00
0F00
0F00
0F00
0F00
0E00
1E00
3E00
FC00
F800
E000
ENDCHAR
STARTCHAR 007E
ENCODING 126
SWIDTH 600 0
DWIDTH 24 0
BBX 18 7 3 12
BITMAP
1E01C0
3F81C0
7FC1C0
61E380
E0FF80
E07F00
C01E00
ENDCHAR
STARTCHAR 00A0
ENCODING 160
SWIDTH 600 0
DWIDTH 24 0
BBX 0 0 0 0
BITMAP
ENDCHAR
STARTCHAR 00A1
ENCODING 161
SWIDTH 600 0
DWIDTH 24 0
BBX 4 29 10 -8
BITMAP
F0
F0
F0
F0
F0
00
00
00
F0
F0
F0
F0
F0
F0
F0
F0
F0
F0
F0
F0
F0
F0
F0
F0
F0
F0
F0
F0
F0
ENDCHAR
STARTCHAR 00A2
ENCODING 162
SWIDTH 600 0
DWIDTH 24 0
BBX 16 29 4 0
BITMAP
00E0
00E0
00E0
03FC
0FFF
1FFF
3E03
7800
7000
F000
F000
E000
E000
E000
E000
E000
E000
F000
F000
F000
7800
7E03
3FFF
0FFF
03FC
00C0
00C0
00C0
00C0
ENDCHAR
STARTCHAR 00A3
ENCODING 163
SWIDTH 600 0
DWIDTH 24 0
BBX 17 29 4 0
BITMAP
00FC00
03FF80
07FF00
0F8300
0F0000
1E0000
1E0000
1E0000
1E0000
1E0000
1E0000
1E0000
1E0000
FFFC00
FFFC00
FFFC00
1E0000
1E0000
1E0000
1E0000
1E0000
1E0000
1E0000
1C0000
3C0000
780000
FFFF80
FFFF80
FFFF80
ENDCHAR
STARTCHAR 00A4
ENCODING 164
SWIDTH 600 0
DWIDTH 24 0
BBX 18 18 3 5
BITMAP
400080
E3F1C0
F7FBC0
7FFF80
3E0F00
380700
300300
700380
700380
700380
700380
700380
380700
3C0F00
7FFF80
F7FFC0
E3F3C0
400180
ENDCHAR
STARTCHAR 00A5
ENCODING 165
SWIDTH 600 0
DWIDTH 24 0
BBX 22 29 1 0
BITMAP
F0003C
780078
380070
3C00F0
1C00E0
1E01E0
0E01C0
0F03C0
070380
078780
038700
03CF00
01CE00
01FE00
00FC00
1FFFE0
1FFFE0
1FFFE0
007800
007800
007800
1FFFE0
1FFFE0
1FFFE0
007800
007800
007800
007800
007800
ENDCHAR
STARTCHAR 00A6
ENCODING 166
SWIDTH 600 0
DWIDTH 24 0
BBX 2 41 11 -10
BITMAP
C0
C0
C0
C0
C0
C0
C0
C0
C0
C0
C0
C0
C0
C0
C0
00
00
00
00
00
00
00
00
00
00
00
C0
C0
C0
C0
C0
C0
C0
C0
C0
C0
C0
C0
C0
C0
C0
ENDCHAR
STARTCHAR 00A7
ENCODING 167
SWIDTH 600 0
DWIDTH 24 0
BBX 16 31 4 0
BITMAP
07F8
1FFE
3FFE
780E
7000
7000
7000
7C00
3F00
1FC0
1FF0
3DFC
703E
701E
700F
7007
7007
780E
3E0E
1FBC
07F8
00FC
003E
000E
000F
000F
800E
E01E
FFFC
FFF8
1FE0
ENDCHAR
STARTCHAR 00A8
ENCODING 168
SWIDTH 600 0
DWIDTH 24 0
BBX 14 5 5 25
BITMAP
7038
F83C
F87C
F83C
7038
ENDCHAR
STARTCHAR 00A9
ENCODING 169
SWIDTH 600 0
DWIDTH 24 0
BBX 20 21 2 4
BITMAP
01F800
0FFF00
1E0780
3801C0
70F8E0
61FC60
E38870
C70030
C60030
C60030
C60030
C60030
C60030
C70030
E38470
63F860
70F8E0
3801C0
1E0780
0FFF00
03F800
ENDCHAR
STARTCHAR 00AA
ENCODING 170
SWIDTH 600 0
DWIDTH 24 0
BBX 11 14 6 16
BITMAP
1F00
7FC0
60E0
00E0
0060
0060
1FE0
7FE0
E060
E060
E0E0
E1E0
7FE0
3E60
ENDCHAR
STARTCHAR 00AB
ENCODING 171
SWIDTH 600 0
DWIDTH 24 0
BBX 16 17 4 2
BITMAP
0202
0787
0F0F
1E1E
1C3C
3C38
7878
F0F0
E1E0
F0F0
7878
3C38
1C3C
1E1E
0F0F
0787
0202
ENDCHAR
STARTCHAR 00AC
ENCODING 172
SWIDTH 600 0
DWIDTH 24 0
BBX 18 10 3 6
BITMAP
FFFFC0
FFFFC0
FFFFC0
0001C0
0001C0
0001C0
0001C0
0001C0
0001C0
0001C0
ENDCHAR
STARTCHAR 00AD
ENCODING 173
SWIDTH 600 0
DWIDTH 24 0
BBX 12 3 6 9
BITMAP
FFF0
FFF0
FFF0
ENDCHAR
STARTCHAR 00AE
ENCODING 174
SWIDTH 600 0
DWIDTH 24 0
BBX 20 21 2 4
BITMAP
01F800
0FFF00
1E0780
3801C0
73F0E0
63FC60
E30C70
C30C30
C30C30
C30C30
C3F830
C3F030
C33830
C31830
E30C70
630E60
7306E0
3801C0
1E0780
0FFF00
03F800
ENDCHAR
STARTCHAR 00AF
ENCODING 175
SWIDTH 600 0
DWIDTH 24 0
BBX 12 3 6 25
BITMAP
FFF0
FFF0
FFF0
ENDCHAR
STARTCHAR 00B0
ENCODING 176
SWIDTH 600 0
DWIDTH 24 0
BBX 12 12 6 17
BITMAP
0F00
3FC0
7FE0
F0F0
E070
C030
C030
E070
F0F0
7FE0
3FC0
1F80
ENDCHAR
STARTCHAR 00B1
ENCODING 177
SWIDTH 600 0
DWIDTH 24 0
BBX 18 24 3 0
BITMAP
01C000
01C000
01C000
01C000
01C000
01C000
01C000
01C000
FFFFC0
FFFFC0
FFFFC0
01C000
01C000
01C000
01C000
01C000
01C000
01C000
01C000
000000
000000
FFFFC0
FFFFC0
FFFFC0
ENDCHAR
STARTCHAR 00B2
ENCODING 178
SWIDTH 600 0
DWIDTH 24 0
BBX 12 17 6 17
BITMAP
3FC0
FFE0
70E0
4070
0070
0060
00E0
00E0
01C0
0380
0700
0E00
1C00
3800
7000
FFF0
FFF0
ENDCHAR
STARTCHAR 00B3
ENCODING 179
SWIDTH 600 0
DWIDTH 24 0
BBX 12 18 6 16
BITMAP
1F80
7FC0
F9E0
40E0
00E0
00E0
00E0
03C0
1F80
1FC0
01E0
0070
0070
0070
80F0
F3E0
FFC0
3F00
ENDCHAR
STARTCHAR 00B4
ENCODING 180
SWIDTH 600 0
DWIDTH 24 0
BBX 8 7 10 24
BITMAP
0F
1F
1E
3C
78
70
E0
ENDCHAR
STARTCHAR 00B5
ENCODING 181
SWIDTH 600 0
DWIDTH 24 0
BBX 18 32 3 -10
BITMAP
F003C0
F003C0
F003C0
F003C0
F003C0
F003C0
F003C0
F003C0
F003C0
F003C0
F003C0
F003C0
F003C0
F003C0
F003C0
F003C0
F007C0
F007C0
FC1FC0
FFFDC0
FFF9C0
FFE1C0
F00000
F00000
F00000
F00000
F00000
F00000
F00000
F00000
F00000
F00000
ENDCHAR
STARTCHAR 00B6
ENCODING 182
SWIDTH 600 0
DWIDTH 24 0
BBX 20 36 2 -5
BITMAP
07FFF0
1FFFF0
3FF870
7FF870
7FF870
FFF870
FFF870
FFF870
FFF870
FFF870
FFF870
FFF870
FFF870
FFF870
FFF870
7FF870
7FF870
3FF870
1FF870
07F870
001870
001870
001870
001870
001870
001870
001870
001870
001870
001870
001870
001870
001870
001870
001870
001870
ENDCHAR
STARTCHAR 00B7
ENCODING 183
SWIDTH 600 0
DWIDTH 24 0
BBX 4 5 10 11
BITMAP
F0
F0
F0
F0
F0
ENDCHAR
STARTCHAR 00B8
ENCODING 184
SWIDTH 600 0
DWIDTH 24 0
BBX 8 10 8 -10
BITMAP
18
38
38
7E
0F
07
07
0F
FE
F8
ENDCHAR
STARTCHAR 00B9
ENCODING 185
SWIDTH 600 0
DWIDTH 24 0
BBX 12 17 6 17
BITMAP
0F00
1F00
7F00
F700
6700
0700
0700
0700
0700
0700
0700
0700
0700
0700
0700
7FF0
7FF0
ENDCHAR
STARTCHAR 00BA
ENCODING 186
SWIDTH 600 0
DWIDTH 24 0
BBX 12 14 6 16
BITMAP
0F00
3FC0
70E0
6060
E070
E070
E070
E070
E070
E070
6060
70E0
3FC0
1F80
ENDCHAR
STARTCHAR 00BB
ENCODING 187
SWIDTH 600 0
DWIDTH 24 0
BBX 16 17 4 2
BITMAP
4040
E1E0
F0F0
7878
3C38
1C3C
1E1E
0F0F
0787
0F0F
1E1E
1E3C
3C38
7878
F0F0
E1E0
4040
ENDCHAR
STARTCHAR 00BC
ENCODING 188
SWIDTH 600 0
DWIDTH 24 0
BBX 23 29 0 0
BITMAP
1E0038
3E0070
FE0070
7E00E0
4E00E0
0E01C0
0E01C0
0E0380
0E0380
0E0700
0E0700
0E0E00
7FCE00
7FDC00
001C00
003838
003878
0070F8
0070F8
00E1F8
00E3B8
01C338
01C738
038E38
038FFE
070FFE
070038
0E0038
1E0038
ENDCHAR
STARTCHAR 00BD
ENCODING 189
SWIDTH 600 0
DWIDTH 24 0
BBX 23 29 0 0
BITMAP
1E0038
3E0070
FE0070
7E00E0
4E00E0
0E01C0
0E01C0
0E0380
0E0380
0E0700
0E0700
0E0E00
7FCE00
7FDC00
001C00
0039F8
003FFC
00731C
00700E
00E00E
00E01C
01C01C
01C038
0380F0
0381E0
070380
0707FE
0E07FE
1E07FE
ENDCHAR
STARTCHAR 00BE
ENCODING 190
SWIDTH 600 0
DWIDTH 24 0
BBX 22 29 1 0
BITMAP
3E0070
FF0070
E780E0
0381E0
0381C0
0783C0
3F0380
3F0700
078700
038E00
018E00
839C00
FF9C00
FE3800
003800
007070
0070F0
00E1F0
00E1F0
01C3F0
01C770
038670
038E70
071C70
071FFC
0E1FFC
0E0070
1C0070
3C0070
ENDCHAR
STARTCHAR 00BF
ENCODING 191
SWIDTH 600 0
DWIDTH 24 0
BBX 16 29 3 -8
BITMAP
01E0
01E0
01F0
01E0
01E0
0000
0000
0000
00E0
00E0
01E0
01C0
03C0
0780
1F00
3E00
7C00
7800
F000
E000
E000
E000
E000
E000
F002
780F
7FFF
3FFF
07F8
ENDCHAR
STARTCHAR 00C0
ENCODING 192
SWIDTH 600 0
DWIDTH 24 0
BBX 22 38 1 0
BITMAP
03C000
03C000
01E000
00F000
007000
003800
001C00
000000
000000
007800
007800
00FC00
00FC00
00FC00
01FE00
01CE00
01CE00
03CF00
03CF00
038700
078780
078780
070380
0F03C0
0F03C0
0E01C0
1FFFC0
1FFFE0
1FFFE0
3C00E0
3C00F0
380070
380070
780078
780078
700038
F0003C
F0003C
ENDCHAR
STARTCHAR 00C1
ENCODING 193
SWIDTH 600 0
DWIDTH 24 0
BBX 22 38 1 0
BITMAP
000780
000780
000F00
001E00
001C00
003800
007000
000000
000000
007800
007800
00FC00
00FC00
00FC00
01FE00
01CE00
01CE00
03CF00
03CF00
038700
078780
078780
070380
0F03C0
0F03C0
0E01C0
1FFFC0
1FFFE0
1FFFE0
3C00E0
3C00F0
380070
380070
780078
780078
700038
F0003C
F0003C
ENDCHAR
STARTCHAR 00C2
ENCODING 194
SWIDTH 600 0
DWIDTH 24 0
BBX 22 38 1 0
BITMAP
007800
00F800
00FC00
01FE00
03CF00
070780
0E01C0
000000
000000
007800
007800
00FC00
00FC00
00FC00
01FE00
01CE00
01CE00
03CF00
03CF00
038700
078780
078780
070380
0F03C0
0F03C0
0E01C0
1FFFC0
1FFFE0
1FFFE0
3C00E0
3C00F0
380070
380070
780078
780078
700038
F0003C
F0003C
ENDCHAR
STARTCHAR 00C3
ENCODING 195
SWIDTH 600 0
DWIDTH 24 0
BBX 22 36 1 0
BITMAP
03C0C0
07F1C0
0FFFC0
0E3F80
0C0F00
000000
000000
007800
007800
00FC00
00FC00
00FC00
01FE00
01CE00
01CE00
03CF00
03CF00
038700
078780
078780
070380
0F03C0
0F03C0
0E01C0
1FFFC0
1FFFE0
1FFFE0
3C00E0
3C00F0
380070
380070
780078
780078
700038
F0003C
F0003C
ENDCHAR
STARTCHAR 00C4
ENCODING 196
SWIDTH 600 0
DWIDTH 24 0
BBX 22 37 1 0
BITMAP
070380
0F07C0
0F87C0
0F03C0
070380
000000
000000
000000
007800
007800
00FC00
00FC00
00FC00
01FE00
01CE00
01CE00
03CF00
03CF00
038700
078780
078780
070380
0F03C0
0F03C0
0E01C0
1FFFC0
1FFFE0
1FFFE0
3C00E0
3C00F0
380070
380070
780078
780078
700038
F0003C
F0003C
ENDCHAR
STARTCHAR 00C5
ENCODING 197
SWIDTH 600 0
DWIDTH 24 0
BBX 22 39 1 0
BITMAP
00F800
01FE00
018E00
018600
018600
01CE00
01FE00
007800
000000
000000
007800
007800
00FC00
00FC00
00FC00
01FE00
01CE00
01CE00
03CF00
03CF00
038700
078780
078780
070380
0F03C0
0F03C0
0E01C0
1FFFC0
1FFFE0
1FFFE0
3C00E0
3C00F0
380070
380070
780078
780078
700038
F0003C
F0003C
ENDCHAR
STARTCHAR 00C6
ENCODING 198
SWIDTH 600 0
DWIDTH 24 0
BBX 21 29 1 0
BITMAP
03FFF8
03FFF8
03FFF8
07BC00
073C00
073C00
073C00
073C00
0F3C00
0E3C00
0E3C00
0E3C00
1E3FF0
1E3FF0
1C3FF0
1C3C00
1C3C00
3FFC00
3FFC00
3FFC00
383C00
783C00
783C00
703C00
703C00
703C00
F03FF8
F03FF8
E03FF8
ENDCHAR
STARTCHAR 00C7
ENCODING 199
SWIDTH 600 0
DWIDTH 24 0
BBX 19 39 3 -10
BITMAP
00FF00
03FFE0
0FFFE0
1F81C0
3E0000
3C0000
780000
780000
F00000
F00000
F00000
E00000
E00000
E00000
E00000
E00000
E00000
E00000
F00000
F00000
F00000
700000
780000
3C0000
3E0000
1F00C0
0FFFC0
07FFC0
00FF00
003000
007000
007000
00FC00
001E00
000E00
000E00
001C00
01FC00
01F000
ENDCHAR
STARTCHAR 00C8
ENCODING 200
SWIDTH 600 0
DWIDTH 24 0
BBX 17 38 4 0
BITMAP
1E0000
1F0000
0F0000
078000
03C000
01C000
00E000
000000
000000
FFFF80
FFFF80
FFFF80
E00000
E00000
E00000
E00000
E00000
E00000
E00000
E00000
E00000
FFFF00
FFFF00
FFFF00
E00000
E00000
E00000
E00000
E00000
E00000
E00000
E00000
E00000
E00000
E00000
FFFF80
FFFF80
FFFF80
ENDCHAR
STARTCHAR 00C9
ENCODING 201
SWIDTH 600 0
DWIDTH 24 0
BBX 17 38 4 0
BITMAP
003E00
003C00
007800
007800
00F000
01E000
01C000
000000
000000
FFFF80
FFFF80
FFFF80
E00000
E00000
E00000
E00000
E00000
E00000
E00000
E00000
E00000
FFFF00
FFFF00
FFFF00
E00000
E00000
E00000
E00000
E00000
E00000
E00000
E00000
E00000
E00000
E00000
FFFF80
FFFF80
FFFF80
ENDCHAR
STARTCHAR 00CA
ENCODING 202
SWIDTH 600 0
DWIDTH 24 0
BBX 17 38 4 0
BITMAP
03C000
03E000
07E000
0F7000
1E3800
3C1C00
780E00
000000
000000
FFFF80
FFFF80
FFFF80
E00000
E00000
E00000
E00000
E00000
E00000
E00000
E00000
E00000
FFFF00
FFFF00
FFFF00
E00000
E00000
E00000
E00000
E00000
E00000
E00000
E00000
E00000
E00000
E00000
FFFF80
FFFF80
FFFF80
ENDCHAR
STARTCHAR 00CB
ENCODING 203
SWIDTH 600 0
DWIDTH 24 0
BBX 17 37 4 0
BITMAP
381C00
3C1E00
7C1E00
3C1E00
381C00
000000
000000
000000
FFFF80
FFFF80
FFFF80
E00000
E00000
E00000
E00000
E00000
E00000
E00000
E00000
E00000
FFFF00
FFFF00
FFFF00
E00000
E00000
E00000
E00000
E00000
E00000
E00000
E00000
E00000
E00000
E00000
FFFF80
FFFF80
FFFF80
ENDCHAR
STARTCHAR 00CC
ENCODING 204
SWIDTH 600 0
DWIDTH 24 0
BBX 16 38 4 0
BITMAP
1E00
1E00
0F00
0780
0380
01C0
00E0
0000
0000
FFFF
FFFF
FFFF
03C0
03C0
03C0
03C0
03C0
03C0
03C0
03C0
03C0
03C0
03C0
03C0
03C0
03C0
03C0
03C0
03C0
03C0
03C0
03C0
03C0
03C0
03C0
FFFF
FFFF
FFFF
ENDCHAR
STARTCHAR 00CD
ENCODING 205
SWIDTH 600 0
DWIDTH 24 0
BBX 16 38 4 0
BITMAP
003C
003C
0078
00F0
00E0
01C0
0380
0000
0000
FFFF
FFFF
FFFF
03C0
03C0
03C0
03C0
03C0
03C0
03C0
03C0
03C0
03C0
03C0
03C0
03C0
03C0
03C0
03C0
03C0
03C0
03C0
03C0
03C0
03C0
03C0
FFFF
FFFF
FFFF
ENDCHAR
STARTCHAR 00CE
ENCODING 206
SWIDTH 600 0
DWIDTH 24 0
BBX 16 38 4 0
BITMAP
03C0
07C0
07E0
0FF0
1E78
383C
700E
0000
0000
FFFF
FFFF
FFFF
03C0
03C0
03C0
03C0
03C0
03C0
03C0
03C0
03C0
03C0
03C0
03C0
03C0
03C0
03C0
03C0
03C0
03C0
03C0
03C0
03C0
03C0
03C0
FFFF
FFFF
FFFF
ENDCHAR
STARTCHAR 00CF
ENCODING 207
SWIDTH 600 0
DWIDTH 24 0
BBX 16 37 4 0
BITMAP
381C
783E
7C3E
781E
381C
0000
0000
0000
FFFF
FFFF
FFFF
03C0
03C0
03C0
03C0
03C0
03C0
03C0
03C0
03C0
03C0
03C0
03C0
03C0
03C0
03C0
03C0
03C0
03C0
03C0
03C0
03C0
03C0
03C0
FFFF
FFFF
FFFF
ENDCHAR
STARTCHAR 00D0
ENCODING 208
SWIDTH 600 0
DWIDTH 24 0
BBX 23 29 0 0
BITMAP
1FFC00
1FFF80
1FFFC0
1E07E0
1E01F0
1E00F8
1E0078
1E003C
1E003C
1E003C
1E001C
1E001C
1E001E
FFF01E
FFF01E
FFF01E
1E001E
1E001C
1E001C
1E003C
1E003C
1E0078
1E0078
1E00F0
1E01F0
1E07E0
1FFFC0
1FFF00
1FF800
ENDCHAR
STARTCHAR 00D1
ENCODING 209
SWIDTH 600 0
DWIDTH 24 0
BBX 18 36 3 0
BITMAP
0F0300
1FC300
1FFF00
38FE00
303C00
000000
000000
F801C0
F801C0
FC01C0
FC01C0
FC01C0
EE01C0
EE01C0
EF01C0
E701C0
E781C0
E381C0
E3C1C0
E1C1C0
E1C1C0
E0E1C0
E0E1C0
E0F1C0
E071C0
E079C0
E039C0
E039C0
E01DC0
E01DC0
E01FC0
E00FC0
E00FC0
E007C0
E007C0
E003C0
ENDCHAR
STARTCHAR 00D2
ENCODING 210
SWIDTH 600 0
DWIDTH 24 0
BBX 20 38 2 0
BITMAP
078000
078000
03C000
01E000
00E000
007000
003800
000000
000000
01F800
07FE00
1FFF80
1E0780
3C03C0
7801E0
7801E0
7000E0
F000F0
F000F0
F000F0
F000F0
F000F0
E000F0
E00070
E000F0
F000F0
F000F0
F000F0
F000F0
F000F0
7000E0
7801E0
7801E0
3C03C0
1E0780
1FFF80
07FE00
01F800
ENDCHAR
STARTCHAR 00D3
ENCODING 211
SWIDTH 600 0
DWIDTH 24 0
BBX 20 38 2 0
BITMAP
000F00
000F00
001E00
003C00
003800
007000
00E000
000000
000000
01F800
07FE00
1FFF80
1E0780
3C03C0
7801E0
7801E0
7000E0
F000F0
F000F0
F000F0
F000F0
F000F0
E000F0
E00070
E000F0
F000F0
F000F0
F000F0
F000F0
F000F0
7000E0
7801E0
7801E0
3C03C0
1E0780
1FFF80
07FE00
01F800
ENDCHAR
STARTCHAR 00D4
ENCODING 212
SWIDTH 600 0
DWIDTH 24 0
BBX 20 38 2 0
BITMAP
00F000
01F000
01F800
03FC00
079E00
0E0F00
1C0380
000000
000000
01F800
07FE00
1FFF80
1E0780
3C03C0
7801E0
7801E0
7000E0
F000F0
F000F0
F000F0
F000F0
F000F0
E000F0
E00070
E000F0
F000F0
F000F0
F000F0
F000F0
F000F0
7000E0
7801E0
7801E0
3C03C0
1E0780
1FFF80
07FE00
01F800
ENDCHAR
STARTCHAR 00D5
ENCODING 213
SWIDTH 600 0
DWIDTH 24 0
BBX 20 36 2 0
BITMAP
078180
0FE380
1FFF80
1C7F00
181E00
000000
000000
01F800
07FE00
1FFF80
1E0780
3C03C0
7801E0
7801E0
7000E0
F000F0
F000F0
F000F0
F000F0
F000F0
E000F0
E00070
E000F0
F000F0
F000F0
F000F0
F000F0
F000F0
7000E0
7801E0
7801E0
3C03C0
1E0780
1FFF80
07FE00
01F800
ENDCHAR
STARTCHAR 00D6
ENCODING 214
SWIDTH 600 0
DWIDTH 24 0
BBX 20 37 2 0
BITMAP
0E0700
1E0F80
1F0F80
1E0780
0E0700
000000
000000
000000
01F800
07FE00
1FFF80
1E0780
3C03C0
7801E0
7801E0
7000E0
F000F0
F000F0
F000F0
F000F0
F000F0
E000F0
E00070
E000F0
F000F0
F000F0
F000F0
F000F0
F000F0
7000E0
7801E0
7801E0
3C03C0
1E0780
1FFF80
07FE00
01F800
ENDCHAR
STARTCHAR 00D7
ENCODING 215
SWIDTH 600 0
DWIDTH 24 0
BBX 18 17 3 6
BITMAP
200100
700380
F807C0
3C0F00
1E1E00
0F3C00
07F800
03F000
01E000
03F000
07F800
0F3C00
1E1E00
3C0F00
780780
F003C0
600180
ENDCHAR
STARTCHAR 00D8
ENCODING 216
SWIDTH 600 0
DWIDTH 24 0
BBX 20 31 2 -1
BITMAP
000040
01F870
07FFE0
1FFFE0
1E0FC0
3C03C0
7803E0
7807E0
7007E0
F00EF0
F01EF0
F01CF0
F03CF0
F038F0
F078F0
E07070
E0E0F0
F1E0F0
F1C0F0
F3C0F0
F380F0
F780F0
7700E0
7E01E0
7E01E0
3C03C0
3E0780
3FFF80
7FFE00
F1F800
200000
ENDCHAR
STARTCHAR 00D9
ENCODING 217
SWIDTH 600 0
DWIDTH 24 0
BBX 18 38 3 0
BITMAP
0F0000
0F0000
078000
03C000
01C000
00E000
007000
000000
000000
E001C0
E001C0
E001C0
E001C0
E001C0
E001C0
E001C0
E001C0
E001C0
E001C0
E001C0
E001C0
E001C0
E001C0
E001C0
E001C0
E001C0
E001C0
E001C0
E001C0
F003C0
F003C0
F003C0
F00380
780780
7C0F00
3FFF00
1FFE00
07F000
ENDCHAR
STARTCHAR 00DA
ENCODING 218
SWIDTH 600 0
DWIDTH 24 0
BBX 18 38 3 0
BITMAP
001E00
001E00
003C00
007800
007000
00E000
01C000
000000
000000
E001C0
E001C0
E001C0
E001C0
E001C0
E001C0
E001C0
E001C0
E001C0
E001C0
E001C0
E001C0
E001C0
E001C0
E001C0
E001C0
E001C0
E001C0
E001C0
E001C0
F003C0
F003C0
F003C0
F00380
780780
7C0F00
3FFF00
1FFE00
07F000
ENDCHAR
STARTCHAR 00DB
ENCODING 219
SWIDTH 600 0
DWIDTH 24 0
BBX 18 38 3 0
BITMAP
01E000
03E000
03F000
07F800
0F3C00
1C1E00
380700
000000
000000
E001C0
E001C0
E001C0
E001C0
E001C0
E001C0
E001C0
E001C0
E001C0
E001C0
E001C0
E001C0
E001C0
E001C0
E001C0
E001C0
E001C0
E001C0
E001C0
E001C0
F003C0
F003C0
F003C0
F00380
780780
7C0F00
3FFF00
1FFE00
07F000
ENDCHAR
STARTCHAR 00DC
ENCODING 220
SWIDTH 600 0
DWIDTH 24 0
BBX 18 37 3 0
BITMAP
1C0E00
3C1F00
3E1F00
3C0F00
1C0E00
000000
000000
000000
E001C0
E001C0
E001C0
E001C0
E001C0
E001C0
E001C0
E001C0
E001C0
E001C0
E001C0
E001C0
E001C0
E001C0
E001C0
E001C0
E001C0
E001C0
E001C0
E001C0
F003C0
F003C0
F003C0
F00380
780780
7C0F00
3FFF00
1FFE00
07F000
ENDCHAR
STARTCHAR 00DD
ENCODING 221
SWIDTH 600 0
DWIDTH 24 0
BBX 22 38 1 0
BITMAP
000780
000780
000F00
001E00
001C00
003800
007000
000000
000000
F8003C
780078
380070
3C00F0
1C00E0
1E01E0
0E01C0
0F03C0
070380
078780
038700
03C700
01CE00
01CE00
00FC00
00FC00
007800
007800
007800
007800
007800
007800
007800
007800
007800
007800
007800
007800
007800
ENDCHAR
STARTCHAR 00DE
ENCODING 222
SWIDTH 600 0
DWIDTH 24 0
BBX 18 29 4 0
BITMAP
E00000
E00000
E00000
E00000
E00000
E00000
FFF000
FFFE00
FFFF00
E01F80
E00780
E00780
E003C0
E003C0
E003C0
E003C0
E003C0
E00780
E00780
E01F00
FFFE00
FFFC00
FFF000
E00000
E00000
E00000
E00000
E00000
E00000
ENDCHAR
STARTCHAR 00DF
ENCODING 223
SWIDTH 600 0
DWIDTH 24 0
BBX 20 31 3 0
BITMAP
07F800
1FFE00
3FFF00
7C0F80
F00780
F00380
F00380
F00780
F00780
F00F00
F03E00
F07C00
F07800
F0F000
F0F000
F07000
F07C00
F03E00
F01F80
F00FC0
F003E0
F001E0
F000F0
F000F0
F000F0
F000F0
F200F0
F181E0
F1FFE0
F1FFC0
F0FF00
ENDCHAR
STARTCHAR 00E0
ENCODING 224
SWIDTH 600 0
DWIDTH 24 0
BBX 17 31 3 0
BITMAP
0F0000
0F8000
078000
03C000
01E000
00E000
007000
000000
000000
07F800
3FFE00
7FFF00
380F80
000780
000380
000380
000380
07FF80
1FFF80
3FFF80
7C0380
F00380
F00380
E00380
E00380
E00780
F00F80
F83F80
7FFB80
3FF380
0FC380
ENDCHAR
STARTCHAR 00E1
ENCODING 225
SWIDTH 600 0
DWIDTH 24 0
BBX 17 31 3 0
BITMAP
001F00
001E00
003C00
003C00
007800
00F000
00E000
000000
000000
07F800
3FFE00
7FFF00
380F80
000780
000380
000380
000380
07FF80
1FFF80
3FFF80
7C0380
F00380
F00380
E00380
E00380
E00780
F00F80
F83F80
7FFB80
3FF380
0FC380
ENDCHAR
STARTCHAR 00E2
ENCODING 226
SWIDTH 600 0
DWIDTH 24 0
BBX 17 31 3 0
BITMAP
01E000
01F000
03F000
07B800
0F1C00
1E0E00
3C0700
000000
000000
07F800
3FFE00
7FFF00
380F80
000780
000380
000380
000380
07FF80
1FFF80
3FFF80
7C0380
F00380
F00380
E00380
E00380
E00780
F00F80
F83F80
7FFB80
3FF380
0FC380
ENDCHAR
STARTCHAR 00E3
ENCODING 227
SWIDTH 600 0
DWIDTH 24 0
BBX 17 29 3 0
BITMAP
0F0300
1FC300
1FFF00
38FE00
303C00
000000
000000
07F800
3FFE00
7FFF00
380F80
000780
000380
000380
000380
07FF80
1FFF80
3FFF80
7C0380
F00380
F00380
E00380
E00380
E00780
F00F80
F83F80
7FFB80
3FF380
0FC380
ENDCHAR
STARTCHAR 00E4
ENCODING 228
SWIDTH 600 0
DWIDTH 24 0
BBX 17 30 3 0
BITMAP
1C0E00
1E0F00
3E0F00
1E0F00
1C0E00
000000
000000
000000
07F800
3FFE00
7FFF00
380F80
000780
000380
000380
000380
07FF80
1FFF80
3FFF80
7C0380
F00380
F00380
E00380
E00380
E00780
F00F80
F83F80
7FFB80
3FF380
0FC380
ENDCHAR
STARTCHAR 00E5
ENCODING 229
SWIDTH 600 0
DWIDTH 24 0
BBX 17 32 3 0
BITMAP
01F000
03F800
071800
061C00
061C00
071800
03F800
01F000
000000
000000
07F800
3FFE00
7FFF00
380F80
000780
000380
000380
000380
07FF80
1FFF80
3FFF80
7C0380
F00380
F00380
E00380
E00380
E00780
F00F80
F83F80
7FFB80
3FF380
0FC380
ENDCHAR
STARTCHAR 00E6
ENCODING 230
SWIDTH 600 0
DWIDTH 24 0
BBX 22 22 1 0
BITMAP
0F83E0
3FC7F0
7FEFF8
30FC38
207C3C
00781C
00781C
00781C
00781C
1FFFFC
3FFFFC
7FFFFC
F87000
F07000
E07800
E07800
E07800
E0FC04
F1FE0C
7FCFFC
7F87FC
1F03F0
ENDCHAR
STARTCHAR 00E7
ENCODING 231
SWIDTH 600 0
DWIDTH 24 0
BBX 17 32 3 -10
BITMAP
01FE00
07FF80
1FFF80
3F0300
3C0000
780000
780000
700000
700000
F00000
F00000
F00000
F00000
700000
700000
780000
780000
3C0000
3F0180
1FFF80
0FFF80
01FE00
006000
006000
00E000
00F800
003C00
001C00
001C00
003C00
03F800
03E000
ENDCHAR
STARTCHAR 00E8
ENCODING 232
SWIDTH 600 0
DWIDTH 24 0
BBX 20 31 2 0
BITMAP
078000
07C000
03C000
01E000
00E000
007000
003800
000000
000000
01FC00
07FF00
0FFF80
1F07C0
3C03C0
7801E0
7800E0
7000E0
7000E0
FFFFF0
FFFFF0
FFFFF0
F00000
700000
700000
780000
780000
3C0020
1F00E0
0FFFE0
07FFE0
01FF00
ENDCHAR
STARTCHAR 00E9
ENCODING 233
SWIDTH 600 0
DWIDTH 24 0
BBX 20 31 2 0
BITMAP
000F80
000F00
001E00
001E00
003C00
007800
006000
000000
000000
01FC00
07FF00
0FFF80
1F07C0
3C03C0
7801E0
7800E0
7000E0
7000E0
FFFFF0
FFFFF0
FFFFF0
F00000
700000
700000
780000
780000
3C0020
1F00E0
0FFFE0
07FFE0
01FF00
ENDCHAR
STARTCHAR 00EA
ENCODING 234
SWIDTH 600 0
DWIDTH 24 0
BBX 20 31 2 0
BITMAP
00F000
00F800
01F800
03FC00
079E00
0F0F00
1E0380
000000
000000
01FC00
07FF00
0FFF80
1F07C0
3C03C0
7801E0
7800E0
7000E0
7000E0
FFFFF0
FFFFF0
FFFFF0
F00000
700000
700000
780000
780000
3C0020
1F00E0
0FFFE0
07FFE0
01FF00
ENDCHAR
STARTCHAR 00EB
ENCODING 235
SWIDTH 600 0
DWIDTH 24 0
BBX 20 30 2 0
BITMAP
0E0700
1F0780
1F0780
0F0780
0E0700
000000
000000
000000
01FC00
07FF00
0FFF80
1F07C0
3C03C0
7801E0
7800E0
7000E0
7000E0
FFFFF0
FFFFF0
FFFFF0
F00000
700000
700000
780000
780000
3C0020
1F00E0
0FFFE0
07FFE0
01FF00
ENDCHAR
STARTCHAR 00EC
ENCODING 236
SWIDTH 600 0
DWIDTH 24 0
BBX 19 31 3 0
BITMAP
0F0000
0F0000
078000
03C000
01C000
00E000
007000
000000
000000
7FE000
7FE000
7FE000
00E000
00E000
00E000
00E000
00E000
00E000
00E000
00E000
00E000
00E000
00E000
00E000
00E000
00E000
00E000
00E000
7FFFC0
FFFFE0
FFFFE0
ENDCHAR
STARTCHAR 00ED
ENCODING 237
SWIDTH 600 0
DWIDTH 24 0
BBX 19 31 3 0
BITMAP
001E00
001E00
003C00
007800
007000
00E000
01C000
000000
000000
7FE000
7FE000
7FE000
00E000
00E000
00E000
00E000
00E000
00E000
00E000
00E000
00E000
00E000
00E000
00E000
00E000
00E000
00E000
00E000
7FFFC0
FFFFE0
FFFFE0
ENDCHAR
STARTCHAR 00EE
ENCODING 238
SWIDTH 600 0
DWIDTH 24 0
BBX 19 31 3 0
BITMAP
01E000
03E000
03F000
07F800
0F3C00
1C1E00
380700
000000
000000
7FE000
7FE000
7FE000
00E000
00E000
00E000
00E000
00E000
00E000
00E000
00E000
00E000
00E000
00E000
00E000
00E000
00E000
00E000
00E000
7FFFC0
FFFFE0
FFFFE0
ENDCHAR
STARTCHAR 00EF
ENCODING 239
SWIDTH 600 0
DWIDTH 24 0
BBX 19 30 3 0
BITMAP
1C0E00
3C1F00
3E1F00
3C0F00
1C0E00
000000
000000
000000
7FE000
7FE000
7FE000
00E000
00E000
00E000
00E000
00E000
00E000
00E000
00E000
00E000
00E000
00E000
00E000
00E000
00E000
00E000
00E000
7FFFC0
FFFFE0
FFFFE0
ENDCHAR
STARTCHAR 00F0
ENCODING 240
SWIDTH 600 0
DWIDTH 24 0
BBX 20 31 2 0
BITMAP
020080
038380
07C7C0
01FF00
00FE00
00FC00
03FE00
0F8F00
070700
040780
0003C0
0001C0
03F9C0
0FFEE0
1FFFE0
3E07E0
7801F0
7801F0
7000F0
F000F0
F000F0
F000F0
F000F0
F000E0
7000E0
7801E0
7C03C0
3E07C0
1FFF80
0FFF00
03F800
ENDCHAR
STARTCHAR 00F1
ENCODING 241
SWIDTH 600 0
DWIDTH 24 0
BBX 18 29 3 0
BITMAP
078380
0FE300
1FFF00
18FE00
303C00
000000
000000
E1FC00
E7FF00
EFFF80
FE0F80
FC03C0
F803C0
F003C0
F003C0
F003C0
F003C0
F003C0
F003C0
F003C0
F003C0
F003C0
F003C0
F003C0
F003C0
F003C0
F003C0
F003C0
F003C0
ENDCHAR
STARTCHAR 00F2
ENCODING 242
SWIDTH 600 0
DWIDTH 24 0
BBX 20 31 2 0
BITMAP
078000
078000
03C000
01E000
00E000
007000
003800
000000
000000
01F800
0FFE00
1FFF80
3E07C0
3C03C0
7801E0
7801E0
7000E0
F000F0
F000F0
F000F0
F000F0
F000F0
F000F0
7000E0
7801E0
7801E0
3C03C0
3E07C0
1FFF80
0FFF00
01F800
ENDCHAR
STARTCHAR 00F3
ENCODING 243
SWIDTH 600 0
DWIDTH 24 0
BBX 20 31 2 0
BITMAP
000F00
000F00
001E00
003C00
003800
007000
00E000
000000
000000
01F800
0FFE00
1FFF80
3E07C0
3C03C0
7801E0
7801E0
7000E0
F000F0
F000F0
F000F0
F000F0
F000F0
F000F0
7000E0
7801E0
7801E0
3C03C0
3E07C0
1FFF80
0FFF00
01F800
ENDCHAR
STARTCHAR 00F4
ENCODING 244
SWIDTH 600 0
DWIDTH 24 0
BBX 20 31 2 0
BITMAP
00F000
01F000
01F800
03FC00
079E00
0E0F00
1C0380
000000
000000
01F800
0FFE00
1FFF80
3E07C0
3C03C0
7801E0
7801E0
7000E0
F000F0
F000F0
F000F0
F000F0
F000F0
F000F0
7000E0
7801E0
7801E0
3C03C0
3E07C0
1FFF80
0FFF00
01F800
ENDCHAR
STARTCHAR 00F5
ENCODING 245
SWIDTH 600 0
DWIDTH 24 0
BBX 20 29 2 0
BITMAP
078180
0FE380
1FFF80
1C7F00
181E00
000000
000000
01F800
0FFE00
1FFF80
3E07C0
3C03C0
7801E0
7801E0
7000E0
F000F0
F000F0
F000F0
F000F0
F000F0
F000F0
7000E0
7801E0
7801E0
3C03C0
3E07C0
1FFF80
0FFF00
01F800
ENDCHAR
STARTCHAR 00F6
ENCODING 246
SWIDTH 600 0
DWIDTH 24 0
BBX 20 30 2 0
BITMAP
0E0700
1E0F80
1F0F80
1E0780
0E0700
000000
000000
000000
01F800
0FFE00
1FFF80
3E07C0
3C03C0
7801E0
7801E0
7000E0
F000F0
F000F0
F000F0
F000F0
F000F0
F000F0
7000E0
7801E0
7801E0
3C03C0
3E07C0
1FFF80
0FFF00
01F800
ENDCHAR
STARTCHAR 00F7
ENCODING 247
SWIDTH 600 0
DWIDTH 24 0
BBX 18 19 3 5
BITMAP
01C000
01E000
01E000
01E000
01C000
000000
000000
000000
FFFFC0
FFFFC0
FFFFC0
000000
000000
000000
01C000
01E000
01E000
01E000
01C000
ENDCHAR
STARTCHAR 00F8
ENCODING 248
SWIDTH 600 0
DWIDTH 24 0
BBX 20 24 2 -1
BITMAP
000040
01F8E0
0FFFE0
1FFFC0
3E07C0
3C07C0
780FE0
780FE0
701EE0
F03CF0
F038F0
F070F0
F0F0F0
F1E0F0
F1C0F0
7380E0
7F81E0
7F01E0
3E03C0
3E07C0
3FFF80
3FFF00
71F800
100000
ENDCHAR
STARTCHAR 00F9
ENCODING 249
SWIDTH 600 0
DWIDTH 24 0
BBX 18 31 3 0
BITMAP
0F0000
0F0000
078000
03C000
01C000
00E000
007000
000000
000000
F003C0
F003C0
F003C0
F003C0
F003C0
F003C0
F003C0
F003C0
F003C0
F003C0
F003C0
F003C0
F003C0
F003C0
F003C0
F003C0
F007C0
F007C0
7C1FC0
7FFDC0
3FF9C0
0FE1C0
ENDCHAR
STARTCHAR 00FA
ENCODING 250
SWIDTH 600 0
DWIDTH 24 0
BBX 18 31 3 0
BITMAP
001E00
001E00
003C00
007800
007000
00E000
01C000
000000
000000
F003C0
F003C0
F003C0
F003C0
F003C0
F003C0
F003C0
F003C0
F003C0
F003C0
F003C0
F003C0
F003C0
F003C0
F003C0
F003C0
F007C0
F007C0
7C1FC0
7FFDC0
3FF9C0
0FE1C0
ENDCHAR
STARTCHAR 00FB
ENCODING 251
SWIDTH 600 0
DWIDTH 24 0
BBX 18 31 3 0
BITMAP
01E000
03E000
03F000
07F800
0F3C00
1C1E00
380700
000000
000000
F003C0
F003C0
F003C0
F003C0
F003C0
F003C0
F003C0
F003C0
F003C0
F003C0
F003C0
F003C0
F003C0
F003C0
F003C0
F003C0
F007C0
F007C0
7C1FC0
7FFDC0
3FF9C0
0FE1C0
ENDCHAR
STARTCHAR 00FC
ENCODING 252
SWIDTH 600 0
DWIDTH 24 0
BBX 18 30 3 0
BITMAP
1C0E00
3C1F00
3E1F00
3C0F00
1C0E00
000000
000000
000000
F003C0
F003C0
F003C0
F003C0
F003C0
F003C0
F003C0
F003C0
F003C0
F003C0
F003C0
F003C0
F003C0
F003C0
F003C0
F003C0
F007C0
F007C0
7C1FC0
7FFDC0
3FF9C0
0FE1C0
ENDCHAR
STARTCHAR 00FD
ENCODING 253
SWIDTH 600 0
DWIDTH 24 0
BBX 20 41 2 -10
BITMAP
000F00
000F00
001E00
003C00
003800
007000
00E000
000000
000000
F000F0
F000F0
7000E0
7801E0
3801E0
3C01C0
3C03C0
1C0380
1E0380
0E0780
0E0700
0F0700
070F00
078E00
038E00
039E00
01DC00
01DC00
01D800
00F800
00F800
007000
007000
00F000
00E000
01E000
01E000
03C000
07C000
7F8000
7F0000
7C0000
ENDCHAR
STARTCHAR 00FE
ENCODING 254
SWIDTH 600 0
DWIDTH 24 0
BBX 19 41 3 -10
BITMAP
F00000
F00000
F00000
F00000
F00000
F00000
F00000
F00000
F00000
F1F800
F7FE00
FFFF00
FE0F80
F807C0
F803C0
F001C0
F001C0
F001E0
F001E0
F001E0
F001E0
F001E0
F001E0
F001C0
F003C0
F803C0
F807C0
FE0F80
FFFF00
F7FE00
F1F800
F00000
F00000
F00000
F00000
F00000
F00000
F00000
F00000
F00000
F00000
ENDCHAR
STARTCHAR 00FF
ENCODING 255
SWIDTH 600 0
DWIDTH 24 0
BBX 20 40 2 -10
BITMAP
0E0700
1E0F80
1F0F80
1E0780
0E0700
000000
000000
000000
F000F0
F000F0
7000E0
7801E0
3801E0
3C01C0
3C03C0
1C0380
1E0380
0E0780
0E0700
0F0700
070F00
078E00
038E00
039E00
01DC00
01DC00
01D800
00F800
00F800
007000
007000
00F000
00E000
01E000
01E000
03C000
07C000
7F8000
7F0000
7C0000
ENDCHAR
STARTCHAR 0100
ENCODING 256
SWIDTH 600 0
DWIDTH 24 0
BBX 22 35 1 0
BITMAP
07FF80
07FF80
07FF80
000000
000000
000000
007800
007800
00FC00
00FC00
00FC00
01FE00
01CE00
01CE00
03CF00
03CF00
038700
078780
078780
070380
0F03C0
0F03C0
0E01C0
1FFFC0
1FFFE0
1FFFE0
3C00E0
3C00F0
380070
380070
780078
780078
700038
F0003C
F0003C
ENDCHAR
STARTCHAR 0101
ENCODING 257
SWIDTH 600 0
DWIDTH 24 0
BBX 17 28 3 0
BITMAP
1FFE00
1FFE00
1FFE00
000000
000000
000000
07F800
3FFE00
7FFF00
380F80
000780
000380
000380
000380
07FF80
1FFF80
3FFF80
7C0380
F00380
F00380
E00380
E00380
E00780
F00F80
F83F80
7FFB80
3FF380
0FC380
ENDCHAR
STARTCHAR 0102
ENCODING 258
SWIDTH 600 0
DWIDTH 24 0
BBX 22 37 1 0
BITMAP
060180
060380
078780
03FF00
03FE00
00FC00
000000
000000
007800
007800
00FC00
00FC00
00FC00
01FE00
01CE00
01CE00
03CF00
03CF00
038700
078780
078780
070380
0F03C0
0F03C0
0E01C0
1FFFC0
1FFFE0
1FFFE0
3C00E0
3C00F0
380070
380070
780078
780078
700038
F0003C
F0003C
ENDCHAR
STARTCHAR 0103
ENCODING 259
SWIDTH 600 0
DWIDTH 24 0
BBX 17 30 3 0
BITMAP
180600
1C0600
1E0E00
0FFE00
07FC00
03F000
000000
000000
07F800
3FFE00
7FFF00
380F80
000780
000380
000380
000380
07FF80
1FFF80
3FFF80
7C0380
F00380
F00380
E00380
E00380
E00780
F00F80
F83F80
7FFB80
3FF380
0FC380
ENDCHAR
STARTCHAR 0104
ENCODING 260
SWIDTH 600 0
DWIDTH 24 0
BBX 23 38 1 -9
BITMAP
007800
007800
00FC00
00FC00
00FC00
01FE00
01CE00
01CE00
03CF00
03CF00
038700
078780
078780
070380
0F03C0
0F03C0
0E01C0
1FFFC0
1FFFE0
1FFFE0
3C00E0
3C00F0
380070
380070
780078
780078
700038
F0003C
F0003C
000018
000030
000070
000070
000070
000070
00007E
00007E
00003E
ENDCHAR
STARTCHAR 0105
ENCODING 261
SWIDTH 600 0
DWIDTH 24 0
BBX 18 31 3 -9
BITMAP
07F800
3FFE00
7FFF00
380F80
000780
000380
000380
000380
07FF80
1FFF80
3FFF80
7C0380
F00380
F00380
E00380
E00380
E00780
F00F80
F83F80
7FFB80
3FF380
0FC380
000300
000600
000E00
000E00
000C00
000E00
000FC0
000FC0
0007C0
ENDCHAR
STARTCHAR 0106
ENCODING 262
SWIDTH 600 0
DWIDTH 24 0
BBX 19 38 3 0
BITMAP
0003C0
000780
000F80
000F00
001E00
003C00
003800
000000
000000
00FF00
03FFE0
0FFFE0
1F81C0
3E0000
3C0000
780000
780000
F00000
F00000
F00000
E00000
E00000
E00000
E00000
E00000
E00000
E00000
F00000
F00000
F00000
700000
780000
3C0000
3E0000
1F00C0
0FFFC0
07FFC0
00FF00
ENDCHAR
STARTCHAR 0107
ENCODING 263
SWIDTH 600 0
DWIDTH 24 0
BBX 17 31 3 0
BITMAP
000F80
000F00
001E00
001C00
003C00
007800
00E000
000000
000000
01FE00
07FF80
1FFF80
3F0300
3C0000
780000
780000
700000
700000
F00000
F00000
F00000
F00000
700000
700000
780000
780000
3C0000
3F0180
1FFF80
0FFF80
01FE00
ENDCHAR
STARTCHAR 0108
ENCODING 264
SWIDTH 600 0
DWIDTH 24 0
BBX 19 38 3 0
BITMAP
003800
007C00
00FC00
01EE00
03C700
038380
0701C0
000000
000000
00FF00
03FFE0
0FFFE0
1F81C0
3E0000
3C0000
780000
780000
F00000
F00000
F00000
E00000
E00000
E00000
E00000
E00000
E00000
E00000
F00000
F00000
F00000
700000
780000
3C0000
3E0000
1F00C0
0FFFC0
07FFC0
00FF00
ENDCHAR
STARTCHAR 0109
ENCODING 265
SWIDTH 600 0
DWIDTH 24 0
BBX 17 31 3 0
BITMAP
00F000
00F800
01F800
03FC00
079E00
0F0F00
1C0380
000000
000000
01FE00
07FF80
1FFF80
3F0300
3C0000
780000
780000
700000
700000
F00000
F00000
F00000
F00000
700000
700000
780000
780000
3C0000
3F0180
1FFF80
0FFF80
01FE00
ENDCHAR
STARTCHAR 010A
ENCODING 266
SWIDTH 600 0
DWIDTH 24 0
BBX 19 37 3 0
BITMAP
003800
007C00
007C00
007C00
003800
000000
000000
000000
00FF00
03FFE0
0FFFE0
1F81C0
3E0000
3C0000
780000
780000
F00000
F00000
F00000
E00000
E00000
E00000
E00000
E00000
E00000
E00000
F00000
F00000
F00000
700000
780000
3C0000
3E0000
1F00C0
0FFFC0
07FFC0
00FF00
ENDCHAR
STARTCHAR 010B
ENCODING 267
SWIDTH 600 0
DWIDTH 24 0
BBX 17 30 3 0
BITMAP
00F000
00F000
00F800
00F000
007000
000000
000000
000000
01FE00
07FF80
1FFF80
3F0300
3C0000
780000
780000
700000
700000
F00000
F00000
F00000
F00000
700000
700000
780000
780000
3C0000
3F0180
1FFF80
0FFF80
01FE00
ENDCHAR
STARTCHAR 010C
ENCODING 268
SWIDTH 600 0
DWIDTH 24 0
BBX 19 38 3 0
BITMAP
0600C0
0703C0
03C780
01EF00
00FE00
00FC00
007800
000000
000000
00FF00
03FFE0
0FFFE0
1F81C0
3E0000
3C0000
780000
780000
F00000
F00000
F00000
E00000
E00000
E00000
E00000
E00000
E00000
E00000
F00000
F00000
F00000
700000
780000
3C0000
3E0000
1F00C0
0FFFC0
07FFC0
00FF00
ENDCHAR
STARTCHAR 010D
ENCODING 269
SWIDTH 600 0
DWIDTH 24 0
BBX 17 31 3 0
BITMAP
1C0380
0E0700
070F00
039E00
03FC00
01F800
00F000
000000
000000
01FE00
07FF80
1FFF80
3F0300
3C0000
780000
780000
700000
700000
F00000
F00000
F00000
F00000
700000
700000
780000
780000
3C0000
3F0180
1FFF80
0FFF80
01FE00
ENDCHAR
STARTCHAR 010E
ENCODING 270
SWIDTH 600 0
DWIDTH 24 0
BBX 19 38 3 0
BITMAP
700E00
381C00
1C3800
0E7800
0FF000
07E000
03C000
000000
000000
FFE000
FFF800
FFFE00
E03F00
E00F80
E00780
E003C0
E003C0
E001C0
E001E0
E001E0
E001E0
E001E0
E001E0
E001E0
E001E0
E001E0
E001E0
E001E0
E001E0
E001C0
E003C0
E007C0
E00780
E00F00
E07E00
FFFC00
FFF800
FFC000
ENDCHAR
STARTCHAR 010F
ENCODING 271
SWIDTH 600 0
DWIDTH 24 0
BBX 24 31 2 0
BITMAP
00038F
00038E
00038E
00039C
00039C
000398
000380
000380
000380
07E380
1FF380
3FFB80
7C1F80
780F80
780780
F00780
F00780
F00780
F00380
E00380
E00380
F00380
F00380
F00780
F00780
700780
780F80
7C1F80
3FFB80
1FF380
07E380
ENDCHAR
STARTCHAR 0110
ENCODING 272
SWIDTH 600 0
DWIDTH 24 0
BBX 23 29 0 0
BITMAP
1FFC00
1FFF80
1FFFC0
1E07E0
1E01F0
1E00F8
1E0078
1E003C
1E003C
1E003C
1E001C
1E001C
1E001E
FFF01E
FFF01E
FFF01E
1E001E
1E001C
1E001C
1E003C
1E003C
1E0078
1E0078
1E00F0
1E01F0
1E07E0
1FFFC0
1FFF00
1FF800
ENDCHAR
STARTCHAR 0111
ENCODING 273
SWIDTH 600 0
DWIDTH 24 0
BBX 22 31 2 0
BITMAP
0001E0
0001E0
0001E0
00FFFC
00FFFC
00FFFC
0001E0
0001E0
0001E0
03F1E0
0FFDE0
1FFFE0
3E0FE0
7C07E0
7803E0
7801E0
F001E0
F001E0
F001E0
F001E0
F001E0
F001E0
F001E0
F001E0
7001E0
7803E0
7C03E0
3E0FE0
1FFEE0
0FFCE0
03F0E0
ENDCHAR
STARTCHAR 0112
ENCODING 274
SWIDTH 600 0
DWIDTH 24 0
BBX 17 35 4 0
BITMAP
3FFC00
3FFC00
3FFC00
000000
000000
000000
FFFF80
FFFF80
FFFF80
E00000
E00000
E00000
E00000
E00000
E00000
E00000
E00000
E00000
FFFF00
FFFF00
FFFF00
E00000
E00000
E00000
E00000
E00000
E00000
E00000
E00000
E00000
E00000
E00000
FFFF80
FFFF80
FFFF80
ENDCHAR
STARTCHAR 0113
ENCODING 275
SWIDTH 600 0
DWIDTH 24 0
BBX 20 28 2 0
BITMAP
0FFF00
0FFF00
0FFF00
000000
000000
000000
01FC00
07FF00
0FFF80
1F07C0
3C03C0
7801E0
7800E0
7000E0
7000E0
FFFFF0
FFFFF0
FFFFF0
F00000
700000
700000
780000
780000
3C0020
1F00E0
0FFFE0
07FFE0
01FF00
ENDCHAR
STARTCHAR 0114
ENCODING 276
SWIDTH 600 0
DWIDTH 24 0
BBX 17 37 4 0
BITMAP
300C00
380C00
3C1C00
1FFC00
0FF800
07E000
000000
000000
FFFF80
FFFF80
FFFF80
E00000
E00000
E00000
E00000
E00000
E00000
E00000
E00000
E00000
FFFF00
FFFF00
FFFF00
E00000
E00000
E00000
E00000
E00000
E00000
E00000
E00000
E00000
E00000
E00000
FFFF80
FFFF80
FFFF80
ENDCHAR
STARTCHAR 0115
ENCODING 277
SWIDTH 600 0
DWIDTH 24 0
BBX 20 30 2 0
BITMAP
0C0300
0E0300
0F0700
07FE00
03FE00
01F800
000000
000000
01FC00
07FF00
0FFF80
1F07C0
3C03C0
7801E0
7800E0
7000E0
7000E0
FFFFF0
FFFFF0
FFFFF0
F00000
700000
700000
780000
780000
3C0020
1F00E0
0FFFE0
07FFE0
01FF00
ENDCHAR
STARTCHAR 0116
ENCODING 278
SWIDTH 600 0
DWIDTH 24 0
BBX 17 37 4 0
BITMAP
01C000
03E000
03E000
03E000
01C000
000000
000000
000000
FFFF80
FFFF80
FFFF80
E00000
E00000
E00000
E00000
E00000
E00000
E00000
E00000
E00000
FFFF00
FFFF00
FFFF00
E00000
E00000
E00000
E00000
E00000
E00000
E00000
E00000
E00000
E00000
E00000
FFFF80
FFFF80
FFFF80
ENDCHAR
STARTCHAR 0117
ENCODING 279
SWIDTH 600 0
DWIDTH 24 0
BBX 20 30 2 0
BITMAP
00F000
00F000
00F800
00F000
00F000
000000
000000
000000
01FC00
07FF00
0FFF80
1F07C0
3C03C0
7801E0
7800E0
7000E0
7000E0
FFFFF0
FFFFF0
FFFFF0
F00000
700000
700000
780000
780000
3C0020
1F00E0
0FFFE0
07FFE0
01FF00
ENDCHAR
STARTCHAR 0118
ENCODING 280
SWIDTH 600 0
DWIDTH 24 0
BBX 17 38 4 -9
BITMAP
FFFF80
FFFF80
FFFF80
E00000
E00000
E00000
E00000
E00000
E00000
E00000
E00000
E00000
FFFF00
FFFF00
FFFF00
E00000
E00000
E00000
E00000
E00000
E00000
E00000
E00000
E00000
E00000
E00000
FFFF80
FFFF80
FFFF80
001C00
003800
007000
007000
007000
007000
007E00
007E00
001E00
ENDCHAR
STARTCHAR 0119
ENCODING 281
SWIDTH 600 0
DWIDTH 24 0
BBX 20 31 2 -9
BITMAP
01FC00
07FF00
0FFF80
1F07C0
3C03C0
7801E0
7800E0
7000E0
7000E0
FFFFF0
FFFFF0
FFFFF0
F00000
700000
700000
780000
780000
3C0020
1F00E0
0FFFE0
07FFE0
01FF80
000300
000600
000E00
000E00
000E00
000E00
000FC0
000FC0
0003C0
ENDCHAR
STARTCHAR 011A
ENCODING 282
SWIDTH 600 0
DWIDTH 24 0
BBX 17 38 4 0
BITMAP
700600
381E00
1C3C00
0E7800
07F000
07E000
03C000
000000
000000
FFFF80
FFFF80
FFFF80
E00000
E00000
E00000
E00000
E00000
E00000
E00000
E00000
E00000
FFFF00
FFFF00
FFFF00
E00000
E00000
E00000
E00000
E00000
E00000
E00000
E00000
E00000
E00000
E00000
FFFF80
FFFF80
FFFF80
ENDCHAR
STARTCHAR 011B
ENCODING 283
SWIDTH 600 0
DWIDTH 24 0
BBX 20 31 2 0
BITMAP
1C0380
0E0780
070F00
039E00
03FC00
01F800
00F000
000000
000000
01FC00
07FF00
0FFF80
1F07C0
3C03C0
7801E0
7800E0
7000E0
7000E0
FFFFF0
FFFFF0
FFFFF0
F00000
700000
700000
780000
780000
3C0020
1F00E0
0FFFE0
07FFE0
01FF00
ENDCHAR
STARTCHAR 011C
ENCODING 284
SWIDTH 600 0
DWIDTH 24 0
BBX 19 38 2 0
BITMAP
007800
00F800
00FC00
01DE00
038F00
070780
0E03C0
000000
000000
00FF00
03FFE0
0FFFC0
1F80C0
3E0000
3C0000
780000
780000
700000
F00000
F00000
F00000
F00000
F00000
E01FE0
E01FE0
F01FE0
F000E0
F000E0
F000E0
F000E0
7800E0
7800E0
3C00E0
3E00E0
1F80E0
0FFFE0
07FFE0
00FF00
ENDCHAR
STARTCHAR 011D
ENCODING 285
SWIDTH 600 0
DWIDTH 24 0
BBX 19 41 2 -10
BITMAP
00F000
01F000
01F800
03FC00
079E00
0E0F00
1C0380
000000
000000
03F0E0
0FFCE0
1FFEE0
3E0FE0
3C03E0
7803E0
7801E0
7001E0
F001E0
F001E0
F000E0
F000E0
F000E0
F001E0
F001E0
7801E0
7801E0
7C03E0
3E07E0
1FFEE0
0FFDE0
03F1E0
0001E0
0001E0
0001E0
0001E0
0003C0
4003C0
780F80
7FFF80
7FFE00
07F800
ENDCHAR
STARTCHAR 011E
ENCODING 286
SWIDTH 600 0
DWIDTH 24 0
BBX 19 37 2 0
BITMAP
060180
060380
070780
03FF00
03FE00
00FC00
000000
000000
00FF00
03FFE0
0FFFC0
1F80C0
3E0000
3C0000
780000
780000
700000
F00000
F00000
F00000
F00000
F00000
E01FE0
E01FE0
F01FE0
F000E0
F000E0
F000E0
F000E0
7800E0
7800E0
3C00E0
3E00E0
1F80E0
0FFFE0
07FFE0
00FF00
ENDCHAR
STARTCHAR 011F
ENCODING 287
SWIDTH 600 0
DWIDTH 24 0
BBX 19 40 2 -10
BITMAP
0C0300
0C0700
0F0F00
07FE00
07FC00
01F800
000000
000000
03F0E0
0FFCE0
1FFEE0
3E0FE0
3C03E0
7803E0
7801E0
7001E0
F001E0
F001E0
F000E0
F000E0
F000E0
F001E0
F001E0
7801E0
7801E0
7C03E0
3E07E0
1FFEE0
0FFDE0
03F1E0
0001E0
0001E0
0001E0
0001E0
0003C0
4003C0
780F80
7FFF80
7FFE00
07F800
ENDCHAR
STARTCHAR 0120
ENCODING 288
SWIDTH 600 0
DWIDTH 24 0
BBX 19 37 2 0
BITMAP
007000
00F800
00F800
00F800
007000
000000
000000
000000
00FF00
03FFE0
0FFFC0
1F80C0
3E0000
3C0000
780000
780000
700000
F00000
F00000
F00000
F00000
F00000
E01FE0
E01FE0
F01FE0
F000E0
F000E0
F000E0
F000E0
7800E0
7800E0
3C00E0
3E00E0
1F80E0
0FFFE0
07FFE0
00FF00
ENDCHAR
STARTCHAR 0121
ENCODING 289
SWIDTH 600 0
DWIDTH 24 0
BBX 19 40 2 -10
BITMAP
00F000
00F000
01F000
00F000
00F000
000000
000000
000000
03F0E0
0FFCE0
1FFEE0
3E0FE0
3C03E0
7803E0
7801E0
7001E0
F001E0
F001E0
F000E0
F000E0
F000E0
F001E0
F001E0
7801E0
7801E0
7C03E0
3E07E0
1FFEE0
0FFDE0
03F1E0
0001E0
0001E0
0001E0
0001E0
0003C0
4003C0
780F80
7FFF80
7FFE00
07F800
ENDCHAR
STARTCHAR 0122
ENCODING 290
SWIDTH 600 0
DWIDTH 24 0
BBX 19 38 2 -9
BITMAP
00FF00
03FFE0
0FFFC0
1F80C0
3E0000
3C0000
780000
780000
700000
F00000
F00000
F00000
F00000
F00000
E01FE0
E01FE0
F01FE0
F000E0
F000E0
F000E0
F000E0
7800E0
7800E0
3C00E0
3E00E0
1F80E0
0FFFE0
07FFE0
00FF00
000000
000000
000000
003800
003800
007000
007000
006000
00C000
ENDCHAR
STARTCHAR 0123
ENCODING 291
SWIDTH 600 0
DWIDTH 24 0
BBX 19 41 2 -10
BITMAP
003800
007000
007000
00E000
00E000
01E000
000000
000000
000000
03F0E0
0FFCE0
1FFEE0
3E0FE0
3C03E0
7803E0
7801E0
7001E0
F001E0
F001E0
F000E0
F000E0
F000E0
F001E0
F001E0
7801E0
7801E0
7C03E0
3E07E0
1FFEE0
0FFDE0
03F1E0
0001E0
0001E0
0001E0
0001E0
0003C0
4003C0
780F80
7FFF80
7FFE00
07F800
ENDCHAR
STARTCHAR 0124
ENCODING 292
SWIDTH 600 0
DWIDTH 24 0
BBX 18 38 3 0
BITMAP
01E000
03E000
03F000
07F800
0F3C00
1C1E00
380700
000000
000000
E001C0
E001C0
E001C0
E001C0
E001C0
E001C0
E001C0
E001C0
E001C0
E001C0
E001C0
E001C0
FFFFC0
FFFFC0
FFFFC0
E001C0
E001C0
E001C0
E001C0
E001C0
E001C0
E001C0
E001C0
E001C0
E001C0
E001C0
E001C0
E001C0
E001C0
ENDCHAR
STARTCHAR 0125
ENCODING 293
SWIDTH 600 0
DWIDTH 24 0
BBX 23 40 -2 0
BITMAP
078000
078000
0FC000
1FE000
3CF000
787800
E01C00
000000
000000
078000
078000
078000
078000
078000
078000
078000
078000
078000
0787E0
079FF0
07BFFC
07F07C
07E03E
07C01E
07C01E
07801E
07801E
07801E
07801E
07801E
07801E
07801E
07801E
07801E
07801E
07801E
07801E
07801E
07801E
07801E
ENDCHAR
STARTCHAR 0126
ENCODING 294
SWIDTH 600 0
DWIDTH 24 0
BBX 24 29 0 0
BITMAP
1C0038
1C0038
1C0038
1C0038
1C0038
FFFFFF
FFFFFF
FFFFFF
1C0038
1C0038
1C0038
1C0038
1FFFF8
1FFFF8
1FFFF8
1C0038
1C0038
1C0038
1C0038
1C0038
1C0038
1C0038
1C0038
1C0038
1C0038
1C0038
1C0038
1C0038
1C0038
ENDCHAR
STARTCHAR 0127
ENCODING 295
SWIDTH 600 0
DWIDTH 24 0
BBX 21 31 0 0
BITMAP
1E0000
1E0000
1E0000
1E0000
FFFC00
FFFC00
FFFC00
1E0000
1E0000
1E1F80
1E7FC0
1EFFF0
1FC1F0
1F80F8
1F0078
1F0078
1E0078
1E0078
1E0078
1E0078
1E0078
1E0078
1E0078
1E0078
1E0078
1E0078
1E0078
1E0078
1E0078
1E0078
1E0078
ENDCHAR
STARTCHAR 0128
ENCODING 296
SWIDTH 600 0
DWIDTH 24 0
BBX 16 36 4 0
BITMAP
1E06
3F8E
7FFE
71FC
6078
0000
0000
FFFF
FFFF
FFFF
03C0
03C0
03C0
03C0
03C0
03C0
03C0
03C0
03C0
03C0
03C0
03C0
03C0
03C0
03C0
03C0
03C0
03C0
03C0
03C0
03C0
03C0
03C0
FFFF
FFFF
FFFF
ENDCHAR
STARTCHAR 0129
ENCODING 297
SWIDTH 600 0
DWIDTH 24 0
BBX 19 29 3 0
BITMAP
0F0300
1FC700
3FFF00
38FE00
303C00
000000
000000
7FE000
7FE000
7FE000
00E000
00E000
00E000
00E000
00E000
00E000
00E000
00E000
00E000
00E000
00E000
00E000
00E000
00E000
00E000
00E000
7FFFC0
FFFFE0
FFFFE0
ENDCHAR
STARTCHAR 012A
ENCODING 298
SWIDTH 600 0
DWIDTH 24 0
BBX 16 35 4 0
BITMAP
3FFC
3FFC
3FFC
0000
0000
0000
FFFF
FFFF
FFFF
03C0
03C0
03C0
03C0
03C0
03C0
03C0
03C0
03C0
03C0
03C0
03C0
03C0
03C0
03C0
03C0
03C0
03C0
03C0
03C0
03C0
03C0
03C0
FFFF
FFFF
FFFF
ENDCHAR
STARTCHAR 012B
ENCODING 299
SWIDTH 600 0
DWIDTH 24 0
BBX 19 28 3 0
BITMAP
1FFE00
1FFE00
1FFE00
000000
000000
000000
7FE000
7FE000
7FE000
00E000
00E000
00E000
00E000
00E000
00E000
00E000
00E000
00E000
00E000
00E000
00E000
00E000
00E000
00E000
00E000
7FFFC0
FFFFE0
FFFFE0
ENDCHAR
STARTCHAR 012C
ENCODING 300
SWIDTH 600 0
DWIDTH 24 0
BBX 16 37 4 0
BITMAP
300C
301C
3C3C
1FF8
1FF0
07E0
0000
0000
FFFF
FFFF
FFFF
03C0
03C0
03C0
03C0
03C0
03C0
03C0
03C0
03C0
03C0
03C0
03C0
03C0
03C0
03C0
03C0
03C0
03C0
03C0
03C0
03C0
03C0
03C0
FFFF
FFFF
FFFF
ENDCHAR
STARTCHAR 012D
ENCODING 301
SWIDTH 600 0
DWIDTH 24 0
BBX 19 30 3 0
BITMAP
180600
180E00
1E1E00
0FFC00
0FF800
03F000
000000
000000
7FE000
7FE000
7FE000
00E000
00E000
00E000
00E000
00E000
00E000
00E000
00E000
00E000
00E000
00E000
00E000
00E000
00E000
00E000
00E000
7FFFC0
FFFFE0
FFFFE0
ENDCHAR
STARTCHAR 012E
ENCODING 302
SWIDTH 600 0
DWIDTH 24 0
BBX 16 38 4 -9
BITMAP
FFFF
FFFF
FFFF
03C0
03C0
03C0
03C0
03C0
03C0
03C0
03C0
03C0
03C0
03C0
03C0
03C0
03C0
03C0
03C0
03C0
03C0
03C0
03C0
03C0
03C0
03C0
FFFF
FFFF
FFFF
0038
0070
0060
00E0
00E0
00E0
00FE
007E
003E
ENDCHAR
STARTCHAR 012F
ENCODING 303
SWIDTH 600 0
DWIDTH 24 0
BBX 19 40 3 -9
BITMAP
00E000
01F000
01F000
01F000
00E000
000000
000000
000000
000000
7FE000
7FE000
7FE000
00E000
00E000
00E000
00E000
00E000
00E000
00E000
00E000
00E000
00E000
00E000
00E000
00E000
00E000
00E000
00E000
7FFFC0
FFFFE0
FFFFE0
000E00
001C00
003800
003800
003800
003800
003F00
003F00
000F00
ENDCHAR
STARTCHAR 0130
ENCODING 304
SWIDTH 600 0
DWIDTH 24 0
BBX 16 37 4 0
BITMAP
03C0
03C0
07C0
03C0
03C0
0000
0000
0000
FFFF
FFFF
FFFF
03C0
03C0
03C0
03C0
03C0
03C0
03C0
03C0
03C0
03C0
03C0
03C0
03C0
03C0
03C0
03C0
03C0
03C0
03C0
03C0
03C0
03C0
03C0
FFFF
FFFF
FFFF
ENDCHAR
STARTCHAR 0131
ENCODING 305
SWIDTH 600 0
DWIDTH 24 0
BBX 19 22 3 0
BITMAP
7FE000
7FE000
7FE000
00E000
00E000
00E000
00E000
00E000
00E000
00E000
00E000
00E000
00E000
00E000
00E000
00E000
00E000
00E000
00E000
7FFFC0
FFFFE0
FFFFE0
ENDCHAR
STARTCHAR 0132
ENCODING 306
SWIDTH 600 0
DWIDTH 24 0
BBX 16 29 4 0
BITMAP
F00F
F00F
F00F
F00F
F00F
F00F
F00F
F00F
F00F
F00F
F00F
F00F
F00F
F00F
F00F
F00F
F00F
F00F
F00F
F00F
F00F
000F
000F
000E
001E
C07E
FFFC
FFF8
3FE0
ENDCHAR
STARTCHAR 0133
ENCODING 307
SWIDTH 600 0
DWIDTH 24 0
BBX 16 41 4 -10
BITMAP
700E
F81F
F81F
F81F
700E
0000
0000
0000
0000
700E
700E
700E
700E
700E
700E
700E
700E
700E
700E
700E
700E
700E
700E
700E
700E
700E
700E
700E
700E
700E
700E
000E
000E
000E
000E
001E
001E
407C
7FFC
7FF8
3FE0
ENDCHAR
STARTCHAR 0134
ENCODING 308
SWIDTH 600 0
DWIDTH 24 0
BBX 20 38 4 0
BITMAP
001E00
003E00
003F00
007780
00E3C0
01C1E0
0380F0
000000
000000
001E00
001E00
001E00
001E00
001E00
001E00
001E00
001E00
001E00
001E00
001E00
001E00
001E00
001E00
001E00
001E00
001E00
001E00
001E00
001E00
001E00
001E00
001C00
003C00
003C00
C0F800
FFF800
FFE000
3F8000
ENDCHAR
STARTCHAR 0135
ENCODING 309
SWIDTH 600 0
DWIDTH 24 0
BBX 18 41 2 -10
BITMAP
003800
007C00
00FE00
00EF00
01C700
038380
0701C0
000000
000000
1FFC00
1FFC00
1FFC00
003C00
003C00
003C00
003C00
003C00
003C00
003C00
003C00
003C00
003C00
003C00
003C00
003C00
003C00
003C00
003C00
003C00
003C00
003C00
003C00
003C00
003C00
003C00
003C00
007800
80F800
FFF000
FFE000
7F8000
ENDCHAR
STARTCHAR 0136
ENCODING 310
SWIDTH 600 0
DWIDTH 24 0
BBX 19 38 3 -9
BITMAP
E003E0
E007C0
E00780
E00F00
E01E00
E03E00
E03C00
E07800
E0F800
E0F000
E1E000
E3C000
E7C000
E78000
EFC000
EFE000
FDE000
F8F000
F0F000
E07800
E03C00
E03C00
E01E00
E01F00
E00F00
E00780
E00780
E003C0
E001E0
000000
000000
000000
00E000
01E000
01C000
01C000
018000
030000
ENDCHAR
STARTCHAR 0137
ENCODING 311
SWIDTH 600 0
DWIDTH 24 0
BBX 19 40 4 -9
BITMAP
F00000
F00000
F00000
F00000
F00000
F00000
F00000
F00000
F00000
F007C0
F00780
F00F00
F01E00
F03C00
F07800
F0F000
F1F000
F3E000
F3C000
F7C000
FFE000
FEF000
F87800
F07800
F03C00
F01E00
F01F00
F00F00
F00780
F003C0
F003E0
000000
000000
000000
00E000
00E000
01C000
01C000
018000
038000
ENDCHAR
STARTCHAR 0138
ENCODING 312
SWIDTH 600 0
DWIDTH 24 0
BBX 19 22 4 0
BITMAP
F007C0
F00780
F00F00
F01E00
F03C00
F07800
F0F000
F1F000
F3E000
F3C000
F7C000
FFE000
FEF000
F87800
F07800
F03C00
F01E00
F01F00
F00F00
F00780
F003C0
F003E0
ENDCHAR
STARTCHAR 0139
ENCODING 313
SWIDTH 600 0
DWIDTH 24 0
BBX 16 38 5 0
BITMAP
0F00
1E00
3E00
3C00
7800
7000
E000
0000
0000
E000
E000
E000
E000
E000
E000
E000
E000
E000
E000
E000
E000
E000
E000
E000
E000
E000
E000
E000
E000
E000
E000
E000
E000
E000
E000
FFFF
FFFF
FFFF
ENDCHAR
STARTCHAR 013A
ENCODING 314
SWIDTH 600 0
DWIDTH 24 0
BBX 19 40 3 0
BITMAP
001E00
001E00
003C00
007800
007000
00E000
01C000
000000
000000
FFF000
FFF000
FFF000
00F000
00F000
00F000
00F000
00F000
00F000
00F000
00F000
00F000
00F000
00F000
00F000
00F000
00F000
00F000
00F000
00F000
00F000
00F000
00F000
00F000
00F000
00F000
00F000
00F000
7FFFC0
FFFFE0
FFFFE0
ENDCHAR
STARTCHAR 013B
ENCODING 315
SWIDTH 600 0
DWIDTH 24 0
BBX 16 38 5 -9
BITMAP
E000
E000
E000
E000
E000
E000
E000
E000
E000
E000
E000
E000
E000
E000
E000
E000
E000
E000
E000
E000
E000
E000
E000
E000
E000
E000
FFFF
FFFF
FFFF
0000
0000
0000
03C0
03C0
0380
0380
0700
0600
ENDCHAR
STARTCHAR 013C
ENCODING 316
SWIDTH 600 0
DWIDTH 24 0
BBX 19 40 3 -9
BITMAP
FFF000
FFF000
FFF000
00F000
00F000
00F000
00F000
00F000
00F000
00F000
00F000
00F000
00F000
00F000
00F000
00F000
00F000
00F000
00F000
00F000
00F000
00F000
00F000
00F000
00F000
00F000
00F000
00F000
7FFFC0
FFFFE0
FFFFE0
000000
000000
000000
00F000
00E000
00E000
01C000
01C000
018000
ENDCHAR
STARTCHAR 013D
ENCODING 317
SWIDTH 600 0
DWIDTH 24 0
BBX 16 29 5 0
BITMAP
E00E
E01E
E01C
E01C
E018
E038
E000
E000
E000
E000
E000
E000
E000
E000
E000
E000
E000
E000
E000
E000
E000
E000
E000
E000
E000
E000
FFFF
FFFF
FFFF
ENDCHAR
STARTCHAR 013E
ENCODING 318
SWIDTH 600 0
DWIDTH 24 0
BBX 20 31 3 0
BITMAP
FFF0F0
FFF0E0
FFF0E0
00F1C0
00F1C0
00F180
00F000
00F000
00F000
00F000
00F000
00F000
00F000
00F000
00F000
00F000
00F000
00F000
00F000
00F000
00F000
00F000
00F000
00F000
00F000
00F000
00F000
00F000
FFFFE0
FFFFE0
FFFFE0
ENDCHAR
STARTCHAR 013F
ENCODING 319
SWIDTH 600 0
DWIDTH 24 0
BBX 16 29 5 0
BITMAP
E000
E000
E000
E000
E000
E000
E000
E000
E000
E000
E000
E000
E01E
E01E
E01F
E01E
E00E
E000
E000
E000
E000
E000
E000
E000
E000
E000
FFFF
FFFF
FFFF
ENDCHAR
STARTCHAR 0140
ENCODING 320
SWIDTH 600 0
DWIDTH 24 0
BBX 23 31 3 0
BITMAP
FFF000
FFF000
FFF000
00F000
00F000
00F000
00F000
00F000
00F000
00F000
00F000
00F000
00F01E
00F01E
00F01E
00F01E
00F01E
00F000
00F000
00F000
00F000
00F000
00F000
00F000
00F000
00F000
00F000
00F000
7FFFC0
FFFFE0
FFFFE0
ENDCHAR
STARTCHAR 0141
ENCODING 321
SWIDTH 600 0
DWIDTH 24 0
BBX 20 29 2 0
BITMAP
0F0000
0F0000
0F0000
0F0000
0F0000
0F0000
0F0000
0F0000
0F0000
0F0000
0F0000
0F1800
0F3C00
0FFC00
0FF000
0FC000
1F8000
7F0000
FF0000
7F0000
4F0000
0F0000
0F0000
0F0000
0F0000
0F0000
0FFFF0
0FFFF0
0FFFF0
ENDCHAR
STARTCHAR 0142
ENCODING 322
SWIDTH 600 0
DWIDTH 24 0
BBX 19 31 3 0
BITMAP
FFF000
FFF000
FFF000
00F000
00F000
00F000
00F000
00F000
00F000
00F000
00F000
00F100
00F700
00FF80
00FE00
00FC00
01F000
07F000
0FF000
1EF000
0CF000
00F000
00F000
00F000
00F000
00F000
00F000
00F000
7FFFC0
FFFFE0
FFFFE0
ENDCHAR
STARTCHAR 0143
ENCODING 323
SWIDTH 600 0
DWIDTH 24 0
BBX 18 38 3 0
BITMAP
001F00
001E00
003C00
003C00
007800
00F000
00E000
000000
000000
F801C0
F801C0
FC01C0
FC01C0
FC01C0
EE01C0
EE01C0
EF01C0
E701C0
E781C0
E381C0
E3C1C0
E1C1C0
E1C1C0
E0E1C0
E0E1C0
E0F1C0
E071C0
E079C0
E039C0
E039C0
E01DC0
E01DC0
E01FC0
E00FC0
E00FC0
E007C0
E007C0
E003C0
ENDCHAR
STARTCHAR 0144
ENCODING 324
SWIDTH 600 0
DWIDTH 24 0
BBX 18 31 3 0
BITMAP
000F00
001F00
001E00
003C00
007800
007000
00E000
000000
000000
E1FC00
E7FF00
EFFF80
FE0F80
FC03C0
F803C0
F003C0
F003C0
F003C0
F003C0
F003C0
F003C0
F003C0
F003C0
F003C0
F003C0
F003C0
F003C0
F003C0
F003C0
F003C0
F003C0
ENDCHAR
STARTCHAR 0145
ENCODING 325
SWIDTH 600 0
DWIDTH 24 0
BBX 18 38 3 -9
BITMAP
F801C0
F801C0
FC01C0
FC01C0
FC01C0
EE01C0
EE01C0
EF01C0
E701C0
E781C0
E381C0
E3C1C0
E1C1C0
E1C1C0
E0E1C0
E0E1C0
E0F1C0
E071C0
E079C0
E039C0
E039C0
E01DC0
E01DC0
E01FC0
E00FC0
E00FC0
E007C0
E007C0
E003C0
000000
000000
000000
01E000
01C000
01C000
038000
038000
030000
ENDCHAR
STARTCHAR 0146
ENCODING 326
SWIDTH 600 0
DWIDTH 24 0
BBX 18 31 3 -9
BITMAP
E1FC00
E7FF00
EFFF80
FE0F80
FC03C0
F803C0
F003C0
F003C0
F003C0
F003C0
F003C0
F003C0
F003C0
F003C0
F003C0
F003C0
F003C0
F003C0
F003C0
F003C0
F003C0
F003C0
000000
000000
000000
01E000
01E000
01C000
01C000
038000
030000
ENDCHAR
STARTCHAR 0147
ENCODING 327
SWIDTH 600 0
DWIDTH 24 0
BBX 18 38 3 0
BITMAP
380700
1C0F00
0E1E00
073C00
03F800
03F000
01E000
000000
000000
F801C0
F801C0
FC01C0
FC01C0
FC01C0
EE01C0
EE01C0
EF01C0
E701C0
E781C0
E381C0
E3C1C0
E1C1C0
E1C1C0
E0E1C0
E0E1C0
E0F1C0
E071C0
E079C0
E039C0
E039C0
E01DC0
E01DC0
E01FC0
E00FC0
E00FC0
E007C0
E007C0
E003C0
ENDCHAR
STARTCHAR 0148
ENCODING 328
SWIDTH 600 0
DWIDTH 24 0
BBX 18 31 3 0
BITMAP
180300
1C0F00
0F1E00
07BC00
03F800
01F000
01F000
000000
000000
E1FC00
E7FF00
EFFF80
FE0F80
FC03C0
F803C0
F003C0
F003C0
F003C0
F003C0
F003C0
F003C0
F003C0
F003C0
F003C0
F003C0
F003C0
F003C0
F003C0
F003C0
F003C0
F003C0
ENDCHAR
STARTCHAR 0149
ENCODING 329
SWIDTH 600 0
DWIDTH 24 0
BBX 23 29 -2 0
BITMAP
3C0000
3C0000
3C0000
780000
780000
780000
700000
7387E0
F39FF8
E3BFFC
03F87C
03E03E
03C01E
03C01E
03C01E
03C01E
03801E
03801E
03801E
03801E
03801E
03801E
03801E
03801E
03801E
03801E
03801E
03801E
03801E
ENDCHAR
STARTCHAR 014A
ENCODING 330
SWIDTH 600 0
DWIDTH 24 0
BBX 18 37 3 -8
BITMAP
F801C0
F801C0
FC01C0
FC01C0
FC01C0
EE01C0
EE01C0
EF01C0
E701C0
E781C0
E381C0
E3C1C0
E1C1C0
E1C1C0
E0E1C0
E0E1C0
E0F1C0
E071C0
E079C0
E039C0
E039C0
E01DC0
E01DC0
E01FC0
E00FC0
E00FC0
E007C0
E007C0
E003C0
0001C0
0001C0
0003C0
0003C0
000780
00FF80
00FF00
00FC00
ENDCHAR
STARTCHAR 014B
ENCODING 331
SWIDTH 600 0
DWIDTH 24 0
BBX 18 32 3 -10
BITMAP
E1FC00
E7FF00
EFFF80
FE0F80
FC07C0
F803C0
F003C0
F003C0
F003C0
F003C0
F003C0
F003C0
F003C0
F003C0
F003C0
F003C0
F003C0
F003C0
F003C0
F003C0
F003C0
F003C0
0003C0
0003C0
0003C0
0003C0
0003C0
0003C0
0007C0
007F80
007F00
007E00
ENDCHAR
STARTCHAR 014C
ENCODING 332
SWIDTH 600 0
DWIDTH 24 0
BBX 20 35 2 0
BITMAP
0FFF00
0FFF00
0FFF00
000000
000000
000000
01F800
07FE00
1FFF80
1E0780
3C03C0
7801E0
7801E0
7000E0
F000F0
F000F0
F000F0
F000F0
F000F0
E000F0
E00070
E000F0
F000F0
F000F0
F000F0
F000F0
F000F0
7000E0
7801E0
7801E0
3C03C0
1E0780
1FFF80
07FE00
01F800
ENDCHAR
STARTCHAR 014D
ENCODING 333
SWIDTH 600 0
DWIDTH 24 0
BBX 20 28 2 0
BITMAP
0FFF00
0FFF00
0FFF00
000000
000000
000000
01F800
0FFE00
1FFF80
3E07C0
3C03C0
7801E0
7801E0
7000E0
F000F0
F000F0
F000F0
F000F0
F000F0
F000F0
7000E0
7801E0
7801E0
3C03C0
3E07C0
1FFF80
0FFF00
01F800
ENDCHAR
STARTCHAR 014E
ENCODING 334
SWIDTH 600 0
DWIDTH 24 0
BBX 20 37 2 0
BITMAP
0C0300
0C0700
0F0F00
07FE00
07FC00
01F800
000000
000000
01F800
07FE00
1FFF80
1E0780
3C03C0
7801E0
7801E0
7000E0
F000F0
F000F0
F000F0
F000F0
F000F0
E000F0
E00070
E000F0
F000F0
F000F0
F000F0
F000F0
F000F0
7000E0
7801E0
7801E0
3C03C0
1E0780
1FFF80
07FE00
01F800
ENDCHAR
STARTCHAR 014F
ENCODING 335
SWIDTH 600 0
DWIDTH 24 0
BBX 20 30 2 0
BITMAP
0C0300
0C0700
0F0F00
07FE00
07FC00
01F800
000000
000000
01F800
0FFE00
1FFF80
3E07C0
3C03C0
7801E0
7801E0
7000E0
F000F0
F000F0
F000F0
F000F0
F000F0
F000F0
7000E0
7801E0
7801E0
3C03C0
3E07C0
1FFF80
0FFF00
01F800
ENDCHAR
STARTCHAR 0150
ENCODING 336
SWIDTH 600 0
DWIDTH 24 0
BBX 20 37 2 0
BITMAP
01E3C0
03C780
038700
070E00
0E1C00
0C1800
000000
000000
01F800
07FE00
1FFF80
1E0780
3C03C0
7801E0
7801E0
7000E0
F000F0
F000F0
F000F0
F000F0
F000F0
E000F0
E00070
E000F0
F000F0
F000F0
F000F0
F000F0
F000F0
7000E0
7801E0
7801E0
3C03C0
1E0780
1FFF80
07FE00
01F800
ENDCHAR
STARTCHAR 0151
ENCODING 337
SWIDTH 600 0
DWIDTH 24 0
BBX 20 30 2 0
BITMAP
01E3C0
03C780
038700
070E00
0E1C00
0C1800
000000
000000
01F800
0FFE00
1FFF80
3E07C0
3C03C0
7801E0
7801E0
7000E0
F000F0
F000F0
F000F0
F000F0
F000F0
F000F0
7000E0
7801E0
7801E0
3C03C0
3E07C0
1FFF80
0FFF00
01F800
ENDCHAR
STARTCHAR 0152
ENCODING 338
SWIDTH 600 0
DWIDTH 24 0
BBX 21 29 2 0
BITMAP
07FFF8
0FFFF8
1FFFF8
3C3C00
783C00
783C00
703C00
F03C00
F03C00
F03C00
E03C00
E03C00
E03FF0
E03FF0
E03FF0
E03C00
E03C00
E03C00
E03C00
F03C00
F03C00
F03C00
703C00
783C00
783C00
3C3C00
3FFFF8
1FFFF8
07FFF8
ENDCHAR
STARTCHAR 0153
ENCODING 339
SWIDTH 600 0
DWIDTH 24 0
BBX 22 22 1 0
BITMAP
0F83E0
1FC7F0
3FEFF8
78EE38
707C3C
F07C1C
E03C1C
E0381C
E0381C
E03FFC
E03FFC
E03FFC
E03800
E03800
E03800
F03C00
707C00
707C00
78EE08
3FEFF8
1FC7F8
0F81F0
ENDCHAR
STARTCHAR 0154
ENCODING 340
SWIDTH 600 0
DWIDTH 24 0
BBX 19 38 4 0
BITMAP
003C00
003C00
007800
00F000
00E000
01C000
038000
000000
000000
FFE000
FFF800
FFFE00
E03E00
E00F00
E00F00
E00700
E00700
E00780
E00700
E00700
E00F00
E01F00
E03E00
FFFC00
FFF000
FFE000
E0F000
E07800
E07800
E03C00
E03C00
E01E00
E00F00
E00F00
E00780
E00780
E003C0
E003E0
ENDCHAR
STARTCHAR 0155
ENCODING 341
SWIDTH 600 0
DWIDTH 24 0
BBX 21 31 2 0
BITMAP
0003C0
0007C0
000780
000F00
001E00
001C00
003800
000000
000000
7FC3F8
7FC7F8
7FCFF0
01DC10
01F800
01F000
01F000
01E000
01E000
01E000
01E000
01E000
01E000
01E000
01E000
01E000
01E000
01E000
01E000
7FFF00
FFFF80
FFFF80
ENDCHAR
STARTCHAR 0156
ENCODING 342
SWIDTH 600 0
DWIDTH 24 0
BBX 19 38 4 -9
BITMAP
FFE000
FFF800
FFFE00
E03E00
E00F00
E00F00
E00700
E00700
E00780
E00700
E00700
E00F00
E01F00
E03E00
FFFC00
FFF000
FFE000
E0F000
E07800
E07800
E03C00
E03C00
E01E00
E00F00
E00F00
E00780
E00780
E003C0
E003E0
000000
000000
000000
01E000
01E000
01C000
01C000
038000
030000
ENDCHAR
STARTCHAR 0157
ENCODING 343
SWIDTH 600 0
DWIDTH 24 0
BBX 21 31 2 -9
BITMAP
7FC3F8
7FC7F8
7FCFF0
01DC10
01F800
01F000
01F000
01E000
01E000
01E000
01E000
01E000
01E000
01E000
01E000
01E000
01E000
01E000
01E000
7FFF00
FFFF80
FFFF80
000000
000000
000000
01E000
01C000
01C000
038000
038000
030000
ENDCHAR
STARTCHAR 0158
ENCODING 344
SWIDTH 600 0
DWIDTH 24 0
BBX 19 38 4 0
BITMAP
700E00
381C00
1C3800
1E7000
0FF000
07E000
03C000
000000
000000
FFE000
FFF800
FFFE00
E03E00
E00F00
E00F00
E00700
E00700
E00780
E00700
E00700
E00F00
E01F00
E03E00
FFFC00
FFF000
FFE000
E0F000
E07800
E07800
E03C00
E03C00
E01E00
E00F00
E00F00
E00780
E00780
E003C0
E003E0
ENDCHAR
STARTCHAR 0159
ENCODING 345
SWIDTH 600 0
DWIDTH 24 0
BBX 21 31 2 0
BITMAP
0600C0
0781C0
03C780
01EF00
00FE00
007C00
007C00
000000
000000
7FC3F8
7FC7F8
7FCFF0
01DC10
01F800
01F000
01F000
01E000
01E000
01E000
01E000
01E000
01E000
01E000
01E000
01E000
01E000
01E000
01E000
7FFF00
FFFF80
FFFF80
ENDCHAR
STARTCHAR 015A
ENCODING 346
SWIDTH 600 0
DWIDTH 24 0
BBX 18 38 3 0
BITMAP
000F00
001F00
001E00
003C00
003800
007000
00E000
000000
000000
03FE00
0FFFC0
1FFF80
3E0380
3C0080
780000
780000
780000
780000
780000
3C0000
3F0000
1FC000
0FF000
03FC00
00FF00
003F80
000F80
0007C0
0003C0
0003C0
0003C0
0003C0
0003C0
800780
F00F80
FFFF00
FFFE00
1FF800
ENDCHAR
STARTCHAR 015B
ENCODING 347
SWIDTH 600 0
DWIDTH 24 0
BBX 16 31 4 0
BITMAP
003E
003C
0078
0078
00F0
01E0
01C0
0000
0000
07F8
1FFE
3FFE
780E
7000
7000
7000
7800
7E00
3F80
0FE0
03F8
00FE
003E
000F
000F
000F
800F
E01E
FFFE
FFFC
1FE0
ENDCHAR
STARTCHAR 015C
ENCODING 348
SWIDTH 600 0
DWIDTH 24 0
BBX 18 38 3 0
BITMAP
00F000
01F000
01F800
03BC00
071E00
0E0F00
1C0780
000000
000000
03FE00
0FFFC0
1FFF80
3E0380
3C0080
780000
780000
780000
780000
780000
3C0000
3F0000
1FC000
0FF000
03FC00
00FF00
003F80
000F80
0007C0
0003C0
0003C0
0003C0
0003C0
0003C0
800780
F00F80
FFFF00
FFFE00
1FF800
ENDCHAR
STARTCHAR 015D
ENCODING 349
SWIDTH 600 0
DWIDTH 24 0
BBX 16 31 4 0
BITMAP
03C0
03E0
07E0
0F70
1E38
3C1C
780E
0000
0000
07F8
1FFE
3FFE
780E
7000
7000
7000
7800
7E00
3F80
0FE0
03F8
00FE
003E
000F
000F
000F
800F
E01E
FFFE
FFFC
1FE0
ENDCHAR
STARTCHAR 015E
ENCODING 350
SWIDTH 600 0
DWIDTH 24 0
BBX 18 39 3 -10
BITMAP
03FE00
0FFFC0
1FFF80
3E0380
3C0080
780000
780000
780000
780000
780000
3C0000
3F0000
1FC000
0FF000
03FC00
00FF00
003F80
000F80
0007C0
0003C0
0003C0
0003C0
0003C0
0003C0
800780
F00F80
FFFF00
FFFE00
1FF800
00C000
01C000
01C000
03F000
007000
003800
003800
007000
07F000
07C000
ENDCHAR
STARTCHAR 015F
ENCODING 351
SWIDTH 600 0
DWIDTH 24 0
BBX 16 32 4 -10
BITMAP
07F8
1FFE
3FFE
780E
7000
7000
7000
7800
7E00
3F80
0FE0
03F8
00FE
003E
000F
000F
000F
800F
E01E
FFFE
FFFC
1FE0
0180
0380
0380
07E0
00F0
0070
0070
00F0
0FE0
0F80
ENDCHAR
STARTCHAR 0160
ENCODING 352
SWIDTH 600 0
DWIDTH 24 0
BBX 18 38 3 0
BITMAP
180380
1E0700
0F0E00
07BC00
03F800
01F800
00F000
000000
000000
03FE00
0FFFC0
1FFF80
3E0380
3C0080
780000
780000
780000
780000
780000
3C0000
3F0000
1FC000
0FF000
03FC00
00FF00
003F80
000F80
0007C0
0003C0
0003C0
0003C0
0003C0
0003C0
800780
F00F80
FFFF00
FFFE00
1FF800
ENDCHAR
STARTCHAR 0161
ENCODING 353
SWIDTH 600 0
DWIDTH 24 0
BBX 16 31 4 0
BITMAP
700E
381E
1C3C
0E78
07F0
07E0
03C0
0000
0000
07F8
1FFE
3FFE
780E
7000
7000
7000
7800
7E00
3F80
0FE0
03F8
00FE
003E
000F
000F
000F
800F
E01E
FFFE
FFFC
1FE0
ENDCHAR
STARTCHAR 0162
ENCODING 354
SWIDTH 600 0
DWIDTH 24 0
BBX 20 39 2 -10
BITMAP
FFFFF0
FFFFF0
FFFFF0
00F000
00F000
00F000
00F000
00F000
00F000
00F000
00F000
00F000
00F000
00F000
00F000
00F000
00F000
00F000
00F000
00F000
00F000
00F000
00F000
00F000
00F000
00F000
00F000
00F000
00F000
006000
00E000
00E000
01F800
003800
001C00
001C00
003800
03F800
03E000
ENDCHAR
STARTCHAR 0163
ENCODING 355
SWIDTH 600 0
DWIDTH 24 0
BBX 19 38 2 -10
BITMAP
01C000
01C000
01C000
03C000
03C000
03C000
FFFFC0
FFFFC0
FFFFC0
03C000
03C000
03C000
03C000
03C000
03C000
03C000
03C000
03C000
03C000
03C000
03C000
03C000
03C000
03C000
01F020
01FFE0
00FFE0
003FC0
000C00
001C00
001C00
003F00
000700
000380
000380
000700
007F00
007C00
ENDCHAR
STARTCHAR 0164
ENCODING 356
SWIDTH 600 0
DWIDTH 24 0
BBX 20 38 2 0
BITMAP
1C0380
0E0700
070E00
079C00
03FC00
01F800
00F000
000000
000000
FFFFF0
FFFFF0
FFFFF0
00F000
00F000
00F000
00F000
00F000
00F000
00F000
00F000
00F000
00F000
00F000
00F000
00F000
00F000
00F000
00F000
00F000
00F000
00F000
00F000
00F000
00F000
00F000
00F000
00F000
00F000
ENDCHAR
STARTCHAR 0165
ENCODING 357
SWIDTH 600 0
DWIDTH 24 0
BBX 19 31 2 0
BITMAP
0001C0
0001C0
0001C0
01C380
01C380
01C300
03C000
03C000
03C000
FFFFC0
FFFFC0
FFFFC0
03C000
03C000
03C000
03C000
03C000
03C000
03C000
03C000
03C000
03C000
03C000
03C000
03C000
03C000
03C000
01F020
01FFE0
00FFE0
003FC0
ENDCHAR
STARTCHAR 0166
ENCODING 358
SWIDTH 600 0
DWIDTH 24 0
BBX 20 29 2 0
BITMAP
FFFFF0
FFFFF0
FFFFF0
00F000
00F000
00F000
00F000
00F000
00F000
00F000
00F000
00F000
00F000
3FFFC0
3FFFC0
3FFFC0
00F000
00F000
00F000
00F000
00F000
00F000
00F000
00F000
00F000
00F000
00F000
00F000
00F000
ENDCHAR
STARTCHAR 0167
ENCODING 359
SWIDTH 600 0
DWIDTH 24 0
BBX 19 28 2 0
BITMAP
01C000
01C000
01C000
03C000
03C000
03C000
FFFFC0
FFFFC0
FFFFC0
03C000
03C000
03C000
03C000
03C000
FFFFE0
FFFFE0
FFFFE0
03C000
03C000
03C000
03C000
03C000
03C000
03C000
01E020
01FFE0
00FFE0
003FC0
ENDCHAR
STARTCHAR 0168
ENCODING 360
SWIDTH 600 0
DWIDTH 24 0
BBX 18 36 3 0
BITMAP
0F0300
1FC700
3FFF00
38FE00
303C00
000000
000000
E001C0
E001C0
E001C0
E001C0
E001C0
E001C0
E001C0
E001C0
E001C0
E001C0
E001C0
E001C0
E001C0
E001C0
E001C0
E001C0
E001C0
E001C0
E001C0
E001C0
F003C0
F003C0
F003C0
F00380
780780
7C0F00
3FFF00
1FFE00
07F000
ENDCHAR
STARTCHAR 0169
ENCODING 361
SWIDTH 600 0
DWIDTH 24 0
BBX 18 29 3 0
BITMAP
0F0300
1FC700
3FFF00
38FE00
303C00
000000
000000
F003C0
F003C0
F003C0
F003C0
F003C0
F003C0
F003C0
F003C0
F003C0
F003C0
F003C0
F003C0
F003C0
F003C0
F003C0
F003C0
F007C0
F007C0
7C1FC0
7FFDC0
3FF9C0
0FE1C0
ENDCHAR
STARTCHAR 016A
ENCODING 362
SWIDTH 600 0
DWIDTH 24 0
BBX 18 35 3 0
BITMAP
1FFE00
1FFE00
1FFE00
000000
000000
000000
E001C0
E001C0
E001C0
E001C0
E001C0
E001C0
E001C0
E001C0
E001C0
E001C0
E001C0
E001C0
E001C0
E001C0
E001C0
E001C0
E001C0
E001C0
E001C0
E001C0
F003C0
F003C0
F003C0
F00380
780780
7C0F00
3FFF00
1FFE00
07F000
ENDCHAR
STARTCHAR 016B
ENCODING 363
SWIDTH 600 0
DWIDTH 24 0
BBX 18 28 3 0
BITMAP
1FFE00
1FFE00
1FFE00
000000
000000
000000
F003C0
F003C0
F003C0
F003C0
F003C0
F003C0
F003C0
F003C0
F003C0
F003C0
F003C0
F003C0
F003C0
F003C0
F003C0
F003C0
F007C0
F007C0
7C1FC0
7FFDC0
3FF9C0
0FE1C0
ENDCHAR
STARTCHAR 016C
ENCODING 364
SWIDTH 600 0
DWIDTH 24 0
BBX 18 37 3 0
BITMAP
180600
180E00
1E1E00
0FFC00
0FF800
03F000
000000
000000
E001C0
E001C0
E001C0
E001C0
E001C0
E001C0
E001C0
E001C0
E001C0
E001C0
E001C0
E001C0
E001C0
E001C0
E001C0
E001C0
E001C0
E001C0
E001C0
E001C0
F003C0
F003C0
F003C0
F00380
780780
7C0F00
3FFF00
1FFE00
07F000
ENDCHAR
STARTCHAR 016D
ENCODING 365
SWIDTH 600 0
DWIDTH 24 0
BBX 18 30 3 0
BITMAP
180600
180E00
1E1E00
0FFC00
0FF800
03F000
000000
000000
F003C0
F003C0
F003C0
F003C0
F003C0
F003C0
F003C0
F003C0
F003C0
F003C0
F003C0
F003C0
F003C0
F003C0
F003C0
F003C0
F007C0
F007C0
7C1FC0
7FFDC0
3FF9C0
0FE1C0
ENDCHAR
STARTCHAR 016E
ENCODING 366
SWIDTH 600 0
DWIDTH 24 0
BBX 18 39 3 0
BITMAP
03E000
07F800
063800
061800
061800
073800
07F800
01E000
000000
000000
E001C0
E001C0
E001C0
E001C0
E001C0
E001C0
E001C0
E001C0
E001C0
E001C0
E001C0
E001C0
E001C0
E001C0
E001C0
E001C0
E001C0
E001C0
E001C0
E001C0
F003C0
F003C0
F003C0
F00380
780780
7C0F00
3FFF00
1FFE00
07F000
ENDCHAR
STARTCHAR 016F
ENCODING 367
SWIDTH 600 0
DWIDTH 24 0
BBX 18 32 3 0
BITMAP
03E000
07F800
063800
061800
061800
073800
07F800
01E000
000000
000000
F003C0
F003C0
F003C0
F003C0
F003C0
F003C0
F003C0
F003C0
F003C0
F003C0
F003C0
F003C0
F003C0
F003C0
F003C0
F003C0
F007C0
F007C0
7C1FC0
7FFDC0
3FF9C0
0FE1C0
ENDCHAR
STARTCHAR 0170
ENCODING 368
SWIDTH 600 0
DWIDTH 24 0
BBX 18 37 3 0
BITMAP
03C780
078F00
070E00
0E1C00
1C3800
183000
000000
000000
E001C0
E001C0
E001C0
E001C0
E001C0
E001C0
E001C0
E001C0
E001C0
E001C0
E001C0
E001C0
E001C0
E001C0
E001C0
E001C0
E001C0
E001C0
E001C0
E001C0
F003C0
F003C0
F003C0
F00380
780780
7C0F00
3FFF00
1FFE00
07F000
ENDCHAR
STARTCHAR 0171
ENCODING 369
SWIDTH 600 0
DWIDTH 24 0
BBX 18 30 3 0
BITMAP
03C780
078F00
070E00
0E1C00
1C3800
183000
000000
000000
F003C0
F003C0
F003C0
F003C0
F003C0
F003C0
F003C0
F003C0
F003C0
F003C0
F003C0
F003C0
F003C0
F003C0
F003C0
F003C0
F007C0
F007C0
7C1FC0
7FFDC0
3FF9C0
0FE1C0
ENDCHAR
STARTCHAR 0172
ENCODING 370
SWIDTH 600 0
DWIDTH 24 0
BBX 18 38 3 -9
BITMAP
E001C0
E001C0
E001C0
E001C0
E001C0
E001C0
E001C0
E001C0
E001C0
E001C0
E001C0
E001C0
E001C0
E001C0
E001C0
E001C0
E001C0
E001C0
E001C0
E001C0
F003C0
F003C0
F003C0
F00380
780780
7C0F80
3FFF00
1FFC00
07F800
00E000
00C000
01C000
038000
038000
03C000
01F800
01F800
00F800
ENDCHAR
STARTCHAR 0173
ENCODING 371
SWIDTH 600 0
DWIDTH 24 0
BBX 19 31 3 -9
BITMAP
F003C0
F003C0
F003C0
F003C0
F003C0
F003C0
F003C0
F003C0
F003C0
F003C0
F003C0
F003C0
F003C0
F003C0
F003C0
F003C0
F007C0
F007C0
7C1FC0
7FFDC0
3FF9C0
0FE1C0
000380
000700
000600
000E00
000E00
000E00
000FE0
0007E0
0003E0
ENDCHAR
STARTCHAR 0174
ENCODING 372
SWIDTH 600 0
DWIDTH 24 0
BBX 22 38 1 0
BITMAP
007800
00F800
00FC00
01FE00
03CF00
070780
0E01C0
000000
000000
E0001C
E0001C
F0003C
F0003C
F0003C
700038
700038
707838
707838
707838
70FC38
70FC38
70FC38
78EC38
38CE78
39CE70
39CE70
39C670
398670
398770
3B8770
3B8770
3B8370
1B03F0
1B03F0
1F03E0
1F01E0
1E01E0
1E01E0
ENDCHAR
STARTCHAR 0175
ENCODING 373
SWIDTH 600 0
DWIDTH 24 0
BBX 22 31 1 0
BITMAP
007800
007800
00FC00
01FE00
03CF00
078780
0E01C0
000000
000000
E0001C
E0001C
E0001C
F0001C
F0783C
F0783C
70FC38
70FC38
70FC38
71FC38
79CE78
79CE78
39CE70
3B8E70
3B8770
3B8770
3B8770
3B0770
1F0360
1F03E0
1F03E0
1E03E0
ENDCHAR
STARTCHAR 0176
ENCODING 374
SWIDTH 600 0
DWIDTH 24 0
BBX 22 38 1 0
BITMAP
007800
00F800
00FC00
01FE00
03CF00
070780
0E01C0
000000
000000
F8003C
780078
380070
3C00F0
1C00E0
1E01E0
0E01C0
0F03C0
070380
078780
038700
03C700
01CE00
01CE00
00FC00
00FC00
007800
007800
007800
007800
007800
007800
007800
007800
007800
007800
007800
007800
007800
ENDCHAR
STARTCHAR 0177
ENCODING 375
SWIDTH 600 0
DWIDTH 24 0
BBX 20 41 2 -10
BITMAP
00F000
01F000
01F800
03FC00
079E00
0E0F00
1C0380
000000
000000
F000F0
F000F0
7000E0
7801E0
3801E0
3C01C0
3C03C0
1C0380
1E0380
0E0780
0E0700
0F0700
070F00
078E00
038E00
039E00
01DC00
01DC00
01D800
00F800
00F800
007000
007000
00F000
00E000
01E000
01E000
03C000
07C000
7F8000
7F0000
7C0000
ENDCHAR
STARTCHAR 0178
ENCODING 376
SWIDTH 600 0
DWIDTH 24 0
BBX 22 37 1 0
BITMAP
070380
0F07C0
0F87C0
0F03C0
070380
000000
000000
000000
F8003C
780078
380070
3C00F0
1C00E0
1E01E0
0E01C0
0F03C0
070380
078780
038700
03C700
01CE00
01CE00
00FC00
00FC00
007800
007800
007800
007800
007800
007800
007800
007800
007800
007800
007800
007800
007800
ENDCHAR
STARTCHAR 0179
ENCODING 377
SWIDTH 600 0
DWIDTH 24 0
BBX 16 38 4 0
BITMAP
001E
003E
003C
0078
00F0
00E0
01C0
0000
0000
7FFF
7FFF
7FFF
000F
000E
001E
001C
003C
0078
0078
00F0
00F0
01E0
01C0
03C0
0380
0780
0700
0F00
0E00
1E00
3C00
3C00
7800
7800
F000
FFFF
FFFF
FFFF
ENDCHAR
STARTCHAR 017A
ENCODING 378
SWIDTH 600 0
DWIDTH 24 0
BBX 16 31 4 0
BITMAP
001E
003C
007C
0078
00F0
01E0
01C0
0000
0000
FFFF
FFFF
FFFF
000F
001E
003C
003C
0078
00F0
01E0
03C0
03C0
0780
0F00
1E00
1E00
3C00
7800
F000
FFFF
FFFF
FFFF
ENDCHAR
STARTCHAR 017B
ENCODING 379
SWIDTH 600 0
DWIDTH 24 0
BBX 16 37 4 0
BITMAP
01C0
03E0
03E0
03E0
01C0
0000
0000
0000
7FFF
7FFF
7FFF
000F
000E
001E
001C
003C
0078
0078
00F0
00F0
01E0
01C0
03C0
0380
0780
0700
0F00
0E00
1E00
3C00
3C00
7800
7800
F000
FFFF
FFFF
FFFF
ENDCHAR
STARTCHAR 017C
ENCODING 380
SWIDTH 600 0
DWIDTH 24 0
BBX 16 30 4 0
BITMAP
01C0
03E0
03E0
03E0
01C0
0000
0000
0000
FFFF
FFFF
FFFF
000F
001E
003C
003C
0078
00F0
01E0
03C0
03C0
0780
0F00
1E00
1E00
3C00
7800
F000
FFFF
FFFF
FFFF
ENDCHAR
STARTCHAR 017D
ENCODING 381
SWIDTH 600 0
DWIDTH 24 0
BBX 16 38 4 0
BITMAP
3006
381E
1E3C
0F78
07F0
03E0
03E0
0000
0000
7FFF
7FFF
7FFF
000F
000E
001E
001C
003C
0078
0078
00F0
00F0
01E0
01C0
03C0
0380
0780
0700
0F00
0E00
1E00
3C00
3C00
7800
7800
F000
FFFF
FFFF
FFFF
ENDCHAR
STARTCHAR 017E
ENCODING 382
SWIDTH 600 0
DWIDTH 24 0
BBX 16 31 4 0
BITMAP
3006
381E
1E3C
0F78
07F0
03E0
03C0
0000
0000
FFFF
FFFF
FFFF
000F
001E
003C
003C
0078
00F0
01E0
03C0
03C0
0780
0F00
1E00
1E00
3C00
7800
F000
FFFF
FFFF
FFFF
ENDCHAR
STARTCHAR 017F
ENCODING 383
SWIDTH 600 0
DWIDTH 24 0
BBX 13 31 9 0
BITMAP
0FF0
3FF8
7FF0
7810
F000
F000
E000
E000
E000
E000
E000
E000
E000
E000
E000
E000
E000
E000
E000
E000
E000
E000
E000
E000
E000
E000
E000
E000
E000
E000
E000
ENDCHAR
STARTCHAR 0180
ENCODING 384
SWIDTH 600 0
DWIDTH 24 0
BBX 22 31 0 0
BITMAP
1E0000
1E0000
1E0000
FFFE00
FFFE00
FFFE00
1E0000
1E0000
1E0000
1E3F00
1EFFC0
1FFFE0
1FC1F0
1F80F8
1F0078
1E0078
1E0038
1E003C
1E003C
1E003C
1E003C
1E003C
1E003C
1E0038
1E0078
1F0078
1F80F8
1FC1F0
1DFFE0
1CFFC0
1C3F00
ENDCHAR
STARTCHAR 0181
ENCODING 385
SWIDTH 600 0
DWIDTH 24 0
BBX 23 29 0 0
BITMAP
1FFF80
7FFFE0
7FFFF0
73C0F8
F3C07C
F3C03C
73C03C
03C03C
03C03C
03C03C
03C078
03C0F0
03FFE0
03FF80
03FFF0
03C0F8
03C03C
03C03C
03C01E
03C01E
03C01E
03C01E
03C01E
03C03C
03C03C
03C0F8
03FFF0
03FFE0
03FF80
ENDCHAR
STARTCHAR 0182
ENCODING 386
SWIDTH 600 0
DWIDTH 24 0
BBX 18 29 4 0
BITMAP
FFFF00
FFFF00
FFFF00
E00000
E00000
E00000
E00000
E00000
E00000
E00000
E00000
E00000
FFF000
FFFE00
FFFF00
E01F80
E00780
E00380
E003C0
E003C0
E003C0
E003C0
E003C0
E00380
E00780
E00F80
FFFF00
FFFE00
FFF000
ENDCHAR
STARTCHAR 0183
ENCODING 387
SWIDTH 600 0
DWIDTH 24 0
BBX 19 31 3 0
BITMAP
FFFF00
FFFF00
FFFF00
F00000
F00000
F00000
F00000
F00000
F00000
F1F800
F7FE00
FFFF00
FE0F80
FC07C0
F803C0
F003C0
F001C0
F001E0
F001E0
F001E0
F001E0
F001E0
F001E0
F001C0
F003C0
F803C0
FC07C0
FE0F80
EFFF00
E7FE00
E1F800
ENDCHAR
STARTCHAR 0184
ENCODING 388
SWIDTH 600 0
DWIDTH 24 0
BBX 18 29 4 0
BITMAP
E00000
E00000
E00000
E00000
E00000
E00000
E00000
E00000
E00000
E00000
E00000
E00000
FFF800
FFFE00
FFFF00
E01F80
E00780
E00380
E003C0
E003C0
E003C0
E003C0
F003C0
F00380
780780
7C0F00
3FFE00
1FFC00
07F000
ENDCHAR
STARTCHAR 0185
ENCODING 389
SWIDTH 600 0
DWIDTH 24 0
BBX 19 31 3 0
BITMAP
F00000
F00000
F00000
F00000
F00000
F00000
F00000
F00000
F00000
F1F800
F7FE00
FFFF00
FE0F80
FC07C0
F803C0
F003C0
F001C0
F001E0
F001E0
F001E0
F001E0
F001E0
F001E0
F001C0
7003C0
7803C0
780780
3E0F80
1FFF00
0FFE00
03F800
ENDCHAR
STARTCHAR 0186
ENCODING 390
SWIDTH 600 0
DWIDTH 24 0
BBX 19 29 2 0
BITMAP
1FE000
FFF800
FFFE00
703F00
000F80
000780
0003C0
0003C0
0001E0
0001E0
0001E0
0001E0
0000E0
0000E0
0000E0
0000E0
0000E0
0000E0
0001E0
0001E0
0001E0
0003C0
0003C0
000780
000F80
601F00
7FFE00
7FFC00
1FE000
ENDCHAR
STARTCHAR 0187
ENCODING 391
SWIDTH 600 0
DWIDTH 24 0
BBX 23 35 3 0
BITMAP
00003E
00007E
00007E
0000F2
0000E0
0000E0
00FFE0
03FFE0
0FFFE0
1F81C0
3E0000
3C0000
780000
780000
F00000
F00000
F00000
E00000
E00000
E00000
E00000
E00000
E00000
E00000
F00000
F00000
F00000
700000
780000
3C0000
3E0000
1F00C0
0FFFC0
07FFC0
00FF00
ENDCHAR
STARTCHAR 0188
ENCODING 392
SWIDTH 600 0
DWIDTH 24 0
BBX 21 31 3 0
BITMAP
0000F8
0001F8
0001F8
0003C0
000380
000380
000380
000380
000380
01FF80
07FF80
1FFF80
3F0300
3C0000
780000
780000
700000
700000
F00000
F00000
F00000
F00000
700000
700000
780000
780000
3C0000
3F0180
1FFF80
0FFF80
01FE00
ENDCHAR
STARTCHAR 0189
ENCODING 393
SWIDTH 600 0
DWIDTH 24 0
BBX 23 29 0 0
BITMAP
1FFC00
1FFF80
1FFFC0
1E07E0
1E01F0
1E00F8
1E0078
1E003C
1E003C
1E003C
1E001C
1E001C
1E001E
FFF01E
FFF01E
FFF01E
1E001E
1E001C
1E001C
1E003C
1E003C
1E0078
1E0078
1E00F0
1E01F0
1E07E0
1FFFC0
1FFF00
1FF800
ENDCHAR
STARTCHAR 018A
ENCODING 394
SWIDTH 600 0
DWIDTH 24 0
BBX 22 29 0 0
BITMAP
1FFE00
7FFF80
7FFFE0
73C3F0
F3C0F0
F3C078
73C078
03C03C
03C03C
03C03C
03C03C
03C01C
03C01C
03C01C
03C01C
03C01C
03C01C
03C01C
03C03C
03C03C
03C03C
03C038
03C078
03C078
03C0F0
03C3E0
03FFC0
03FF80
03FC00
ENDCHAR
STARTCHAR 018B
ENCODING 395
SWIDTH 600 0
DWIDTH 24 0
BBX 18 29 2 0
BITMAP
3FFFC0
3FFFC0
3FFFC0
0001C0
0001C0
0001C0
0001C0
0001C0
0001C0
0001C0
0001C0
01FFC0
0FFFC0
1FFFC0
3F01C0
7C01C0
7801C0
7001C0
F001C0
F001C0
F001C0
F001C0
F001C0
7801C0
7801C0
7E01C0
3FFFC0
1FFFC0
03FFC0
ENDCHAR
STARTCHAR 018C
ENCODING 396
SWIDTH 600 0
DWIDTH 24 0
BBX 19 31 2 0
BITMAP
3FFFE0
3FFFE0
3FFFE0
0001E0
0001E0
0001E0
0001E0
0001E0
0001E0
03F1E0
0FFDE0
1FFFE0
3E0FE0
7C07E0
7803E0
7801E0
F001E0
F001E0
F001E0
F001E0
F001E0
F001E0
F001E0
F001E0
7001E0
7803E0
7C03E0
3E0FE0
1FFEE0
0FFCE0
03F0E0
ENDCHAR
STARTCHAR 018D
ENCODING 397
SWIDTH 600 0
DWIDTH 24 0
BBX 20 31 2 -10
BITMAP
03FC00
0FFF00
1FFF80
3E07C0
7C03E0
7801E0
7000F0
F000F0
F000F0
F000F0
F000F0
F000E0
F001E0
7801E0
7803C0
3E0780
1F3F00
0FFC00
07F000
01F800
00FC00
003E00
001F00
000F00
000700
000780
300700
3C0F00
7FFF00
1FFE00
07F000
ENDCHAR
STARTCHAR 018E
ENCODING 398
SWIDTH 600 0
DWIDTH 24 0
BBX 17 29 3 0
BITMAP
FFFF80
FFFF80
FFFF80
000380
000380
000380
000380
000380
000380
000380
000380
000380
7FFF80
7FFF80
7FFF80
000380
000380
000380
000380
000380
000380
000380
000380
000380
000380
000380
FFFF80
FFFF80
FFFF80
ENDCHAR
STARTCHAR 018F
ENCODING 399
SWIDTH 600 0
DWIDTH 24 0
BBX 21 29 1 0
BITMAP
03FC00
1FFF00
3FFF80
3807C0
2001E0
0000F0
0000F0
000070
000078
000078
000078
000038
000038
FFFFF8
FFFFF8
FFFFF8
700038
700078
700078
700078
700078
780070
3800F0
3C00F0
3C01E0
1F07C0
0FFF80
07FF00
01FC00
ENDCHAR
STARTCHAR 0190
ENCODING 400
SWIDTH 600 0
DWIDTH 24 0
BBX 20 29 2 0
BITMAP
03FE00
0FFFC0
1FFFF0
3E03E0
7C0060
780000
780000
780000
780000
380000
3C0000
1F0000
07FF80
00FF80
0FFF80
3F8000
7C0000
780000
F00000
F00000
F00000
F00000
F00000
780000
7C0010
3F00F0
1FFFF0
0FFFF0
01FF80
ENDCHAR
STARTCHAR 0191
ENCODING 401
SWIDTH 600 0
DWIDTH 24 0
BBX 22 39 1 -10
BITMAP
00FFFC
00FFFC
00FFFC
00F000
00F000
00F000
00F000
00F000
00F000
00F000
00F000
00F000
00F000
00FFF8
00FFF8
00FFF8
00F000
00F000
00F000
00F000
00F000
00F000
00F000
00F000
00F000
00F000
00F000
00F000
00F000
00F000
00F000
80F000
F0F000
F0F000
F0E000
F1E000
7FE000
7FC000
1F0000
ENDCHAR
STARTCHAR 0192
ENCODING 402
SWIDTH 600 0
DWIDTH 24 0
BBX 21 41 2 -10
BITMAP
000FF0
003FF8
007FF0
007C10
007800
00F000
00F000
00F000
00F000
3FFFE0
3FFFE0
3FFFE0
00F000
00F000
00F000
00F000
00F000
00F000
00F000
00F000
00F000
00F000
00F000
00F000
00F000
00F000
00F000
00F000
00F000
00F000
00F000
00F000
00F000
80F000
F0F000
F0F000
F0F000
78E000
7FE000
3FC000
1F8000
ENDCHAR
STARTCHAR 0193
ENCODING 403
SWIDTH 600 0
DWIDTH 24 0
BBX 23 35 2 0
BITMAP
00003E
00007E
0000FE
0000E2
0000E0
0000E0
00FFE0
03FFE0
0FFFC0
1F80C0
3E0000
3C0000
780000
780000
700000
F00000
F00000
F00000
F00000
F00000
E01FE0
E01FE0
F01FE0
F000E0
F000E0
F000E0
F000E0
7800E0
7800E0
3C00E0
3E00E0
1F80E0
0FFFE0
07FFE0
00FF00
ENDCHAR
STARTCHAR 0194
ENCODING 404
SWIDTH 600 0
DWIDTH 24 0
BBX 22 39 1 -10
BITMAP
F0003C
780078
780078
380070
3C00F0
3C00F0
1C00E0
1E01E0
1E01C0
0E01C0
0F03C0
070380
070380
078780
038700
038700
03CF00
01CE00
01CE00
01FC00
00FC00
00FC00
007800
007800
007800
007800
00FC00
00FC00
00FC00
01CE00
01CE00
03CE00
038700
038700
038F00
03CF00
01FE00
00FC00
007800
ENDCHAR
STARTCHAR 0195
ENCODING 405
SWIDTH 600 0
DWIDTH 24 0
BBX 20 31 2 0
BITMAP
E00000
E00000
E00000
E00000
E00000
E00000
E00000
E00000
E00000
E78070
EFE070
FFE070
F8E070
F0F070
F0F070
F0F070
E0F070
E0F070
E0F070
E0F070
E0F070
E0F070
E0F070
E0F070
E0F070
E0F070
E07070
E078F0
E07FE0
E03FC0
E00F80
ENDCHAR
STARTCHAR 0196
ENCODING 406
SWIDTH 600 0
DWIDTH 24 0
BBX 11 29 8 0
BITMAP
E000
E000
E000
E000
E000
E000
E000
E000
E000
E000
E000
E000
E000
E000
E000
E000
E000
E000
E000
E000
E000
E000
E000
E000
F000
F800
7FE0
3FE0
1FE0
ENDCHAR
STARTCHAR 0197
ENCODING 407
SWIDTH 600 0
DWIDTH 24 0
BBX 16 29 4 0
BITMAP
FFFF
FFFF
FFFF
03C0
03C0
03C0
03C0
03C0
03C0
03C0
03C0
03C0
7FFE
7FFE
7FFE
03C0
03C0
03C0
03C0
03C0
03C0
03C0
03C0
03C0
03C0
03C0
FFFF
FFFF
FFFF
ENDCHAR
STARTCHAR 0198
ENCODING 408
SWIDTH 600 0
DWIDTH 24 0
BBX 20 29 3 0
BITMAP
E001F0
E003F0
E007F0
E00F00
E01E00
E01E00
E03C00
E07800
E0F800
E0F000
E1E000
E3C000
E7C000
E78000
EFC000
EFE000
FDE000
F8F000
F0F000
E07800
E03C00
E03C00
E01E00
E01F00
E00F00
E00780
E00780
E003C0
E001E0
ENDCHAR
STARTCHAR 0199
ENCODING 409
SWIDTH 600 0
DWIDTH 24 0
BBX 19 31 4 0
BITMAP
1F0000
7F0000
7F0000
F00000
F00000
F00000
F00000
F00000
F00000
F007C0
F00780
F00F00
F01E00
F03C00
F07800
F0F000
F1F000
F3E000
F3C000
F7C000
FFE000
FEF000
F87800
F07800
F03C00
F01E00
F01F00
F00F00
F00780
F003C0
F003E0
ENDCHAR
STARTCHAR 019A
ENCODING 410
SWIDTH 600 0
DWIDTH 24 0
BBX 19 31 3 0
BITMAP
FFF000
FFF000
FFF000
00F000
00F000
00F000
00F000
00F000
00F000
00F000
00F000
00F000
00F000
00F000
3FFF80
3FFF80
3FFF80
00F000
00F000
00F000
00F000
00F000
00F000
00F000
00F000
00F000
00F000
00F000
3FFF80
FFFFE0
FFFFE0
ENDCHAR
STARTCHAR 019B
ENCODING 411
SWIDTH 600 0
DWIDTH 24 0
BBX 22 31 1 0
BITMAP
3F0000
3F8000
3FC000
01E100
00EF00
00FF00
07FC00
0FF000
067800
003800
007800
007C00
00FC00
00FE00
01EE00
01CE00
01CF00
03C700
038700
078780
070380
0F0380
0F03C0
0E01C0
1E01E0
1C01E0
3C00E0
3C00F0
7800FC
78007C
F0003C
ENDCHAR
STARTCHAR 019C
ENCODING 412
SWIDTH 600 0
DWIDTH 24 0
BBX 20 29 2 0
BITMAP
E0F070
E0F070
E0F070
E0F070
E0F070
E0F070
E0F070
E0F070
E0F070
E0F070
E0F070
E0F070
E0F070
E0F070
E0F070
E0F070
E0F070
E0F070
E0F070
E0F070
E0F070
E0F070
E0F0F0
E0F0F0
E1F0F0
F1F9F0
7FFFF0
7F3F70
3E1E70
ENDCHAR
STARTCHAR 019D
ENCODING 413
SWIDTH 600 0
DWIDTH 24 0
BBX 23 37 -2 -8
BITMAP
07C00E
07C00E
07E00E
07E00E
07E00E
07700E
07700E
07780E
07380E
073C0E
071C0E
071E0E
070E0E
070E0E
07070E
07070E
07078E
07038E
0703CE
0701CE
0701CE
0700EE
0700EE
0700FE
07007E
07007E
07003E
07003E
07001E
070000
070000
070000
070000
0F0000
FF0000
FE0000
780000
ENDCHAR
STARTCHAR 019E
ENCODING 414
SWIDTH 600 0
DWIDTH 24 0
BBX 18 32 3 -10
BITMAP
E1FC00
E7FF00
EFFF80
FE0F80
FC07C0
F803C0
F003C0
F003C0
F003C0
F003C0
F003C0
F003C0
F003C0
F003C0
F003C0
F003C0
F003C0
F003C0
F003C0
F003C0
F003C0
F003C0
0003C0
0003C0
0003C0
0003C0
0003C0
0003C0
0003C0
0003C0
0003C0
0003C0
ENDCHAR
STARTCHAR 019F
ENCODING 415
SWIDTH 600 0
DWIDTH 24 0
BBX 20 29 2 0
BITMAP
01F800
07FE00
1FFF80
1E0780
3C03C0
7801E0
7801E0
7000E0
F000F0
F000F0
F000F0
F000F0
F000F0
FFFFF0
FFFFF0
FFFFF0
F000F0
F000F0
F000F0
F000F0
F000F0
7000E0
7801E0
7801E0
3C03C0
1E0780
1FFF80
07FE00
01F800
ENDCHAR
STARTCHAR 01A0
ENCODING 416
SWIDTH 600 0
DWIDTH 24 0
BBX 23 34 2 0
BITMAP
000004
00001C
00001C
00001E
00001E
01F81C
07FE1C
1FFF9C
1E07B8
3C03F0
7801E0
7801E0
7000E0
F000F0
F000F0
F000F0
F000F0
F000F0
E000F0
E00070
E000F0
F000F0
F000F0
F000F0
F000F0
F000F0
7000E0
7801E0
7801E0
3C03C0
1E0780
1FFF80
07FE00
01F800
ENDCHAR
STARTCHAR 01A1
ENCODING 417
SWIDTH 600 0
DWIDTH 24 0
BBX 22 29 2 0
BITMAP
000008
000038
00003C
00003C
00001C
00001C
000038
01F838
0FFE70
1FFFE0
3E07C0
3C03C0
7801E0
7801E0
7000E0
F000F0
F000F0
F000F0
F000F0
F000F0
F000F0
7000E0
7801E0
7801E0
3C03C0
3E07C0
1FFF80
0FFF00
01F800
ENDCHAR
STARTCHAR 01A2
ENCODING 418
SWIDTH 1200 0
DWIDTH 48 0
BBX 39 29 4 0
BITMAP
00FF003FC0
03FFE0FFF0
0FFFF1FFF8
1F81FFC0F8
3E007F003C
3C003E003C
78001E001C
78000F001E
F0000F001E
F0000F001E
F0000F001E
E00007001E
E00007801E
E00007801E
E00007801E
E00007801E
E00007801E
E00007001E
F0000F001E
F0000F001E
F0000F001E
78001E001E
78001E001E
3C003E001E
3E007C001E
1F81F8001E
0FFFF0001E
03FFE0001E
00FF00001E
ENDCHAR
STARTCHAR 01A3
ENCODING 419
SWIDTH 600 0
DWIDTH 24 0
BBX 21 32 1 -10
BITMAP
0FC3E0
1FE7F0
3FFFF0
387C78
787878
703838
703838
703838
703838
F03C38
F03C38
F03C38
F03C38
703838
703838
703838
703838
787838
387038
3FF038
1FE038
0F8038
000038
000038
000038
000038
000038
000038
000038
000038
000038
000038
ENDCHAR
STARTCHAR 01A4
ENCODING 420
SWIDTH 600 0
DWIDTH 24 0
BBX 22 29 0 0
BITMAP
1FFF80
3FFFE0
7FFFF0
7380F8
F38078
F38078
F3803C
73803C
03803C
03803C
03803C
038038
038078
038078
0381F0
03FFE0
03FFC0
03FF00
038000
038000
038000
038000
038000
038000
038000
038000
038000
038000
038000
ENDCHAR
STARTCHAR 01A5
ENCODING 421
SWIDTH 600 0
DWIDTH 24 0
BBX 19 41 3 -10
BITMAP
1F0000
7F0000
7F0000
F00000
F00000
F00000
F00000
F00000
F00000
F1F800
F7FE00
FFFF00
FE0F80
F807C0
F803C0
F001C0
F001C0
F001E0
F001E0
F001E0
F001E0
F001E0
F001E0
F001C0
F003C0
F803C0
F807C0
FE0F80
FFFF00
F7FE00
F1F800
F00000
F00000
F00000
F00000
F00000
F00000
F00000
F00000
F00000
F00000
ENDCHAR
STARTCHAR 01A6
ENCODING 422
SWIDTH 600 0
DWIDTH 24 0
BBX 19 33 4 -4
BITMAP
E00000
E00000
E00000
E00000
FFC000
FFF800
FFFC00
E03E00
E01F00
E00F00
E00700
E00700
E00780
E00700
E00F00
E00F00
E01E00
E03E00
FFFC00
FFF000
FFE000
E0F000
E0F000
E07800
E03C00
E03C00
E01E00
E01E00
E00F00
000F80
000780
0003C0
0003E0
ENDCHAR
STARTCHAR 01A7
ENCODING 423
SWIDTH 600 0
DWIDTH 24 0
BBX 18 29 3 0
BITMAP
1FF000
FFFC00
7FFE00
701F00
400F00
000780
000780
000780
000780
000780
000F00
003F00
00FE00
03FC00
0FF000
3FC000
7F0000
7C0000
F80000
F00000
F00000
F00000
F00000
F00000
780040
7C03C0
3FFFC0
1FFFC0
07FE00
ENDCHAR
STARTCHAR 01A8
ENCODING 424
SWIDTH 600 0
DWIDTH 24 0
BBX 16 22 4 0
BITMAP
1FE0
7FF8
7FFC
701E
000E
000E
000E
001E
007E
01FC
07F0
1FC0
7F00
7C00
F000
F000
F000
F001
7807
7FFF
3FFF
07F8
ENDCHAR
STARTCHAR 01A9
ENCODING 425
SWIDTH 600 0
DWIDTH 24 0
BBX 16 29 4 0
BITMAP
FFFE
FFFE
FFFE
7800
7800
3C00
1E00
1E00
0F00
0780
03C0
03C0
01E0
00F0
01E0
01E0
03C0
0380
0780
0F00
0E00
1E00
3C00
3800
7800
F000
FFFF
FFFF
FFFF
ENDCHAR
STARTCHAR 01AA
ENCODING 426
SWIDTH 600 0
DWIDTH 24 0
BBX 19 41 2 -10
BITMAP
1F8000
3FC000
7FE000
70F000
F0F000
70F000
70F000
7FF000
3FF000
1FF000
00F000
00F000
00F000
00F000
00F000
00F000
00F000
00F000
00F000
00F000
00F000
00F000
00F000
00F000
00F000
00F000
00F000
00F000
00F000
00F000
00F000
00F000
00F000
00F000
00F000
00F000
007000
007820
007FE0
003FE0
000FE0
ENDCHAR
STARTCHAR 01AB
ENCODING 427
SWIDTH 600 0
DWIDTH 24 0
BBX 19 37 2 -10
BITMAP
01C000
01C000
03C000
03C000
03C000
FFFFC0
FFFFC0
FFFFC0
03C000
03C000
03C000
03C000
03C000
03C000
03C000
03C000
03C000
03C000
03C000
03C000
03C000
03C000
03C000
01F020
01FFE0
00FFE0
003FE0
0001E0
0001E0
0001E0
0001E0
0001E0
0001E0
0001C0
000FC0
000FC0
000F00
ENDCHAR
STARTCHAR 01AC
ENCODING 428
SWIDTH 600 0
DWIDTH 24 0
BBX 23 29 0 0
BITMAP
1FFFFE
7FFFFE
7FFFFE
703C00
F03C00
F03C00
703C00
003C00
003C00
003C00
003C00
003C00
003C00
003C00
003C00
003C00
003C00
003C00
003C00
003C00
003C00
003C00
003C00
003C00
003C00
003C00
003C00
003C00
003C00
ENDCHAR
STARTCHAR 01AD
ENCODING 429
SWIDTH 600 0
DWIDTH 24 0
BBX 19 31 2 0
BITMAP
007E00
00FE00
01FE00
03C000
03C000
03C000
03C000
03C000
03C000
FFFFC0
FFFFC0
FFFFC0
03C000
03C000
03C000
03C000
03C000
03C000
03C000
03C000
03C000
03C000
03C000
03C000
03C000
03C000
03C000
01F020
01FFE0
00FFE0
003FC0
ENDCHAR
STARTCHAR 01AE
ENCODING 430
SWIDTH 600 0
DWIDTH 24 0
BBX 20 36 2 -7
BITMAP
FFFFF0
FFFFF0
FFFFF0
00F000
00F000
00F000
00F000
00F000
00F000
00F000
00F000
00F000
00F000
00F000
00F000
00F000
00F000
00F000
00F000
00F000
00F000
00F000
00F000
00F000
00F000
00F000
00F000
00F000
00F000
00F000
00F000
00F000
007800
007F00
003F00
001F00
ENDCHAR
STARTCHAR 01AF
ENCODING 431
SWIDTH 600 0
DWIDTH 24 0
BBX 22 33 3 0
BITMAP
000008
00001C
00003C
00001C
E001DC
E001DC
E001DC
E001F8
E001F8
E001F0
E001C0
E001C0
E001C0
E001C0
E001C0
E001C0
E001C0
E001C0
E001C0
E001C0
E001C0
E001C0
E001C0
E001C0
F003C0
F003C0
F003C0
F00380
780780
7C0F00
3FFF00
1FFE00
07F000
ENDCHAR
STARTCHAR 01B0
ENCODING 432
SWIDTH 600 0
DWIDTH 24 0
BBX 22 30 3 0
BITMAP
000008
000038
000038
00003C
00001C
00001C
000038
000038
F003F0
F003E0
F003C0
F003C0
F003C0
F003C0
F003C0
F003C0
F003C0
F003C0
F003C0
F003C0
F003C0
F003C0
F003C0
F003C0
F007C0
F007C0
7C1FC0
7FFDC0
3FF9C0
0FE1C0
ENDCHAR
STARTCHAR 01B1
ENCODING 433
SWIDTH 600 0
DWIDTH 24 0
BBX 22 29 1 0
BITMAP
FF87FC
FF87FC
FF87FC
070380
0E01C0
1E01E0
1C00E0
3C00F0
3800F0
380070
380070
780078
780078
780078
780078
780078
780078
780078
780078
780078
780078
380070
3C00F0
3C00F0
1E01E0
1F07E0
0FFFC0
07FF80
00FC00
ENDCHAR
STARTCHAR 01B2
ENCODING 434
SWIDTH 600 0
DWIDTH 24 0
BBX 18 29 3 0
BITMAP
E07E00
E07F80
E07FC0
E043C0
E003C0
E001C0
E001C0
E001C0
E001C0
E001C0
E001C0
E001C0
E001C0
E001C0
E001C0
E001C0
E001C0
E001C0
E001C0
E001C0
F003C0
F003C0
F003C0
F00380
780780
7C0F80
3FFF00
1FFE00
07F000
ENDCHAR
STARTCHAR 01B3
ENCODING 435
SWIDTH 600 0
DWIDTH 24 0
BBX 23 29 1 0
BITMAP
F8003E
78007E
3800FE
3C00F2
1C01E0
1E01E0
0E01C0
0F03C0
070380
078780
038700
038700
01CE00
01CE00
00FC00
00FC00
007800
007800
007800
007800
007800
007800
007800
007800
007800
007800
007800
007800
007800
ENDCHAR
STARTCHAR 01B4
ENCODING 436
SWIDTH 600 0
DWIDTH 24 0
BBX 22 32 1 -10
BITMAP
F0003C
78007C
78007C
3800F0
3C00E0
1C00E0
1E01E0
0E01C0
0E01C0
0F03C0
070380
078780
038700
038700
03CF00
01CE00
01CE00
00EE00
00FC00
00FC00
007800
007800
007800
007000
007000
00F000
00E000
01E000
03C000
7FC000
7F8000
7E0000
ENDCHAR
STARTCHAR 01B5
ENCODING 437
SWIDTH 600 0
DWIDTH 24 0
BBX 16 29 4 0
BITMAP
7FFF
7FFF
7FFF
000F
000E
001E
001C
003C
0038
0078
0070
00F0
00E0
7FFF
7FFF
7FFF
0780
0700
0F00
0E00
1E00
3C00
3C00
7800
7800
F000
FFFF
FFFF
FFFF
ENDCHAR
STARTCHAR 01B6
ENCODING 438
SWIDTH 600 0
DWIDTH 24 0
BBX 16 22 4 0
BITMAP
FFFF
FFFF
FFFF
000F
001E
003C
0078
0078
00F0
7FFE
7FFE
7FFE
0780
0F00
1E00
1E00
3C00
7800
F000
FFFF
FFFF
FFFF
ENDCHAR
STARTCHAR 01B7
ENCODING 439
SWIDTH 600 0
DWIDTH 24 0
BBX 19 29 2 0
BITMAP
FFFFC0
FFFFC0
FFFFC0
000780
000F00
001E00
003C00
007800
00F000
01E000
03C000
078000
0FF800
0FFE00
0FFF80
001FC0
0003E0
0001E0
0001E0
0000E0
0000E0
0000E0
0001E0
0001E0
8003C0
F00FC0
FFFF80
FFFE00
1FF000
ENDCHAR
STARTCHAR 01B8
ENCODING 440
SWIDTH 600 0
DWIDTH 24 0
BBX 19 29 3 0
BITMAP
7FFFE0
7FFFE0
7FFFE0
3C0000
1E0000
0F0000
078000
03C000
01E000
00F000
007800
003C00
03FE00
0FFE00
3FFE00
7F0000
F80000
F00000
F00000
E00000
E00000
E00000
F00000
F00000
780020
7E01E0
3FFFE0
0FFFE0
01FF00
ENDCHAR
STARTCHAR 01B9
ENCODING 441
SWIDTH 600 0
DWIDTH 24 0
BBX 19 32 3 -10
BITMAP
7FFFC0
7FFFC0
7FFFC0
3C0000
1E0000
0E0000
070000
078000
03C000
01E000
00F000
007800
003C00
03FE00
0FFE00
3FFE00
3E0000
780000
F00000
F00000
F00000
E00000
E00000
F00000
F00000
F00000
780000
7C0020
3E01E0
1FFFE0
0FFFE0
01FF00
ENDCHAR
STARTCHAR 01BA
ENCODING 442
SWIDTH 600 0
DWIDTH 24 0
BBX 18 32 3 -10
BITMAP
FFFF80
FFFF80
FFFF80
001F00
003E00
007C00
00F800
01F000
03C000
078000
0FF800
0FFE00
0FFF00
001F80
0007C0
0003C0
0001C0
0001C0
0001C0
0003C0
0003C0
000F80
1FFF00
7FFE00
FFF000
F00000
E00000
E00000
F00600
7FFE00
7FFE00
0FF000
ENDCHAR
STARTCHAR 01BB
ENCODING 443
SWIDTH 600 0
DWIDTH 24 0
BBX 19 29 3 0
BITMAP
07F000
1FFC00
7FFE00
FC1F00
700780
200780
000380
000380
000380
000380
000780
000780
000700
000F00
7FFFC0
7FFFC0
7FFFC0
007800
00F000
01E000
03C000
078000
0F0000
1E0000
3C0000
780000
FFFFE0
FFFFE0
FFFFE0
ENDCHAR
STARTCHAR 01BC
ENCODING 444
SWIDTH 600 0
DWIDTH 24 0
BBX 19 29 2 0
BITMAP
FFFFC0
FFFFC0
FFFFC0
0F0000
0F0000
0F0000
0F0000
0F0000
0F0000
0F0000
0F0000
0FF800
0FFE00
0FFF00
000F80
0007C0
0003C0
0001E0
0001E0
0001E0
0001E0
0001E0
0001E0
0003C0
4007C0
780F80
7FFF00
7FFE00
0FF800
ENDCHAR
STARTCHAR 01BD
ENCODING 445
SWIDTH 600 0
DWIDTH 24 0
BBX 18 22 3 0
BITMAP
FFFF80
FFFF80
FFFF80
0E0000
0E0000
0E0000
0E0000
0E0000
0FF800
0FFF00
0FFF80
000F80
0003C0
0003C0
0001C0
0001C0
0003C0
8003C0
E00F80
FFFF00
FFFE00
1FF000
ENDCHAR
STARTCHAR 01BE
ENCODING 446
SWIDTH 600 0
DWIDTH 24 0
BBX 18 28 2 0
BITMAP
01C000
01C000
01C000
03C000
03C000
03C000
FFFFC0
FFFFC0
FFFFC0
03C000
03C000
03C000
03C000
03C000
03C000
03F000
01FE00
00FF00
001F80
0007C0
0003C0
0001C0
0001C0
4003C0
7007C0
7FFF80
7FFF00
0FF800
ENDCHAR
STARTCHAR 01BF
ENCODING 447
SWIDTH 600 0
DWIDTH 24 0
BBX 18 32 4 -10
BITMAP
E3F800
E7FC00
EFFF00
FC1F00
F80780
F00780
F00380
E003C0
E003C0
E003C0
E003C0
E00380
E00780
E00780
E00F00
E00F00
E03E00
E07C00
E1F800
FFF000
FFC000
FE0000
E00000
E00000
E00000
E00000
E00000
E00000
E00000
E00000
E00000
E00000
ENDCHAR
STARTCHAR 01C0
ENCODING 448
SWIDTH 600 0
DWIDTH 24 0
BBX 4 31 10 0
BITMAP
F0
F0
F0
F0
F0
F0
F0
F0
F0
F0
F0
F0
F0
F0
F0
F0
F0
F0
F0
F0
F0
F0
F0
F0
F0
F0
F0
F0
F0
F0
F0
ENDCHAR
STARTCHAR 01C1
ENCODING 449
SWIDTH 600 0
DWIDTH 24 0
BBX 14 31 5 0
BITMAP
E01C
E01C
E01C
E01C
E01C
E01C
E01C
E01C
E01C
E01C
E01C
E01C
E01C
E01C
E01C
E01C
E01C
E01C
E01C
E01C
E01C
E01C
E01C
E01C
E01C
E01C
E01C
E01C
E01C
E01C
E01C
ENDCHAR
STARTCHAR 01C2
ENCODING 450
SWIDTH 600 0
DWIDTH 24 0
BBX 16 31 4 0
BITMAP
03C0
03C0
03C0
03C0
03C0
03C0
03C0
03C0
03C0
FFFF
FFFF
FFFF
03C0
03C0
03C0
03C0
03C0
03C0
FFFF
FFFF
FFFF
03C0
03C0
03C0
03C0
03C0
03C0
03C0
03C0
03C0
03C0
ENDCHAR
STARTCHAR 01C3
ENCODING 451
SWIDTH 600 0
DWIDTH 24 0
BBX 4 29 10 0
BITMAP
F0
F0
F0
F0
F0
F0
F0
F0
F0
F0
F0
F0
F0
F0
F0
F0
F0
F0
F0
F0
F0
00
00
00
F0
F0
F0
F0
F0
ENDCHAR
STARTCHAR 01C4
ENCODING 452
SWIDTH 1200 0
DWIDTH 48 0
BBX 38 38 5 0
BITMAP
000001C018
000000E078
00000070F0
00000039E0
0000001FC0
0000001F80
0000000F00
0000000000
0000000000
FFC001FFFC
FFF801FFFC
FFFC01FFFC
E07E00003C
E01F000038
E007800078
E007800070
E003C000F0
E003C000E0
E001C001E0
E001E003C0
E001E003C0
E001E00780
E001E00700
E001E00F00
E001E00E00
E001E01E00
E001E01C00
E001E03C00
E001C03800
E003C07800
E003C0F000
E00780F000
E00F81E000
E01F01E000
E07E03C000
FFFC03FFFC
FFF803FFFC
FFC003FFFC
ENDCHAR
STARTCHAR 01C5
ENCODING 453
SWIDTH 1200 0
DWIDTH 48 0
BBX 41 31 3 0
BITMAP
000000380300
0000001C0F00
FFE0000E1E00
FFF800073C00
FFFE0003F800
E03F0003F000
E00F8001E000
E00780000000
E003C0000000
E003C07FFF80
E001C07FFF80
E001E07FFF80
E001E0000780
E001E0000F00
E001E0001E00
E001E0001E00
E001E0003C00
E001E0007800
E001E000F000
E001E001E000
E001E001E000
E001E003C000
E001C0078000
E003C00F0000
E007C00F0000
E007801E0000
E00F003C0000
E07E00780000
FFFC007FFF80
FFF8007FFF80
FFC0007FFF80
ENDCHAR
STARTCHAR 01C6
ENCODING 454
SWIDTH 1200 0
DWIDTH 48 0
BBX 42 31 2 0
BITMAP
0001E01C0380
0001E00E0780
0001E0070F00
0001E0039E00
0001E001FC00
0001E001F800
0001E000F000
0001E0000000
0001E0000000
03F1E03FFFC0
0FFDE03FFFC0
1FFFE03FFFC0
3E0FE00003C0
7C07E0000780
7803E0000F00
7801E0000F00
F001E0001E00
F001E0003C00
F001E0007800
F001E000F000
F001E000F000
F001E001E000
F001E003C000
F001E0078000
7001E0078000
7803E00F0000
7C03E01E0000
3E0FE03C0000
1FFEE03FFFC0
0FFCE03FFFC0
03F0E03FFFC0
ENDCHAR
STARTCHAR 01C7
ENCODING 455
SWIDTH 1200 0
DWIDTH 48 0
BBX 38 29 5 0
BITMAP
E00000003C
E00000003C
E00000003C
E00000003C
E00000003C
E00000003C
E00000003C
E00000003C
E00000003C
E00000003C
E00000003C
E00000003C
E00000003C
E00000003C
E00000003C
E00000003C
E00000003C
E00000003C
E00000003C
E00000003C
E00000003C
E00000003C
E000000038
E000000078
E000000078
E0000181F0
FFFF01FFF0
FFFF01FFC0
FFFF007F00
ENDCHAR
STARTCHAR 01C8
ENCODING 456
SWIDTH 1200 0
DWIDTH 48 0
BBX 35 41 5 -10
BITMAP
00000001C0
00000003E0
E0000003E0
E0000003E0
E0000001C0
E000000000
E000000000
E000000000
E000000000
E00000FFE0
E00000FFE0
E00000FFE0
E0000001E0
E0000001E0
E0000001E0
E0000001E0
E0000001E0
E0000001E0
E0000001E0
E0000001E0
E0000001E0
E0000001E0
E0000001E0
E0000001E0
E0000001E0
E0000001E0
E0000001E0
E0000001E0
FFFF0001E0
FFFF0001E0
FFFF0001E0
00000001E0
00000001E0
00000001E0
00000001E0
00000001E0
00000003C0
00000407C0
000007FF80
000007FF00
000003FC00
ENDCHAR
STARTCHAR 01C9
ENCODING 457
SWIDTH 1200 0
DWIDTH 48 0
BBX 37 41 3 -10
BITMAP
FFF0000070
FFF00000F8
FFF00000F8
00F00000F8
00F0000070
00F0000000
00F0000000
00F0000000
00F0000000
00F0003FF8
00F0003FF8
00F0003FF8
00F0000078
00F0000078
00F0000078
00F0000078
00F0000078
00F0000078
00F0000078
00F0000078
00F0000078
00F0000078
00F0000078
00F0000078
00F0000078
00F0000078
00F0000078
00F0000078
7FFFC00078
FFFFE00078
FFFFE00078
0000000078
0000000078
0000000078
0000000078
0000000078
00000000F0
00000101F0
000001FFE0
000001FFC0
000000FF00
ENDCHAR
STARTCHAR 01CA
ENCODING 458
SWIDTH 1200 0
DWIDTH 48 0
BBX 40 29 3 0
BITMAP
F801C0000F
F801C0000F
FC01C0000F
FC01C0000F
FC01C0000F
EE01C0000F
EE01C0000F
EF01C0000F
E701C0000F
E781C0000F
E381C0000F
E3C1C0000F
E1C1C0000F
E1C1C0000F
E0E1C0000F
E0E1C0000F
E0F1C0000F
E071C0000F
E079C0000F
E039C0000F
E039C0000F
E01DC0000F
E01DC0000E
E01FC0001E
E00FC0001E
E00FC0607C
E007C07FFC
E007C07FF0
E003C01FC0
ENDCHAR
STARTCHAR 01CB
ENCODING 459
SWIDTH 1200 0
DWIDTH 48 0
BBX 37 41 3 -10
BITMAP
0000000070
00000000F8
F801C000F8
F801C000F8
FC01C00070
FC01C00000
FC01C00000
EE01C00000
EE01C00000
EF01C03FF8
E701C03FF8
E781C03FF8
E381C00078
E3C1C00078
E1C1C00078
E1C1C00078
E0E1C00078
E0E1C00078
E0F1C00078
E071C00078
E079C00078
E039C00078
E039C00078
E01DC00078
E01DC00078
E01FC00078
E00FC00078
E00FC00078
E007C00078
E007C00078
E003C00078
0000000078
0000000078
0000000078
0000000078
0000000078
00000000F0
00000101F0
000001FFE0
000001FFC0
000000FF00
ENDCHAR
STARTCHAR 01CC
ENCODING 460
SWIDTH 1200 0
DWIDTH 48 0
BBX 37 41 3 -10
BITMAP
0000000070
00000000F8
00000000F8
00000000F8
0000000070
0000000000
0000000000
0000000000
0000000000
E1FC003FF8
E7FF003FF8
EFFF803FF8
FE0F800078
FC03C00078
F803C00078
F003C00078
F003C00078
F003C00078
F003C00078
F003C00078
F003C00078
F003C00078
F003C00078
F003C00078
F003C00078
F003C00078
F003C00078
F003C00078
F003C00078
F003C00078
F003C00078
0000000078
0000000078
0000000078
0000000078
0000000078
00000000F0
00000101F0
000001FFE0
000001FFC0
000000FF00
ENDCHAR
STARTCHAR 01CD
ENCODING 461
SWIDTH 600 0
DWIDTH 24 0
BBX 22 38 1 0
BITMAP
0E01C0
070380
038700
03CE00
01FE00
00FC00
007800
000000
000000
007800
007800
00FC00
00FC00
00FC00
01FE00
01CE00
01CE00
03CF00
03CF00
038700
078780
078780
070380
0F03C0
0F03C0
0E01C0
1FFFC0
1FFFE0
1FFFE0
3C00E0
3C00F0
380070
380070
780078
780078
700038
F0003C
F0003C
ENDCHAR
STARTCHAR 01CE
ENCODING 462
SWIDTH 600 0
DWIDTH 24 0
BBX 17 31 3 0
BITMAP
380700
1C0F00
0E1E00
073C00
03F800
03F000
01E000
000000
000000
07F800
3FFE00
7FFF00
380F80
000780
000380
000380
000380
07FF80
1FFF80
3FFF80
7C0380
F00380
F00380
E00380
E00380
E00780
F00F80
F83F80
7FFB80
3FF380
0FC380
ENDCHAR
STARTCHAR 01CF
ENCODING 463
SWIDTH 600 0
DWIDTH 24 0
BBX 16 38 4 0
BITMAP
700E
381C
1C38
1E70
0FF0
07E0
03C0
0000
0000
FFFF
FFFF
FFFF
03C0
03C0
03C0
03C0
03C0
03C0
03C0
03C0
03C0
03C0
03C0
03C0
03C0
03C0
03C0
03C0
03C0
03C0
03C0
03C0
03C0
03C0
03C0
FFFF
FFFF
FFFF
ENDCHAR
STARTCHAR 01D0
ENCODING 464
SWIDTH 600 0
DWIDTH 24 0
BBX 19 31 3 0
BITMAP
380700
1C0E00
0E1C00
0F3800
07F800
03F000
01E000
000000
000000
7FE000
7FE000
7FE000
00E000
00E000
00E000
00E000
00E000
00E000
00E000
00E000
00E000
00E000
00E000
00E000
00E000
00E000
00E000
00E000
7FFFC0
FFFFE0
FFFFE0
ENDCHAR
STARTCHAR 01D1
ENCODING 465
SWIDTH 600 0
DWIDTH 24 0
BBX 20 38 2 0
BITMAP
1C0380
0E0700
070E00
079C00
03FC00
01F800
00F000
000000
000000
01F800
07FE00
1FFF80
1E0780
3C03C0
7801E0
7801E0
7000E0
F000F0
F000F0
F000F0
F000F0
F000F0
E000F0
E00070
E000F0
F000F0
F000F0
F000F0
F000F0
F000F0
7000E0
7801E0
7801E0
3C03C0
1E0780
1FFF80
07FE00
01F800
ENDCHAR
STARTCHAR 01D2
ENCODING 466
SWIDTH 600 0
DWIDTH 24 0
BBX 20 31 2 0
BITMAP
1C0380
0E0700
070E00
079C00
03FC00
01F800
00F000
000000
000000
01F800
0FFE00
1FFF80
3E07C0
3C03C0
7801E0
7801E0
7000E0
F000F0
F000F0
F000F0
F000F0
F000F0
F000F0
7000E0
7801E0
7801E0
3C03C0
3E07C0
1FFF80
0FFF00
01F800
ENDCHAR
STARTCHAR 01D3
ENCODING 467
SWIDTH 600 0
DWIDTH 24 0
BBX 18 38 3 0
BITMAP
380700
1C0E00
0E1C00
0F3800
07F800
03F000
01E000
000000
000000
E001C0
E001C0
E001C0
E001C0
E001C0
E001C0
E001C0
E001C0
E001C0
E001C0
E001C0
E001C0
E001C0
E001C0
E001C0
E001C0
E001C0
E001C0
E001C0
E001C0
F003C0
F003C0
F003C0
F00380
780780
7C0F00
3FFF00
1FFE00
07F000
ENDCHAR
STARTCHAR 01D4
ENCODING 468
SWIDTH 600 0
DWIDTH 24 0
BBX 18 31 3 0
BITMAP
380700
1C0E00
0E1C00
0F3800
07F800
03F000
01E000
000000
000000
F003C0
F003C0
F003C0
F003C0
F003C0
F003C0
F003C0
F003C0
F003C0
F003C0
F003C0
F003C0
F003C0
F003C0
F003C0
F003C0
F007C0
F007C0
7C1FC0
7FFDC0
3FF9C0
0FE1C0
ENDCHAR
STARTCHAR 01D5
ENCODING 469
SWIDTH 600 0
DWIDTH 24 0
BBX 18 43 3 0
BITMAP
1FFE00
1FFE00
1FFE00
000000
000000
000000
1C0E00
3C1F00
3E1F00
3C0F00
1C0E00
000000
000000
000000
E001C0
E001C0
E001C0
E001C0
E001C0
E001C0
E001C0
E001C0
E001C0
E001C0
E001C0
E001C0
E001C0
E001C0
E001C0
E001C0
E001C0
E001C0
E001C0
E001C0
F003C0
F003C0
F003C0
F00380
780780
7C0F00
3FFF00
1FFE00
07F000
ENDCHAR
STARTCHAR 01D6
ENCODING 470
SWIDTH 600 0
DWIDTH 24 0
BBX 18 36 3 0
BITMAP
1FFE00
1FFE00
1FFE00
000000
000000
000000
1C0E00
3C1F00
3E1F00
3C0F00
1C0E00
000000
000000
000000
F003C0
F003C0
F003C0
F003C0
F003C0
F003C0
F003C0
F003C0
F003C0
F003C0
F003C0
F003C0
F003C0
F003C0
F003C0
F003C0
F007C0
F007C0
7C1FC0
7FFDC0
3FF9C0
0FE1C0
ENDCHAR
STARTCHAR 01D7
ENCODING 471
SWIDTH 600 0
DWIDTH 24 0
BBX 18 46 3 0
BITMAP
001E00
001E00
003C00
007800
007000
00E000
01C000
000000
000000
1C0E00
3C1F00
3E1F00
3C0F00
1C0E00
000000
000000
000000
E001C0
E001C0
E001C0
E001C0
E001C0
E001C0
E001C0
E001C0
E001C0
E001C0
E001C0
E001C0
E001C0
E001C0
E001C0
E001C0
E001C0
E001C0
E001C0
E001C0
F003C0
F003C0
F003C0
F00380
780780
7C0F00
3FFF00
1FFE00
07F000
ENDCHAR
STARTCHAR 01D8
ENCODING 472
SWIDTH 600 0
DWIDTH 24 0
BBX 18 39 3 0
BITMAP
001E00
001E00
003C00
007800
007000
00E000
01C000
000000
000000
1C0E00
3C1F00
3E1F00
3C0F00
1C0E00
000000
000000
000000
F003C0
F003C0
F003C0
F003C0
F003C0
F003C0
F003C0
F003C0
F003C0
F003C0
F003C0
F003C0
F003C0
F003C0
F003C0
F003C0
F007C0
F007C0
7C1FC0
7FFDC0
3FF9C0
0FE1C0
ENDCHAR
STARTCHAR 01D9
ENCODING 473
SWIDTH 600 0
DWIDTH 24 0
BBX 18 46 3 0
BITMAP
380700
1C0E00
0E1C00
0F3800
07F800
03F000
01E000
000000
000000
1C0E00
3C1F00
3E1F00
3C0F00
1C0E00
000000
000000
000000
E001C0
E001C0
E001C0
E001C0
E001C0
E001C0
E001C0
E001C0
E001C0
E001C0
E001C0
E001C0
E001C0
E001C0
E001C0
E001C0
E001C0
E001C0
E001C0
E001C0
F003C0
F003C0
F003C0
F00380
780780
7C0F00
3FFF00
1FFE00
07F000
ENDCHAR
STARTCHAR 01DA
ENCODING 474
SWIDTH 600 0
DWIDTH 24 0
BBX 18 39 3 0
BITMAP
380700
1C0E00
0E1C00
0F3800
07F800
03F000
01E000
000000
000000
1C0E00
3C1F00
3E1F00
3C0F00
1C0E00
000000
000000
000000
F003C0
F003C0
F003C0
F003C0
F003C0
F003C0
F003C0
F003C0
F003C0
F003C0
F003C0
F003C0
F003C0
F003C0
F003C0
F003C0
F007C0
F007C0
7C1FC0
7FFDC0
3FF9C0
0FE1C0
ENDCHAR
STARTCHAR 01DB
ENCODING 475
SWIDTH 600 0
DWIDTH 24 0
BBX 18 46 3 0
BITMAP
0F0000
0F0000
078000
03C000
01C000
00E000
007000
000000
000000
1C0E00
3C1F00
3E1F00
3C0F00
1C0E00
000000
000000
000000
E001C0
E001C0
E001C0
E001C0
E001C0
E001C0
E001C0
E001C0
E001C0
E001C0
E001C0
E001C0
E001C0
E001C0
E001C0
E001C0
E001C0
E001C0
E001C0
E001C0
F003C0
F003C0
F003C0
F00380
780780
7C0F00
3FFF00
1FFE00
07F000
ENDCHAR
STARTCHAR 01DC
ENCODING 476
SWIDTH 600 0
DWIDTH 24 0
BBX 18 39 3 0
BITMAP
0F0000
0F0000
078000
03C000
01C000
00E000
007000
000000
000000
1C0E00
3C1F00
3E1F00
3C0F00
1C0E00
000000
000000
000000
F003C0
F003C0
F003C0
F003C0
F003C0
F003C0
F003C0
F003C0
F003C0
F003C0
F003C0
F003C0
F003C0
F003C0
F003C0
F003C0
F007C0
F007C0
7C1FC0
7FFDC0
3FF9C0
0FE1C0
ENDCHAR
STARTCHAR 01DD
ENCODING 477
SWIDTH 600 0
DWIDTH 24 0
BBX 20 22 2 -1
BITMAP
0FF000
7FFE00
7FFF00
700F80
4003C0
0001E0
0001E0
0000E0
0000E0
0000F0
FFFFF0
FFFFF0
FFFFF0
F000E0
7000E0
7001E0
7801E0
3C03C0
3E0F80
1FFF00
0FFE00
03F800
ENDCHAR
STARTCHAR 01DE
ENCODING 478
SWIDTH 600 0
DWIDTH 24 0
BBX 22 43 1 0
BITMAP
07FF80
07FF80
07FF80
000000
000000
000000
070380
0F07C0
0F87C0
0F03C0
070380
000000
000000
000000
007800
007800
00FC00
00FC00
00FC00
01FE00
01CE00
01CE00
03CF00
03CF00
038700
078780
078780
070380
0F03C0
0F03C0
0E01C0
1FFFC0
1FFFE0
1FFFE0
3C00E0
3C00F0
380070
380070
780078
780078
700038
F0003C
F0003C
ENDCHAR
STARTCHAR 01DF
ENCODING 479
SWIDTH 600 0
DWIDTH 24 0
BBX 17 36 3 0
BITMAP
1FFE00
1FFE00
1FFE00
000000
000000
000000
1C0E00
1E0F00
3E0F00
1E0F00
1C0E00
000000
000000
000000
07F800
3FFE00
7FFF00
380F80
000780
000380
000380
000380
07FF80
1FFF80
3FFF80
7C0380
F00380
F00380
E00380
E00380
E00780
F00F80
F83F80
7FFB80
3FF380
0FC380
ENDCHAR
STARTCHAR 01E0
ENCODING 480
SWIDTH 600 0
DWIDTH 24 0
BBX 22 42 1 0
BITMAP
07FF80
07FF80
07FF80
000000
000000
007800
007800
00F800
007800
007800
000000
000000
000000
007800
007800
00FC00
00FC00
00FC00
01FE00
01CE00
01CE00
03CF00
03CF00
038700
078780
078780
070380
0F03C0
0F03C0
0E01C0
1FFFC0
1FFFE0
1FFFE0
3C00E0
3C00F0
380070
380070
780078
780078
700038
F0003C
F0003C
ENDCHAR
STARTCHAR 01E1
ENCODING 481
SWIDTH 600 0
DWIDTH 24 0
BBX 17 35 3 0
BITMAP
1FFE00
1FFE00
1FFE00
000000
000000
00E000
01F000
01F000
01F000
00E000
000000
000000
000000
07F800
3FFE00
7FFF00
380F80
000780
000380
000380
000380
07FF80
1FFF80
3FFF80
7C0380
F00380
F00380
E00380
E00380
E00780
F00F80
F83F80
7FFB80
3FF380
0FC380
ENDCHAR
STARTCHAR 01E2
ENCODING 482
SWIDTH 600 0
DWIDTH 24 0
BBX 21 35 1 0
BITMAP
03FFC0
03FFC0
03FFC0
000000
000000
000000
03FFF8
03FFF8
03FFF8
07BC00
073C00
073C00
073C00
073C00
0F3C00
0E3C00
0E3C00
0E3C00
1E3FF0
1E3FF0
1C3FF0
1C3C00
1C3C00
3FFC00
3FFC00
3FFC00
383C00
783C00
783C00
703C00
703C00
703C00
F03FF8
F03FF8
E03FF8
ENDCHAR
STARTCHAR 01E3
ENCODING 483
SWIDTH 600 0
DWIDTH 24 0
BBX 22 28 1 0
BITMAP
07FF80
07FF80
07FF80
000000
000000
000000
0F83E0
3FC7F0
7FEFF8
30FC38
207C3C
00781C
00781C
00781C
00781C
1FFFFC
3FFFFC
7FFFFC
F87000
F07000
E07800
E07800
E07800
E0FC04
F1FE0C
7FCFFC
7F87FC
1F03F0
ENDCHAR
STARTCHAR 01E4
ENCODING 484
SWIDTH 600 0
DWIDTH 24 0
BBX 22 29 2 0
BITMAP
00FF00
03FFE0
0FFFC0
1F80C0
3E0000
3C0000
780000
780000
700000
F00000
F00000
F00000
F00000
F03FE0
E03FE0
E03FE0
F000E0
F000E0
F000E0
F03FFC
F03FFC
783FFC
7800E0
3C00E0
3E00E0
1F81E0
0FFFE0
07FFE0
00FF00
ENDCHAR
STARTCHAR 01E5
ENCODING 485
SWIDTH 600 0
DWIDTH 24 0
BBX 21 32 2 -10
BITMAP
03F0E0
0FFCE0
1FFEE0
3E0FE0
7C03E0
7803E0
7001E0
F001E0
F001E0
F001E0
F000E0
F000E0
F000E0
F001E0
F001E0
7001E0
7801E0
7C03E0
3E0FE0
1FFEE0
0FFCE0
03F0E0
0000E0
0000E0
00FFF8
00FFF8
00FFF8
0001C0
3807C0
3FFF80
3FFF00
07FC00
ENDCHAR
STARTCHAR 01E6
ENCODING 486
SWIDTH 600 0
DWIDTH 24 0
BBX 19 38 2 0
BITMAP
0E01C0
0F0380
078700
03CE00
01FC00
00FC00
007800
000000
000000
00FF00
03FFE0
0FFFC0
1F80C0
3E0000
3C0000
780000
780000
700000
F00000
F00000
F00000
F00000
F00000
E01FE0
E01FE0
F01FE0
F000E0
F000E0
F000E0
F000E0
7800E0
7800E0
3C00E0
3E00E0
1F80E0
0FFFE0
07FFE0
00FF00
ENDCHAR
STARTCHAR 01E7
ENCODING 487
SWIDTH 600 0
DWIDTH 24 0
BBX 19 41 2 -10
BITMAP
1C0380
0E0700
070E00
079C00
03FC00
01F800
00F000
000000
000000
03F0E0
0FFCE0
1FFEE0
3E0FE0
3C03E0
7803E0
7801E0
7001E0
F001E0
F001E0
F000E0
F000E0
F000E0
F001E0
F001E0
7801E0
7801E0
7C03E0
3E07E0
1FFEE0
0FFDE0
03F1E0
0001E0
0001E0
0001E0
0001E0
0003C0
4003C0
780F80
7FFF80
7FFE00
07F800
ENDCHAR
STARTCHAR 01E8
ENCODING 488
SWIDTH 600 0
DWIDTH 24 0
BBX 19 38 3 0
BITMAP
380700
1C0E00
0E1C00
0F3800
07F800
03F000
01E000
000000
000000
E003E0
E007C0
E00780
E00F00
E01E00
E03E00
E03C00
E07800
E0F800
E0F000
E1E000
E3C000
E7C000
E78000
EFC000
EFE000
FDE000
F8F000
F0F000
E07800
E03C00
E03C00
E01E00
E01F00
E00F00
E00780
E00780
E003C0
E001E0
ENDCHAR
STARTCHAR 01E9
ENCODING 489
SWIDTH 600 0
DWIDTH 24 0
BBX 19 40 4 0
BITMAP
180300
1E0700
0F1E00
07BC00
03F800
01F000
01F000
000000
000000
F00000
F00000
F00000
F00000
F00000
F00000
F00000
F00000
F00000
F007C0
F00780
F00F00
F01E00
F03C00
F07800
F0F000
F1F000
F3E000
F3C000
F7C000
FFE000
FEF000
F87800
F07800
F03C00
F01E00
F01F00
F00F00
F00780
F003C0
F003E0
ENDCHAR
STARTCHAR 01EA
ENCODING 490
SWIDTH 600 0
DWIDTH 24 0
BBX 20 38 2 -9
BITMAP
01F800
07FE00
1FFF80
1E0780
3C03C0
7801E0
7801E0
7000E0
F000F0
F000F0
F000F0
F000F0
F000F0
E000F0
E00070
E000F0
F000F0
F000F0
F000F0
F000F0
F000F0
7000E0
7801E0
7801E0
3C03C0
1E0780
1FFF80
07FE00
01F800
006000
00E000
01C000
01C000
01C000
01C000
01F800
01F800
00F800
ENDCHAR
STARTCHAR 01EB
ENCODING 491
SWIDTH 600 0
DWIDTH 24 0
BBX 20 31 2 -9
BITMAP
01F800
0FFE00
1FFF80
3E07C0
3C03C0
7801E0
7801E0
7000E0
F000F0
F000F0
F000F0
F000F0
F000F0
F000F0
7000E0
7801E0
7801E0
3C03C0
3E07C0
1FFF80
0FFF00
01F800
006000
00E000
01C000
01C000
01C000
01C000
01F800
01F800
00F800
ENDCHAR
STARTCHAR 01EC
ENCODING 492
SWIDTH 600 0
DWIDTH 24 0
BBX 20 44 2 -9
BITMAP
0FFF00
0FFF00
0FFF00
000000
000000
000000
01F800
07FE00
1FFF80
1E0780
3C03C0
7801E0
7801E0
7000E0
F000F0
F000F0
F000F0
F000F0
F000F0
E000F0
E00070
E000F0
F000F0
F000F0
F000F0
F000F0
F000F0
7000E0
7801E0
7801E0
3C03C0
1E0780
1FFF80
07FE00
01F800
006000
00E000
01C000
01C000
01C000
01C000
01F800
01F800
00F800
ENDCHAR
STARTCHAR 01ED
ENCODING 493
SWIDTH 600 0
DWIDTH 24 0
BBX 20 37 2 -9
BITMAP
0FFF00
0FFF00
0FFF00
000000
000000
000000
01F800
0FFE00
1FFF80
3E07C0
3C03C0
7801E0
7801E0
7000E0
F000F0
F000F0
F000F0
F000F0
F000F0
F000F0
7000E0
7801E0
7801E0
3C03C0
3E07C0
1FFF80
0FFF00
01F800
006000
00E000
01C000
01C000
01C000
01C000
01F800
01F800
00F800
ENDCHAR
STARTCHAR 01EE
ENCODING 494
SWIDTH 600 0
DWIDTH 24 0
BBX 19 38 2 0
BITMAP
1C0380
0E0700
070E00
079C00
03FC00
01F800
00F000
000000
000000
FFFFC0
FFFFC0
FFFFC0
000780
000F00
001E00
003C00
007800
00F000
01E000
03C000
078000
0FF800
0FFE00
0FFF80
001FC0
0003E0
0001E0
0001E0
0000E0
0000E0
0000E0
0001E0
0001E0
8003C0
F00FC0
FFFF80
FFFE00
1FF000
ENDCHAR
STARTCHAR 01EF
ENCODING 495
SWIDTH 600 0
DWIDTH 24 0
BBX 19 41 2 -10
BITMAP
180300
1C0F00
0F1E00
07BC00
03F800
01F000
01E000
000000
000000
7FFFC0
7FFFC0
7FFFC0
000780
000F00
000E00
001C00
003C00
007800
00F000
01E000
03C000
078000
0FF800
0FFE00
0FFF00
000F80
0003C0
0001C0
0001E0
0001E0
0001E0
0001E0
0001E0
0001E0
0001E0
0003C0
8007C0
F00F80
FFFF00
FFFE00
1FF000
ENDCHAR
STARTCHAR 01F0
ENCODING 496
SWIDTH 600 0
DWIDTH 24 0
BBX 18 41 2 -10
BITMAP
0600C0
0781C0
03C780
01EF00
00FE00
007C00
007C00
000000
000000
1FFC00
1FFC00
1FFC00
003C00
003C00
003C00
003C00
003C00
003C00
003C00
003C00
003C00
003C00
003C00
003C00
003C00
003C00
003C00
003C00
003C00
003C00
003C00
003C00
003C00
003C00
003C00
003C00
007800
80F800
FFF000
FFE000
7F8000
ENDCHAR
STARTCHAR 01F1
ENCODING 497
SWIDTH 1200 0
DWIDTH 48 0
BBX 38 29 5 0
BITMAP
FFC001FFFC
FFF801FFFC
FFFC01FFFC
E07E00003C
E01F000038
E007800078
E007800070
E003C000F0
E003C000E0
E001C001E0
E001E003C0
E001E003C0
E001E00780
E001E00700
E001E00F00
E001E00E00
E001E01E00
E001E01C00
E001E03C00
E001C03800
E003C07800
E003C0F000
E00780F000
E00F81E000
E01F01E000
E07E03C000
FFFC03FFFC
FFF803FFFC
FFC003FFFC
ENDCHAR
STARTCHAR 01F2
ENCODING 498
SWIDTH 1200 0
DWIDTH 48 0
BBX 41 29 3 0
BITMAP
FFE000000000
FFF800000000
FFFE00000000
E03F00000000
E00F80000000
E00780000000
E003C0000000
E003C07FFF80
E001C07FFF80
E001E07FFF80
E001E0000780
E001E0000F00
E001E0001E00
E001E0001E00
E001E0003C00
E001E0007800
E001E000F000
E001E001E000
E001E001E000
E001E003C000
E001C0078000
E003C00F0000
E007C00F0000
E007801E0000
E00F003C0000
E07E00780000
FFFC007FFF80
FFF8007FFF80
FFC0007FFF80
ENDCHAR
STARTCHAR 01F3
ENCODING 499
SWIDTH 1200 0
DWIDTH 48 0
BBX 42 31 2 0
BITMAP
0001E0000000
0001E0000000
0001E0000000
0001E0000000
0001E0000000
0001E0000000
0001E0000000
0001E0000000
0001E0000000
03F1E03FFFC0
0FFDE03FFFC0
1FFFE03FFFC0
3E0FE00003C0
7C07E0000780
7803E0000F00
7801E0000F00
F001E0001E00
F001E0003C00
F001E0007800
F001E000F000
F001E000F000
F001E001E000
F001E003C000
F001E0078000
7001E0078000
7803E00F0000
7C03E01E0000
3E0FE03C0000
1FFEE03FFFC0
0FFCE03FFFC0
03F0E03FFFC0
ENDCHAR
STARTCHAR 01F4
ENCODING 500
SWIDTH 600 0
DWIDTH 24 0
BBX 19 38 2 0
BITMAP
000780
000F80
000F00
001E00
001C00
003800
007000
000000
000000
00FF00
03FFE0
0FFFC0
1F80C0
3E0000
3C0000
780000
780000
700000
F00000
F00000
F00000
F00000
F00000
E01FE0
E01FE0
F01FE0
F000E0
F000E0
F000E0
F000E0
7800E0
7800E0
3C00E0
3E00E0
1F80E0
0FFFE0
07FFE0
00FF00
ENDCHAR
STARTCHAR 01F5
ENCODING 501
SWIDTH 600 0
DWIDTH 24 0
BBX 19 41 2 -10
BITMAP
000F00
000F00
001E00
003C00
003800
007000
00E000
000000
000000
03F0E0
0FFCE0
1FFEE0
3E0FE0
3C03E0
7803E0
7801E0
7001E0
F001E0
F001E0
F000E0
F000E0
F000E0
F001E0
F001E0
7801E0
7801E0
7C03E0
3E07E0
1FFEE0
0FFDE0
03F1E0
0001E0
0001E0
0001E0
0001E0
0003C0
4003C0
780F80
7FFF80
7FFE00
07F800
ENDCHAR
STARTCHAR 01F6
ENCODING 502
SWIDTH 600 0
DWIDTH 24 0
BBX 20 29 2 0
BITMAP
F0F000
F0F000
F0F000
F0F000
F0F000
F0F000
F0F000
F0F0F0
F0F0F0
F0F0F0
F0F0F0
F0F0F0
FFF0F0
FFF0F0
FFF0F0
F0F0F0
F0F0F0
F0F0F0
F0F0F0
F0F0F0
F0F0F0
F0F0F0
F0F0F0
F0F0F0
F070F0
F078E0
F07FE0
F03FC0
F01F80
ENDCHAR
STARTCHAR 01F7
ENCODING 503
SWIDTH 600 0
DWIDTH 24 0
BBX 19 39 3 -10
BITMAP
E0FC00
F1FF00
F7FF80
F707C0
FC03C0
FC01E0
F801E0
F800E0
F000E0
F000E0
F000E0
F000E0
F000E0
F001E0
F001E0
F001E0
F003C0
F003C0
F00780
F00780
F00F00
F01E00
F03C00
F07C00
F1F000
F3E000
FFC000
FF0000
FE0000
F80000
F00000
F00000
F00000
F00000
F00000
F00000
F00000
F00000
F00000
ENDCHAR
STARTCHAR 01F8
ENCODING 504
SWIDTH 600 0
DWIDTH 24 0
BBX 18 38 3 0
BITMAP
0F0000
0F8000
078000
03C000
01E000
00E000
007000
000000
000000
F801C0
F801C0
FC01C0
FC01C0
FC01C0
EE01C0
EE01C0
EF01C0
E701C0
E781C0
E381C0
E3C1C0
E1C1C0
E1C1C0
E0E1C0
E0E1C0
E0F1C0
E071C0
E079C0
E039C0
E039C0
E01DC0
E01DC0
E01FC0
E00FC0
E00FC0
E007C0
E007C0
E003C0
ENDCHAR
STARTCHAR 01F9
ENCODING 505
SWIDTH 600 0
DWIDTH 24 0
BBX 18 31 3 0
BITMAP
0F0000
078000
07C000
03C000
01E000
00F000
007000
000000
000000
E1FC00
E7FF00
EFFF80
FE0F80
FC03C0
F803C0
F003C0
F003C0
F003C0
F003C0
F003C0
F003C0
F003C0
F003C0
F003C0
F003C0
F003C0
F003C0
F003C0
F003C0
F003C0
F003C0
ENDCHAR
STARTCHAR 01FA
ENCODING 506
SWIDTH 600 0
DWIDTH 24 0
BBX 22 43 1 0
BITMAP
000780
000780
000F00
001E00
001C00
003800
007000
000000
000000
00F800
01FE00
018E00
018600
018600
01FE00
01FE00
00FC00
00FC00
00FC00
01FE00
01CE00
01CE00
03CF00
03CF00
038700
078780
078780
070380
0F03C0
0F03C0
0E01C0
1FFFC0
1FFFE0
1FFFE0
3C00E0
3C00F0
380070
380070
780078
780078
700038
F0003C
F0003C
ENDCHAR
STARTCHAR 01FB
ENCODING 507
SWIDTH 600 0
DWIDTH 24 0
BBX 17 42 3 0
BITMAP
001F00
001E00
003C00
003C00
007800
00F000
00E000
000000
000000
000000
01F000
03F800
071800
061C00
061C00
071800
03F800
01F000
000000
000000
07F800
3FFE00
7FFF00
380F80
000780
000380
000380
000380
07FF80
1FFF80
3FFF80
7C0380
F00380
F00380
E00380
E00380
E00780
F00F80
F83F80
7FFB80
3FF380
0FC380
ENDCHAR
STARTCHAR 01FC
ENCODING 508
SWIDTH 600 0
DWIDTH 24 0
BBX 21 38 1 0
BITMAP
0003C0
0003C0
000780
000F00
000E00
001C00
003800
000000
000000
03FFF8
03FFF8
03FFF8
07BC00
073C00
073C00
073C00
073C00
0F3C00
0E3C00
0E3C00
0E3C00
1E3FF0
1E3FF0
1C3FF0
1C3C00
1C3C00
3FFC00
3FFC00
3FFC00
383C00
783C00
783C00
703C00
703C00
703C00
F03FF8
F03FF8
E03FF8
ENDCHAR
STARTCHAR 01FD
ENCODING 509
SWIDTH 600 0
DWIDTH 24 0
BBX 22 31 1 0
BITMAP
000780
000780
000F00
001E00
001C00
003800
007000
000000
000000
0F83E0
3FC7F0
7FEFF8
30FC38
207C3C
00781C
00781C
00781C
00781C
1FFFFC
3FFFFC
7FFFFC
F87000
F07000
E07800
E07800
E07800
E0FC04
F1FE0C
7FCFFC
7F87FC
1F03F0
ENDCHAR
STARTCHAR 01FE
ENCODING 510
SWIDTH 600 0
DWIDTH 24 0
BBX 20 39 2 -1
BITMAP
000F00
000F00
001E00
003C00
003800
007000
00E000
000000
000040
01F870
07FFE0
1FFFE0
1E0FC0
3C03C0
7803E0
7807E0
7007E0
F00EF0
F01EF0
F01CF0
F03CF0
F038F0
F078F0
E07070
E0E0F0
F1E0F0
F1C0F0
F3C0F0
F380F0
F780F0
7700E0
7E01E0
7E01E0
3C03C0
3E0780
3FFF80
7FFE00
F1F800
200000
ENDCHAR
STARTCHAR 01FF
ENCODING 511
SWIDTH 600 0
DWIDTH 24 0
BBX 20 32 2 -1
BITMAP
000F00
000F00
001E00
003C00
003800
007000
00E000
000000
000040
01F8E0
0FFFE0
1FFFC0
3E07C0
3C07C0
780FE0
780FE0
701EE0
F03CF0
F038F0
F070F0
F0F0F0
F1E0F0
F1C0F0
7380E0
7F81E0
7F01E0
3E03C0
3E07C0
3FFF80
3FFF00
71F800
100000
ENDCHAR
STARTCHAR 0200
ENCODING 512
SWIDTH 600 0
DWIDTH 24 0
BBX 22 37 1 0
BITMAP
1E3C00
1E3C00
0F1E00
070F00
038700
01C380
000000
000000
007800
007800
00FC00
00FC00
00FC00
01FE00
01CE00
01CE00
03CF00
03CF00
038700
078780
078780
070380
0F03C0
0F03C0
0E01C0
1FFFC0
1FFFE0
1FFFE0
3C00E0
3C00F0
380070
380070
780078
780078
700038
F0003C
F0003C
ENDCHAR
STARTCHAR 0201
ENCODING 513
SWIDTH 600 0
DWIDTH 24 0
BBX 17 30 3 0
BITMAP
78F000
387800
3C7800
1E3C00
0E1C00
070600
000000
000000
07F800
3FFE00
7FFF00
380F80
000780
000380
000380
000380
07FF80
1FFF80
3FFF80
7C0380
F00380
F00380
E00380
E00380
E00780
F00F80
F83F80
7FFB80
3FF380
0FC380
ENDCHAR
STARTCHAR 0202
ENCODING 514
SWIDTH 600 0
DWIDTH 24 0
BBX 22 38 1 0
BITMAP
00FC00
03FE00
03FF00
078780
060380
060180
000000
000000
000000
007800
007800
00FC00
00FC00
00FC00
01FE00
01CE00
01CE00
03CF00
03CF00
038700
078780
078780
070380
0F03C0
0F03C0
0E01C0
1FFFC0
1FFFE0
1FFFE0
3C00E0
3C00F0
380070
380070
780078
780078
700038
F0003C
F0003C
ENDCHAR
STARTCHAR 0203
ENCODING 515
SWIDTH 600 0
DWIDTH 24 0
BBX 17 31 3 0
BITMAP
03F000
07FC00
0FFC00
1E0E00
1C0600
180600
000000
000000
000000
07F800
3FFE00
7FFF00
380F80
000780
000380
000380
000380
07FF80
1FFF80
3FFF80
7C0380
F00380
F00380
E00380
E00380
E00780
F00F80
F83F80
7FFB80
3FF380
0FC380
ENDCHAR
STARTCHAR 0204
ENCODING 516
SWIDTH 600 0
DWIDTH 24 0
BBX 17 37 4 0
BITMAP
F1E000
78F000
78F000
3C7800
1C3800
060C00
000000
000000
FFFF80
FFFF80
FFFF80
E00000
E00000
E00000
E00000
E00000
E00000
E00000
E00000
E00000
FFFF00
FFFF00
FFFF00
E00000
E00000
E00000
E00000
E00000
E00000
E00000
E00000
E00000
E00000
E00000
FFFF80
FFFF80
FFFF80
ENDCHAR
STARTCHAR 0205
ENCODING 517
SWIDTH 600 0
DWIDTH 24 0
BBX 20 30 2 0
BITMAP
3C7800
1C3800
1E3C00
0F1E00
070E00
038700
000000
000000
01FC00
07FF00
0FFF80
1F07C0
3C03C0
7801E0
7800E0
7000E0
7000E0
FFFFF0
FFFFF0
FFFFF0
F00000
700000
700000
780000
780000
3C0020
1F00E0
0FFFE0
07FFE0
01FF00
ENDCHAR
STARTCHAR 0206
ENCODING 518
SWIDTH 600 0
DWIDTH 24 0
BBX 17 38 4 0
BITMAP
07E000
0FF800
1FFC00
3C1C00
380C00
300C00
000000
000000
000000
FFFF80
FFFF80
FFFF80
E00000
E00000
E00000
E00000
E00000
E00000
E00000
E00000
E00000
FFFF00
FFFF00
FFFF00
E00000
E00000
E00000
E00000
E00000
E00000
E00000
E00000
E00000
E00000
E00000
FFFF80
FFFF80
FFFF80
ENDCHAR
STARTCHAR 0207
ENCODING 519
SWIDTH 600 0
DWIDTH 24 0
BBX 20 31 2 0
BITMAP
01F800
03FE00
07FE00
0F0700
0E0300
0C0300
000000
000000
000000
01FC00
07FF00
0FFF80
1F07C0
3C03C0
7801E0
7800E0
7000E0
7000E0
FFFFF0
FFFFF0
FFFFF0
F00000
700000
700000
780000
780000
3C0020
1F00E0
0FFFE0
07FFE0
01FF00
ENDCHAR
STARTCHAR 0208
ENCODING 520
SWIDTH 600 0
DWIDTH 24 0
BBX 16 37 4 0
BITMAP
F1E0
F1E0
78F0
3878
1C38
0E1C
0000
0000
FFFF
FFFF
FFFF
03C0
03C0
03C0
03C0
03C0
03C0
03C0
03C0
03C0
03C0
03C0
03C0
03C0
03C0
03C0
03C0
03C0
03C0
03C0
03C0
03C0
03C0
03C0
FFFF
FFFF
FFFF
ENDCHAR
STARTCHAR 0209
ENCODING 521
SWIDTH 600 0
DWIDTH 24 0
BBX 19 30 3 0
BITMAP
78F000
78F000
3C7800
1C3C00
0E1C00
070E00
000000
000000
7FE000
7FE000
7FE000
00E000
00E000
00E000
00E000
00E000
00E000
00E000
00E000
00E000
00E000
00E000
00E000
00E000
00E000
00E000
00E000
7FFFC0
FFFFE0
FFFFE0
ENDCHAR
STARTCHAR 020A
ENCODING 522
SWIDTH 600 0
DWIDTH 24 0
BBX 16 38 4 0
BITMAP
07E0
1FF0
1FF8
3C3C
301C
300C
0000
0000
0000
FFFF
FFFF
FFFF
03C0
03C0
03C0
03C0
03C0
03C0
03C0
03C0
03C0
03C0
03C0
03C0
03C0
03C0
03C0
03C0
03C0
03C0
03C0
03C0
03C0
03C0
03C0
FFFF
FFFF
FFFF
ENDCHAR
STARTCHAR 020B
ENCODING 523
SWIDTH 600 0
DWIDTH 24 0
BBX 19 31 3 0
BITMAP
03F000
0FF800
0FFC00
1E1E00
180E00
180600
000000
000000
000000
7FE000
7FE000
7FE000
00E000
00E000
00E000
00E000
00E000
00E000
00E000
00E000
00E000
00E000
00E000
00E000
00E000
00E000
00E000
00E000
7FFFC0
FFFFE0
FFFFE0
ENDCHAR
STARTCHAR 020C
ENCODING 524
SWIDTH 600 0
DWIDTH 24 0
BBX 20 37 2 0
BITMAP
3C7800
3C7800
1E3C00
0E1E00
070E00
038700
000000
000000
01F800
07FE00
1FFF80
1E0780
3C03C0
7801E0
7801E0
7000E0
F000F0
F000F0
F000F0
F000F0
F000F0
E000F0
E00070
E000F0
F000F0
F000F0
F000F0
F000F0
F000F0
7000E0
7801E0
7801E0
3C03C0
1E0780
1FFF80
07FE00
01F800
ENDCHAR
STARTCHAR 020D
ENCODING 525
SWIDTH 600 0
DWIDTH 24 0
BBX 20 30 2 0
BITMAP
3C7800
3C7800
1E3C00
0E1E00
070E00
038700
000000
000000
01F800
0FFE00
1FFF80
3E07C0
3C03C0
7801E0
7801E0
7000E0
F000F0
F000F0
F000F0
F000F0
F000F0
F000F0
7000E0
7801E0
7801E0
3C03C0
3E07C0
1FFF80
0FFF00
01F800
ENDCHAR
STARTCHAR 020E
ENCODING 526
SWIDTH 600 0
DWIDTH 24 0
BBX 20 38 2 0
BITMAP
01F800
07FC00
07FE00
0F0F00
0C0700
0C0300
000000
000000
000000
01F800
07FE00
1FFF80
1E0780
3C03C0
7801E0
7801E0
7000E0
F000F0
F000F0
F000F0
F000F0
F000F0
E000F0
E00070
E000F0
F000F0
F000F0
F000F0
F000F0
F000F0
7000E0
7801E0
7801E0
3C03C0
1E0780
1FFF80
07FE00
01F800
ENDCHAR
STARTCHAR 020F
ENCODING 527
SWIDTH 600 0
DWIDTH 24 0
BBX 20 31 2 0
BITMAP
01F800
07FC00
07FE00
0F0F00
0C0700
0C0300
000000
000000
000000
01F800
0FFE00
1FFF80
3E07C0
3C03C0
7801E0
7801E0
7000E0
F000F0
F000F0
F000F0
F000F0
F000F0
F000F0
7000E0
7801E0
7801E0
3C03C0
3E07C0
1FFF80
0FFF00
01F800
ENDCHAR
STARTCHAR 0210
ENCODING 528
SWIDTH 600 0
DWIDTH 24 0
BBX 19 37 4 0
BITMAP
F1E000
F1E000
78F000
387800
1C3800
0E1C00
000000
000000
FFE000
FFF800
FFFE00
E03E00
E00F00
E00F00
E00700
E00700
E00780
E00700
E00700
E00F00
E01F00
E03E00
FFFC00
FFF000
FFE000
E0F000
E07800
E07800
E03C00
E03C00
E01E00
E00F00
E00F00
E00780
E00780
E003C0
E003E0
ENDCHAR
STARTCHAR 0211
ENCODING 529
SWIDTH 600 0
DWIDTH 24 0
BBX 21 30 2 0
BITMAP
1E3C00
0F1E00
070F00
038700
01C380
00E1C0
000000
000000
7FC3F8
7FC7F8
7FCFF0
01DC10
01F800
01F000
01F000
01E000
01E000
01E000
01E000
01E000
01E000
01E000
01E000
01E000
01E000
01E000
01E000
7FFF00
FFFF80
FFFF80
ENDCHAR
STARTCHAR 0212
ENCODING 530
SWIDTH 600 0
DWIDTH 24 0
BBX 19 38 4 0
BITMAP
07E000
1FF000
1FF800
3C3C00
301C00
300C00
000000
000000
000000
FFE000
FFF800
FFFE00
E03E00
E00F00
E00F00
E00700
E00700
E00780
E00700
E00700
E00F00
E01F00
E03E00
FFFC00
FFF000
FFE000
E0F000
E07800
E07800
E03C00
E03C00
E01E00
E00F00
E00F00
E00780
E00780
E003C0
E003E0
ENDCHAR
STARTCHAR 0213
ENCODING 531
SWIDTH 600 0
DWIDTH 24 0
BBX 21 31 2 0
BITMAP
007C00
01FF00
03FF80
038380
0701C0
0701C0
000000
000000
000000
7FC3F8
7FC7F8
7FCFF0
01DC10
01F800
01F000
01F000
01E000
01E000
01E000
01E000
01E000
01E000
01E000
01E000
01E000
01E000
01E000
01E000
7FFF00
FFFF80
FFFF80
ENDCHAR
STARTCHAR 0214
ENCODING 532
SWIDTH 600 0
DWIDTH 24 0
BBX 18 37 3 0
BITMAP
78F000
78F000
3C7800
1C3C00
0E1C00
070E00
000000
000000
E001C0
E001C0
E001C0
E001C0
E001C0
E001C0
E001C0
E001C0
E001C0
E001C0
E001C0
E001C0
E001C0
E001C0
E001C0
E001C0
E001C0
E001C0
E001C0
E001C0
F003C0
F003C0
F003C0
F00380
780780
7C0F00
3FFF00
1FFE00
07F000
ENDCHAR
STARTCHAR 0215
ENCODING 533
SWIDTH 600 0
DWIDTH 24 0
BBX 18 30 3 0
BITMAP
78F000
78F000
3C7800
1C3C00
0E1C00
070E00
000000
000000
F003C0
F003C0
F003C0
F003C0
F003C0
F003C0
F003C0
F003C0
F003C0
F003C0
F003C0
F003C0
F003C0
F003C0
F003C0
F003C0
F007C0
F007C0
7C1FC0
7FFDC0
3FF9C0
0FE1C0
ENDCHAR
STARTCHAR 0216
ENCODING 534
SWIDTH 600 0
DWIDTH 24 0
BBX 18 38 3 0
BITMAP
03F000
0FF800
0FFC00
1E1E00
180E00
180600
000000
000000
000000
E001C0
E001C0
E001C0
E001C0
E001C0
E001C0
E001C0
E001C0
E001C0
E001C0
E001C0
E001C0
E001C0
E001C0
E001C0
E001C0
E001C0
E001C0
E001C0
E001C0
F003C0
F003C0
F003C0
F00380
780780
7C0F00
3FFF00
1FFE00
07F000
ENDCHAR
STARTCHAR 0217
ENCODING 535
SWIDTH 600 0
DWIDTH 24 0
BBX 18 31 3 0
BITMAP
03F000
0FF800
0FFC00
1E1E00
180E00
180600
000000
000000
000000
F003C0
F003C0
F003C0
F003C0
F003C0
F003C0
F003C0
F003C0
F003C0
F003C0
F003C0
F003C0
F003C0
F003C0
F003C0
F003C0
F007C0
F007C0
7C1FC0
7FFDC0
3FF9C0
0FE1C0
ENDCHAR
STARTCHAR 0218
ENCODING 536
SWIDTH 600 0
DWIDTH 24 0
BBX 18 38 3 -9
BITMAP
03FE00
0FFFC0
1FFF80
3E0380
3C0080
780000
780000
780000
780000
780000
3C0000
3F0000
1FC000
0FF000
03FC00
00FF00
003F80
000F80
0007C0
0003C0
0003C0
0003C0
0003C0
0003C0
800780
F00F80
FFFF00
FFFE00
1FF800
000000
000000
000000
01E000
01C000
01C000
038000
038000
030000
ENDCHAR
STARTCHAR 0219
ENCODING 537
SWIDTH 600 0
DWIDTH 24 0
BBX 16 31 4 -9
BITMAP
07F8
1FFE
3FFE
780E
7000
7000
7000
7800
7E00
3F80
0FE0
03F8
00FE
003E
000F
000F
000F
800F
E01E
FFFE
FFFC
1FE0
0000
0000
0000
03C0
03C0
0380
0380
0700
0600
ENDCHAR
STARTCHAR 021A
ENCODING 538
SWIDTH 600 0
DWIDTH 24 0
BBX 20 38 2 -9
BITMAP
FFFFF0
FFFFF0
FFFFF0
00F000
00F000
00F000
00F000
00F000
00F000
00F000
00F000
00F000
00F000
00F000
00F000
00F000
00F000
00F000
00F000
00F000
00F000
00F000
00F000
00F000
00F000
00F000
00F000
00F000
00F000
000000
000000
000000
00F000
00E000
00E000
01C000
01C000
018000
ENDCHAR
STARTCHAR 021B
ENCODING 539
SWIDTH 600 0
DWIDTH 24 0
BBX 19 37 2 -9
BITMAP
01C000
01C000
01C000
03C000
03C000
03C000
FFFFC0
FFFFC0
FFFFC0
03C000
03C000
03C000
03C000
03C000
03C000
03C000
03C000
03C000
03C000
03C000
03C000
03C000
03C000
03C000
01F020
01FFE0
00FFE0
003FC0
000000
000000
000000
001E00
001C00
001C00
003800
003800
003000
ENDCHAR
STARTCHAR 021C
ENCODING 540
SWIDTH 600 0
DWIDTH 24 0
BBX 18 36 3 -7
BITMAP
07F000
3FFE00
FFFF00
F81F80
600780
000380
0003C0
0003C0
0003C0
000780
000780
001F00
007E00
01FC00
1FFC00
1FFE00
0E0F00
000780
0003C0
0003C0
0003C0
0003C0
0003C0
0003C0
0003C0
0007C0
000780
000F80
001F00
007E00
01FC00
0FF800
7FE000
FF8000
FC0000
E00000
ENDCHAR
STARTCHAR 021D
ENCODING 541
SWIDTH 600 0
DWIDTH 24 0
BBX 20 32 2 -10
BITMAP
07F800
3FFF00
7FFF80
3807C0
4003C0
0001C0
0001C0
0001C0
0003C0
0003C0
000F80
003F00
01FE00
0FFF00
07CFC0
0403E0
0001E0
0000F0
0000F0
0000F0
0000F0
0000E0
0001E0
0003E0
0007C0
001F80
00FF00
07FC00
FFF000
FFC000
FC0000
800000
ENDCHAR
STARTCHAR 021E
ENCODING 542
SWIDTH 600 0
DWIDTH 24 0
BBX 18 38 3 0
BITMAP
380700
1C0E00
0E1C00
0F3800
07F800
03F000
01E000
000000
000000
E001C0
E001C0
E001C0
E001C0
E001C0
E001C0
E001C0
E001C0
E001C0
E001C0
E001C0
E001C0
FFFFC0
FFFFC0
FFFFC0
E001C0
E001C0
E001C0
E001C0
E001C0
E001C0
E001C0
E001C0
E001C0
E001C0
E001C0
E001C0
E001C0
E001C0
ENDCHAR
STARTCHAR 021F
ENCODING 543
SWIDTH 600 0
DWIDTH 24 0
BBX 23 40 -2 0
BITMAP
E01C00
703800
387000
3CF000
1FE000
0FC000
078000
000000
000000
078000
078000
078000
078000
078000
078000
078000
078000
078000
0787E0
079FF0
07BFFC
07F07C
07E03E
07C01E
07C01E
07801E
07801E
07801E
07801E
07801E
07801E
07801E
07801E
07801E
07801E
07801E
07801E
07801E
07801E
07801E
ENDCHAR
STARTCHAR 0220
ENCODING 544
SWIDTH 600 0
DWIDTH 24 0
BBX 18 39 3 -10
BITMAP
E1F800
E7FE00
EFFF00
EE0F80
FC03C0
F803C0
F001C0
F001C0
F001C0
F001C0
F001C0
F001C0
F001C0
F001C0
F001C0
F001C0
F001C0
F001C0
F001C0
F001C0
F001C0
F001C0
F001C0
F001C0
F001C0
F001C0
F001C0
F001C0
F001C0
0001C0
0001C0
0001C0
0001C0
0001C0
0001C0
0001C0
0001C0
0001C0
0001C0
ENDCHAR
STARTCHAR 0221
ENCODING 545
SWIDTH 600 0
DWIDTH 24 0
BBX 22 35 1 -4
BITMAP
003800
003800
003800
003800
003800
003800
003800
003800
003800
0F3800
1FB800
3FF800
78F800
707800
707800
F07800
F03800
F03800
F03800
E03800
E03800
F038F0
F039F8
F03BFC
F07B9C
707B1C
707F1C
78FE1C
3FDFFC
3F8FF8
0F0FF0
000E00
000E00
000C00
000C00
ENDCHAR
STARTCHAR 0222
ENCODING 546
SWIDTH 600 0
DWIDTH 24 0
BBX 20 29 2 0
BITMAP
7801E0
7801E0
7801E0
7801E0
7801E0
7801C0
3801C0
3801C0
3C03C0
1E0780
0FFF00
07FE00
1FFF80
3E07C0
7801E0
7801E0
F000E0
F000F0
F000F0
F000F0
F000F0
F000F0
F000E0
7001E0
7801E0
3E07C0
1FFF80
0FFF00
03FC00
ENDCHAR
STARTCHAR 0223
ENCODING 547
SWIDTH 600 0
DWIDTH 24 0
BBX 20 31 2 0
BITMAP
7801E0
7801E0
7801E0
7801E0
7801E0
7801E0
7801E0
3801C0
3C03C0
3C03C0
1E0780
1FFF80
07FE00
1FFF00
3E07C0
7C03C0
7801E0
7000E0
F000F0
F000F0
F000F0
F000F0
F000F0
F000F0
7000E0
7801E0
7C03E0
3E07C0
1FFF80
0FFF00
03F800
ENDCHAR
STARTCHAR 0224
ENCODING 548
SWIDTH 600 0
DWIDTH 24 0
BBX 17 37 4 -8
BITMAP
7FFF00
7FFF00
7FFF00
000F00
000E00
001E00
001C00
003C00
007800
007800
00F000
00F000
01E000
01C000
03C000
038000
078000
070000
0F0000
0E0000
1E0000
3C0000
3C0000
780000
780000
F00000
FFFF80
FFFF80
FFFF80
000380
000380
000380
000380
000780
003F80
003F00
003E00
ENDCHAR
STARTCHAR 0225
ENCODING 549
SWIDTH 600 0
DWIDTH 24 0
BBX 17 30 4 -8
BITMAP
FFFF00
FFFF00
FFFF00
000F00
001E00
003C00
003C00
007800
00F000
01E000
03C000
03C000
078000
0F0000
1E0000
1E0000
3C0000
780000
F00000
FFFF80
FFFF80
FFFF80
000380
000380
000380
000380
000780
003F00
003F00
003C00
ENDCHAR
STARTCHAR 0226
ENCODING 550
SWIDTH 600 0
DWIDTH 24 0
BBX 22 37 1 0
BITMAP
007800
007800
00F800
007800
007800
000000
000000
000000
007800
007800
00FC00
00FC00
00FC00
01FE00
01CE00
01CE00
03CF00
03CF00
038700
078780
078780
070380
0F03C0
0F03C0
0E01C0
1FFFC0
1FFFE0
1FFFE0
3C00E0
3C00F0
380070
380070
780078
780078
700038
F0003C
F0003C
ENDCHAR
STARTCHAR 0227
ENCODING 551
SWIDTH 600 0
DWIDTH 24 0
BBX 17 30 3 0
BITMAP
00E000
01F000
01F000
01F000
00E000
000000
000000
000000
07F800
3FFE00
7FFF00
380F80
000780
000380
000380
000380
07FF80
1FFF80
3FFF80
7C0380
F00380
F00380
E00380
E00380
E00780
F00F80
F83F80
7FFB80
3FF380
0FC380
ENDCHAR
STARTCHAR 0228
ENCODING 552
SWIDTH 600 0
DWIDTH 24 0
BBX 17 39 4 -10
BITMAP
FFFF80
FFFF80
FFFF80
E00000
E00000
E00000
E00000
E00000
E00000
E00000
E00000
E00000
FFFF00
FFFF00
FFFF00
E00000
E00000
E00000
E00000
E00000
E00000
E00000
E00000
E00000
E00000
E00000
FFFF80
FFFF80
FFFF80
018000
038000
038000
07E000
00F000
007000
007000
00F000
0FE000
0F8000
ENDCHAR
STARTCHAR 0229
ENCODING 553
SWIDTH 600 0
DWIDTH 24 0
BBX 20 32 2 -10
BITMAP
01FC00
07FF00
0FFF80
1F07C0
3C03C0
7801E0
7800E0
7000E0
7000E0
FFFFF0
FFFFF0
FFFFF0
F00000
700000
700000
780000
780000
3C0020
1F00E0
0FFFE0
07FFE0
01FF00
007000
006000
00E000
00F800
003C00
001C00
001C00
003C00
03F800
03E000
ENDCHAR
STARTCHAR 022A
ENCODING 554
SWIDTH 600 0
DWIDTH 24 0
BBX 20 43 2 0
BITMAP
0FFF00
0FFF00
0FFF00
000000
000000
000000
0E0700
1E0F80
1F0F80
1E0780
0E0700
000000
000000
000000
01F800
07FE00
1FFF80
1E0780
3C03C0
7801E0
7801E0
7000E0
F000F0
F000F0
F000F0
F000F0
F000F0
E000F0
E00070
E000F0
F000F0
F000F0
F000F0
F000F0
F000F0
7000E0
7801E0
7801E0
3C03C0
1E0780
1FFF80
07FE00
01F800
ENDCHAR
STARTCHAR 022B
ENCODING 555
SWIDTH 600 0
DWIDTH 24 0
BBX 20 36 2 0
BITMAP
0FFF00
0FFF00
0FFF00
000000
000000
000000
0E0700
1E0F80
1F0F80
1E0780
0E0700
000000
000000
000000
01F800
0FFE00
1FFF80
3E07C0
3C03C0
7801E0
7801E0
7000E0
F000F0
F000F0
F000F0
F000F0
F000F0
F000F0
7000E0
7801E0
7801E0
3C03C0
3E07C0
1FFF80
0FFF00
01F800
ENDCHAR
STARTCHAR 022C
ENCODING 556
SWIDTH 600 0
DWIDTH 24 0
BBX 20 43 2 0
BITMAP
0FFF00
0FFF00
0FFF00
000000
000000
000000
000000
078180
0FE380
1FFF80
1C7F00
181E00
000000
000000
01F800
07FE00
1FFF80
1E0780
3C03C0
7801E0
7801E0
7000E0
F000F0
F000F0
F000F0
F000F0
F000F0
E000F0
E00070
E000F0
F000F0
F000F0
F000F0
F000F0
F000F0
7000E0
7801E0
7801E0
3C03C0
1E0780
1FFF80
07FE00
01F800
ENDCHAR
STARTCHAR 022D
ENCODING 557
SWIDTH 600 0
DWIDTH 24 0
BBX 20 36 2 0
BITMAP
0FFF00
0FFF00
0FFF00
000000
000000
000000
000000
078180
0FE380
1FFF80
1C7F00
181E00
000000
000000
01F800
0FFE00
1FFF80
3E07C0
3C03C0
7801E0
7801E0
7000E0
F000F0
F000F0
F000F0
F000F0
F000F0
F000F0
7000E0
7801E0
7801E0
3C03C0
3E07C0
1FFF80
0FFF00
01F800
ENDCHAR
STARTCHAR 022E
ENCODING 558
SWIDTH 600 0
DWIDTH 24 0
BBX 20 37 2 0
BITMAP
00F000
00F000
01F000
00F000
00F000
000000
000000
000000
01F800
07FE00
1FFF80
1E0780
3C03C0
7801E0
7801E0
7000E0
F000F0
F000F0
F000F0
F000F0
F000F0
E000F0
E00070
E000F0
F000F0
F000F0
F000F0
F000F0
F000F0
7000E0
7801E0
7801E0
3C03C0
1E0780
1FFF80
07FE00
01F800
ENDCHAR
STARTCHAR 022F
ENCODING 559
SWIDTH 600 0
DWIDTH 24 0
BBX 20 30 2 0
BITMAP
00F000
00F000
01F000
00F000
00F000
000000
000000
000000
01F800
0FFE00
1FFF80
3E07C0
3C03C0
7801E0
7801E0
7000E0
F000F0
F000F0
F000F0
F000F0
F000F0
F000F0
7000E0
7801E0
7801E0
3C03C0
3E07C0
1FFF80
0FFF00
01F800
ENDCHAR
STARTCHAR 0230
ENCODING 560
SWIDTH 600 0
DWIDTH 24 0
BBX 20 42 2 0
BITMAP
0FFF00
0FFF00
0FFF00
000000
000000
00F000
00F000
01F000
00F000
00F000
000000
000000
000000
01F800
07FE00
1FFF80
1E0780
3C03C0
7801E0
7801E0
7000E0
F000F0
F000F0
F000F0
F000F0
F000F0
E000F0
E00070
E000F0
F000F0
F000F0
F000F0
F000F0
F000F0
7000E0
7801E0
7801E0
3C03C0
1E0780
1FFF80
07FE00
01F800
ENDCHAR
STARTCHAR 0231
ENCODING 561
SWIDTH 600 0
DWIDTH 24 0
BBX 20 35 2 0
BITMAP
0FFF00
0FFF00
0FFF00
000000
000000
00F000
00F000
01F000
00F000
00F000
000000
000000
000000
01F800
0FFE00
1FFF80
3E07C0
3C03C0
7801E0
7801E0
7000E0
F000F0
F000F0
F000F0
F000F0
F000F0
F000F0
7000E0
7801E0
7801E0
3C03C0
3E07C0
1FFF80
0FFF00
01F800
ENDCHAR
STARTCHAR 0232
ENCODING 562
SWIDTH 600 0
DWIDTH 24 0
BBX 22 35 1 0
BITMAP
07FF80
07FF80
07FF80
000000
000000
000000
F8003C
780078
380070
3C00F0
1C00E0
1E01E0
0E01C0
0F03C0
070380
078780
038700
03C700
01CE00
01CE00
00FC00
00FC00
007800
007800
007800
007800
007800
007800
007800
007800
007800
007800
007800
007800
007800
ENDCHAR
STARTCHAR 0233
ENCODING 563
SWIDTH 600 0
DWIDTH 24 0
BBX 20 38 2 -10
BITMAP
0FFF00
0FFF00
0FFF00
000000
000000
000000
F000F0
F000F0
7000E0
7801E0
3801E0
3C01C0
3C03C0
1C0380
1E0380
0E0780
0E0700
0F0700
070F00
078E00
038E00
039E00
01DC00
01DC00
01D800
00F800
00F800
007000
007000
00F000
00E000
01E000
01E000
03C000
07C000
7F8000
7F0000
7C0000
ENDCHAR
STARTCHAR 0234
ENCODING 564
SWIDTH 600 0
DWIDTH 24 0
BBX 18 32 2 -1
BITMAP
070000
070000
070000
070000
070000
070000
070000
070000
070000
070000
070000
070000
070000
070000
070000
070000
070000
070000
070000
070000
070000
077E00
07FF80
07FFC0
0F83C0
1F01C0
3F81C0
3FC3C0
73FFC0
71FF80
E07E00
200000
ENDCHAR
STARTCHAR 0235
ENCODING 565
SWIDTH 600 0
DWIDTH 24 0
BBX 21 23 2 -1
BITMAP
C7E000
CFF000
DFF800
F87C00
F03C00
E01C00
E01C00
E01C00
E01C00
E01C00
E01C00
E01C00
E01DE0
E01FF0
E01FF8
E01E38
E01C38
E03E38
E03E38
E07FF8
E077F0
E073E0
001000
ENDCHAR
STARTCHAR 0236
ENCODING 566
SWIDTH 600 0
DWIDTH 24 0
BBX 19 29 2 -1
BITMAP
018000
038000
038000
038000
038000
038000
FFFFC0
FFFFC0
FFFFC0
038000
038000
038000
038000
038000
038000
038000
038000
038000
039F00
03FFC0
03FFE0
03E1E0
07C0E0
0FC0E0
1FE1E0
1DFFE0
3CFFC0
383F00
080000
ENDCHAR
STARTCHAR 0237
ENCODING 567
SWIDTH 600 0
DWIDTH 24 0
BBX 14 32 2 -10
BITMAP
1FFC
1FFC
1FFC
003C
003C
003C
003C
003C
003C
003C
003C
003C
003C
003C
003C
003C
003C
003C
003C
003C
003C
003C
003C
003C
003C
003C
003C
0078
80F8
FFF0
FFE0
7F80
ENDCHAR
STARTCHAR 0238
ENCODING 568
SWIDTH 600 0
DWIDTH 24 0
BBX 22 31 1 0
BITMAP
007000
007000
007000
007000
007000
007000
007000
007000
007000
0F73C0
3FF7E0
3FB7F0
78FC78
707838
707838
707838
F07838
F0783C
F0703C
E0703C
E0703C
F0703C
F0783C
F07838
707838
707838
707838
78FC70
3FCFF0
1FCFE0
0F87C0
ENDCHAR
STARTCHAR 0239
ENCODING 569
SWIDTH 600 0
DWIDTH 24 0
BBX 22 31 1 -10
BITMAP
0F83C0
1FCFE0
3FCFF0
78FC78
707838
707838
707838
70783C
F0783C
F0383C
F0383C
F0383C
F0383C
F0783C
70783C
707838
707838
707838
78FC78
3FB7F0
3FB7F0
0F3BC0
003800
003800
003800
003800
003800
003800
003800
003800
003800
ENDCHAR
STARTCHAR 023A
ENCODING 570
SWIDTH 600 0
DWIDTH 24 0
BBX 22 34 1 -3
BITMAP
0001C0
0001C0
007980
007B80
00FF80
00FF00
00FF00
01FF00
01CF00
01CE00
03CF00
03CF00
038F00
079F80
079F80
071B80
0F3B80
0F3BC0
0E39C0
1FFFC0
1FFFE0
1FFFE0
3C60E0
3CE0F0
38E070
38C070
79C078
79C078
718038
F3803C
F3803C
038000
030000
070000
ENDCHAR
STARTCHAR 023B
ENCODING 571
SWIDTH 600 0
DWIDTH 24 0
BBX 19 33 3 -2
BITMAP
000300
000700
00FF00
03FFE0
0FFFE0
1F8FC0
3E0E00
3C1C00
781C00
781C00
F01800
F03800
F03800
E03000
E07000
E07000
E06000
E0E000
E0E000
E0E000
F0C000
F1C000
F1C000
718000
7B8000
7F8000
3F0000
1F00C0
0FFFC0
07FFC0
0EFF00
0E0000
1C0000
ENDCHAR
STARTCHAR 023C
ENCODING 572
SWIDTH 600 0
DWIDTH 24 0
BBX 18 39 3 -8
BITMAP
0001C0
000180
000380
000380
000300
000700
000700
000600
000E00
01FE00
07FF80
1FFF80
3F1F00
3C1800
783800
783800
787000
707000
F06000
F0E000
F0E000
F0C000
71C000
71C000
798000
7B8000
3F8000
3F0180
1FFF80
0FFF80
0FFE00
0E0000
0C0000
1C0000
1C0000
180000
380000
380000
700000
ENDCHAR
STARTCHAR 023D
ENCODING 573
SWIDTH 600 0
DWIDTH 24 0
BBX 21 29 0 0
BITMAP
070000
070000
070000
070000
070000
070000
070000
070000
070000
070000
070000
070000
070000
FFFC00
FFFC00
FFFC00
070000
070000
070000
070000
070000
070000
070000
070000
070000
070000
07FFF8
07FFF8
07FFF8
ENDCHAR
STARTCHAR 023E
ENCODING 574
SWIDTH 600 0
DWIDTH 24 0
BBX 20 34 2 -3
BITMAP
000070
0000E0
FFFFF0
FFFFF0
FFFFF0
00F380
00F300
00F700
00F600
00FE00
00FE00
00FC00
00FC00
00F800
00F800
00F000
00F000
00F000
00F000
01F000
01F000
03F000
03F000
03F000
07F000
06F000
0EF000
0CF000
1CF000
18F000
38F000
300000
700000
F00000
ENDCHAR
STARTCHAR 023F
ENCODING 575
SWIDTH 600 0
DWIDTH 24 0
BBX 16 32 4 -10
BITMAP
07F8
1FFE
3FFE
780E
7000
7000
7000
7800
7E00
3F80
0FE0
03F8
00FE
003E
000F
000F
000F
800F
E01E
FFFE
FFFC
3FE0
0E00
0F00
0F00
0700
0780
0380
03C1
01FE
01FE
007E
ENDCHAR
STARTCHAR 0240
ENCODING 576
SWIDTH 600 0
DWIDTH 24 0
BBX 16 32 4 -10
BITMAP
FFFF
FFFF
FFFF
000F
001E
003C
0078
0078
00F0
01E0
03C0
03C0
0780
0F00
1E00
1E00
3C00
7800
F000
F800
FE00
FE00
0F00
0700
0780
0380
0380
03C0
01E0
01FF
00FF
003F
ENDCHAR
STARTCHAR 0241
ENCODING 577
SWIDTH 600 0
DWIDTH 24 0
BBX 20 29 2 0
BITMAP
07FC00
3FFF00
FFFF80
7C07C0
6003E0
0001E0
0001E0
0000E0
0000F0
0000E0
0001E0
0001E0
0003E0
0007C0
001F80
007F00
01FC00
01F800
01E000
01E000
01E000
01E000
01E000
01E000
01E000
01E000
01E000
01E000
01E000
ENDCHAR
STARTCHAR 0242
ENCODING 578
SWIDTH 600 0
DWIDTH 24 0
BBX 16 22 4 0
BITMAP
0FE0
7FF8
FFFC
703E
401E
000F
000F
000F
000F
000F
000E
001E
001E
003C
00F8
01F0
07E0
0780
0700
0700
0700
0700
ENDCHAR
STARTCHAR 0243
ENCODING 579
SWIDTH 600 0
DWIDTH 24 0
BBX 22 29 0 0
BITMAP
0FFF00
0FFFC0
0FFFF0
0E01F0
0E0078
0E0078
0E0078
0E0078
0E0078
0E0078
0E00F0
0E01E0
0FFFC0
0FFF00
0FFFE0
0E01F0
0E0078
0E0078
0E003C
FFF03C
FFF03C
FFF03C
0E003C
0E0078
0E0078
0E01F0
0FFFF0
0FFFC0
0FFF00
ENDCHAR
STARTCHAR 0244
ENCODING 580
SWIDTH 600 0
DWIDTH 24 0
BBX 24 29 0 0
BITMAP
1C0038
1C0038
1C0038
1C0038
1C0038
1C0038
1C0038
1C0038
1C0038
1C0038
1C0038
FFFFFF
FFFFFF
FFFFFF
1C0038
1C0038
1C0038
1C0038
1C0038
1C0038
1E0078
1E0078
1E0078
0E0070
0F00F0
0F81E0
07FFE0
03FFC0
00FE00
ENDCHAR
STARTCHAR 0245
ENCODING 581
SWIDTH 600 0
DWIDTH 24 0
BBX 22 29 1 0
BITMAP
007800
007800
00FC00
00FC00
00FC00
01FE00
01CE00
01CE00
03CF00
03CF00
038700
078780
078780
070380
0F03C0
0F03C0
0E01C0
1E01C0
1E01E0
1E00E0
3C00E0
3C00F0
3C00F0
380070
780078
780078
700038
F0003C
F0003C
ENDCHAR
STARTCHAR 0246
ENCODING 582
SWIDTH 600 0
DWIDTH 24 0
BBX 17 34 4 -3
BITMAP
000700
000700
FFFF80
FFFF80
FFFF80
E00C00
E01C00
E01C00
E01C00
E01800
E03800
E03800
E03000
E07000
FFFF00
FFFF00
FFFF00
E0E000
E0E000
E0C000
E1C000
E1C000
E18000
E38000
E38000
E38000
E30000
E70000
FFFF80
FFFF80
FFFF80
0E0000
0C0000
1C0000
ENDCHAR
STARTCHAR 0247
ENCODING 583
SWIDTH 600 0
DWIDTH 24 0
BBX 20 39 2 -8
BITMAP
0001C0
0001C0
000180
000380
000380
000300
000700
000700
000600
01FE00
07FF00
0FFF80
1F1FC0
3C1FC0
7819E0
7838E0
7038E0
7030E0
FFFFF0
FFFFF0
FFFFF0
F0E000
70E000
71C000
79C000
798000
3F8020
1F80E0
0FFFE0
07FFE0
07FF00
0E0000
0E0000
0C0000
1C0000
1C0000
180000
380000
380000
ENDCHAR
STARTCHAR 0248
ENCODING 584
SWIDTH 600 0
DWIDTH 24 0
BBX 20 36 0 -7
BITMAP
001C00
001C00
001C00
001C00
001C00
001C00
001C00
001C00
001C00
001C00
001C00
001C00
001C00
07FFF0
07FFF0
07FFF0
001C00
001C00
001C00
001C00
001C00
001C00
001C00
001C00
001C00
001C00
001C00
001C00
003C00
003C00
003C00
007800
C0F800
FFF000
FFE000
7F8000
ENDCHAR
STARTCHAR 0249
ENCODING 585
SWIDTH 600 0
DWIDTH 24 0
BBX 19 41 2 -10
BITMAP
003800
007C00
007C00
007C00
003800
000000
000000
000000
000000
1FFC00
1FFC00
1FFC00
003C00
003C00
003C00
003C00
003C00
003C00
003C00
07FFE0
07FFE0
07FFE0
003C00
003C00
003C00
003C00
003C00
003C00
003C00
003C00
003C00
003C00
003C00
003C00
003C00
003C00
007800
80F800
FFF000
FFE000
7F8000
ENDCHAR
STARTCHAR 024A
ENCODING 586
SWIDTH 600 0
DWIDTH 24 0
BBX 24 39 2 -10
BITMAP
01F8E0
07FCE0
1FFEE0
3E0FE0
3C03E0
7803E0
7801E0
7001E0
F001E0
F001E0
F000E0
F000E0
F000E0
F000E0
F000E0
F000E0
F000E0
F000E0
F000E0
F001E0
F001E0
7001E0
7801E0
7803E0
3C03E0
3F0FE0
1FFEE0
0FFCE0
03F0E0
0000E0
0000E0
0000E0
0000E0
0000E0
0000E0
0000F0
0000FF
00007F
00001F
ENDCHAR
STARTCHAR 024B
ENCODING 587
SWIDTH 600 0
DWIDTH 24 0
BBX 23 32 2 -10
BITMAP
03F0E0
0FFCE0
1FFEE0
3E0FE0
3C03E0
7803E0
7801E0
7001E0
F001E0
F001E0
F001E0
F001E0
F001E0
F001E0
F001E0
7801E0
7803E0
7C03E0
3E0FE0
1FFFE0
0FFDE0
03F1E0
0001E0
0001E0
0001E0
0001E0
0001E0
0001E0
0000E0
0000FE
00007E
00003E
ENDCHAR
STARTCHAR 024C
ENCODING 588
SWIDTH 600 0
DWIDTH 24 0
BBX 23 29 0 0
BITMAP
0FFE00
0FFF80
0FFFE0
0E03E0
0E00F0
0E00F0
0E0070
0E0070
0E0078
0E0070
0E0070
0E00F0
0E01F0
0E03E0
FFFFC0
FFFF00
FFFE00
0E0F00
0E0780
0E0780
0E03C0
0E03C0
0E01E0
0E00F0
0E00F0
0E0078
0E0078
0E003C
0E003E
ENDCHAR
STARTCHAR 024D
ENCODING 589
SWIDTH 600 0
DWIDTH 24 0
BBX 21 22 2 0
BITMAP
7FC3F8
7FC7F8
7FCFF0
01DC10
01F800
01F000
01F000
01E000
01E000
01E000
01E000
3FFF00
3FFF00
3FFF00
01E000
01E000
01E000
01E000
01E000
1FFE00
FFFF80
FFFF80
ENDCHAR
STARTCHAR 024E
ENCODING 590
SWIDTH 600 0
DWIDTH 24 0
BBX 24 29 0 0
BITMAP
7C001E
3C003C
1C0038
1E0078
0E0070
FFFFFF
FFFFFF
FFFFFF
0381C0
03C3C0
01C380
01E780
00E700
00FF00
007E00
007E00
003C00
003C00
003C00
003C00
003C00
003C00
003C00
003C00
003C00
003C00
003C00
003C00
003C00
ENDCHAR
STARTCHAR 024F
ENCODING 591
SWIDTH 600 0
DWIDTH 24 0
BBX 22 32 1 -10
BITMAP
780078
780078
380070
3C00F0
3C00F0
1C00E0
1E00E0
0E01E0
FFFFFC
FFFFFC
FFFFFC
078380
038380
038780
03C700
01C700
01CE00
00EE00
00EE00
007C00
007C00
007C00
003800
007800
007000
007000
00F000
01E000
03E000
3FC000
3F8000
3E0000
ENDCHAR
STARTCHAR 0250
ENCODING 592
SWIDTH 600 0
DWIDTH 24 0
BBX 17 22 4 -1
BITMAP
E1F800
E7FE00
EFFF00
FE0F80
F80780
F00380
E00380
E00380
E00780
E00780
E01F00
FFFE00
FFFC00
FFF000
E00000
E00000
E00000
F00000
F80E00
7FFF00
3FFE00
0FF000
ENDCHAR
STARTCHAR 0251
ENCODING 593
SWIDTH 600 0
DWIDTH 24 0
BBX 22 22 2 0
BITMAP
03F0E0
0FF8E0
1FFFE0
3E0FE0
7C03E0
7803E0
7801E0
F001E0
F001E0
F001E0
F001E0
F001E0
F001E0
F001E0
F001E0
7001E0
7803E0
7C03E0
3E0FE0
1FFEFC
0FFCFC
03F07C
ENDCHAR
STARTCHAR 0252
ENCODING 594
SWIDTH 600 0
DWIDTH 24 0
BBX 22 22 0 -1
BITMAP
F83F00
FCFFC0
FDFFE0
1FC1F0
1F00F8
1F0078
1E0078
1E003C
1E003C
1E003C
1E003C
1E003C
1E003C
1E003C
1E003C
1E0078
1F0078
1F00F8
1FC1F0
1FFFE0
1C7FC0
1C3F00
ENDCHAR
STARTCHAR 0253
ENCODING 595
SWIDTH 600 0
DWIDTH 24 0
BBX 19 31 3 0
BITMAP
1F0000
7F0000
7F0000
F00000
F00000
F00000
F00000
F00000
F00000
F1F800
F7FE00
FFFF00
FE0F80
FC07C0
F803C0
F003C0
F001C0
F001E0
F001E0
F001E0
F001E0
F001E0
F001E0
F001C0
F003C0
F803C0
FC07C0
FE0F80
EFFF00
E7FE00
E1F800
ENDCHAR
STARTCHAR 0254
ENCODING 596
SWIDTH 600 0
DWIDTH 24 0
BBX 17 22 4 0
BITMAP
3FC000
FFF000
FFFC00
607E00
001E00
000F00
000F00
000F00
000700
000780
000780
000780
000780
000700
000700
000F00
000F00
001E00
C07E00
FFFC00
FFF800
3FC000
ENDCHAR
STARTCHAR 0255
ENCODING 597
SWIDTH 600 0
DWIDTH 24 0
BBX 18 24 3 -2
BITMAP
01FE00
07FF80
1FFF80
3F0300
3C0000
780000
780000
700000
700000
F00000
F00000
F0FC00
F3FF00
77FF80
7F8780
7E03C0
7C03C0
3C03C0
7F0780
7FFF80
77FF00
E1FC00
E00000
200000
ENDCHAR
STARTCHAR 0256
ENCODING 598
SWIDTH 600 0
DWIDTH 24 0
BBX 23 41 2 -10
BITMAP
0001E0
0001E0
0001E0
0001E0
0001E0
0001E0
0001E0
0001E0
0001E0
03F1E0
0FF9E0
1FFFE0
3E0FE0
7C03E0
7803E0
7801E0
F001E0
F001E0
F001E0
F001E0
F001E0
F001E0
F001E0
F001E0
7001E0
7803E0
7803E0
3E0FE0
1FFFE0
0FFDE0
03F1E0
0001E0
0001E0
0001E0
0001E0
0001E0
0001E0
0000F0
0000FE
00007E
00003E
ENDCHAR
STARTCHAR 0257
ENCODING 599
SWIDTH 600 0
DWIDTH 24 0
BBX 22 31 2 0
BITMAP
00003C
0000FC
0000FC
0001E0
0001E0
0001E0
0001E0
0001E0
0001E0
03F1E0
0FFDE0
1FFFE0
3E0FE0
7C07E0
7803E0
7801E0
F001E0
F001E0
F001E0
F001E0
F001E0
F001E0
F001E0
F001E0
7001E0
7803E0
7C03E0
3E0FE0
1FFEE0
0FFCE0
03F0E0
ENDCHAR
STARTCHAR 0258
ENCODING 600
SWIDTH 600 0
DWIDTH 24 0
BBX 20 22 2 0
BITMAP
03F800
0FFE00
1FFF00
3E0F80
3C03C0
7801C0
7001E0
7000E0
F000E0
FFFFF0
FFFFF0
FFFFF0
0000F0
0000E0
0000E0
0001E0
0001E0
4003C0
700F80
7FFF00
7FFE00
0FF800
ENDCHAR
STARTCHAR 0259
ENCODING 601
SWIDTH 600 0
DWIDTH 24 0
BBX 20 22 2 -1
BITMAP
0FF000
7FFE00
7FFF00
700F80
4003C0
0001E0
0001E0
0000E0
0000E0
0000F0
FFFFF0
FFFFF0
FFFFF0
F000E0
7000E0
7001E0
7801E0
3C03C0
3E0F80
1FFF00
0FFE00
03F800
ENDCHAR
STARTCHAR 025A
ENCODING 602
SWIDTH 600 0
DWIDTH 24 0
BBX 22 22 2 0
BITMAP
1FC000
7FE000
7FF000
607800
003C00
001C00
001C00
001D80
001F80
00FF80
0FFFC0
7F9CC4
F81CFC
E01C7C
E01C00
E01C00
F03C00
703800
787800
3FF000
3FE000
0F8000
ENDCHAR
STARTCHAR 025B
ENCODING 603
SWIDTH 600 0
DWIDTH 24 0
BBX 16 22 4 0
BITMAP
07F8
1FFF
3FFF
7C06
7800
7000
7000
7800
3C00
1FF8
07F8
1FF8
7C00
7000
F000
F000
F000
F001
7C07
7FFF
1FFF
07FC
ENDCHAR
STARTCHAR 025C
ENCODING 604
SWIDTH 600 0
DWIDTH 24 0
BBX 17 22 3 0
BITMAP
0FF000
7FFC00
7FFE00
301F00
000700
000700
000700
000F00
001E00
0FFC00
0FF000
0FFE00
001F00
000780
000380
000380
000380
800780
E00F80
FFFF00
FFFE00
1FF000
ENDCHAR
STARTCHAR 025D
ENCODING 605
SWIDTH 600 0
DWIDTH 24 0
BBX 24 22 0 0
BITMAP
0FF000
7FFC00
7FFE00
301F60
0007E0
0007E0
000770
000F31
001E3F
0FF81F
0FF800
0FFE00
001F00
000780
000380
000380
000380
800780
E00F00
FFFF00
FFFE00
1FF000
ENDCHAR
STARTCHAR 025E
ENCODING 606
SWIDTH 600 0
DWIDTH 24 0
BBX 20 22 2 0
BITMAP
01FE00
07FF80
0FFFC0
1F01E0
3C00E0
7800F0
7800E0
7000E0
F003E0
F07F80
F07F00
F07FC0
F001E0
F000F0
700070
780070
780070
3C00F0
3F01E0
1FFFE0
07FF80
01FE00
ENDCHAR
STARTCHAR 025F
ENCODING 607
SWIDTH 600 0
DWIDTH 24 0
BBX 17 32 2 -10
BITMAP
1FFC00
1FFC00
1FFC00
003C00
003C00
003C00
003C00
003C00
003C00
01FF80
01FF80
01FF80
003C00
003C00
003C00
003C00
003C00
003C00
003C00
003C00
003C00
003C00
003C00
003C00
003C00
003C00
003C00
007800
80F800
FFF000
FFE000
7F8000
ENDCHAR
STARTCHAR 0260
ENCODING 608
SWIDTH 600 0
DWIDTH 24 0
BBX 23 41 2 -10
BITMAP
00003E
0000FE
0000FE
0000E0
0001E0
0001E0
0001E0
0001E0
0001E0
03F1E0
0FFDE0
1FFFE0
3E0FE0
3C03E0
7803E0
7801E0
7001E0
F001E0
F001E0
F000E0
F000E0
F000E0
F001E0
F001E0
7801E0
7801E0
7C03E0
3E07E0
1FFEE0
0FFDE0
03F1E0
0001E0
0001E0
0001E0
0001E0
0003C0
4003C0
780F80
7FFF80
7FFE00
07F800
ENDCHAR
STARTCHAR 0261
ENCODING 609
SWIDTH 600 0
DWIDTH 24 0
BBX 19 32 2 -10
BITMAP
03F0E0
0FFCE0
1FFEE0
3E0FE0
3C03E0
7803E0
7801E0
7001E0
F001E0
F001E0
F000E0
F000E0
F000E0
F001E0
F001E0
7801E0
7801E0
7C03E0
3E07E0
1FFEE0
0FFDE0
03F1E0
0001E0
0001E0
0001E0
0001E0
0003C0
4003C0
780F80
7FFF80
7FFE00
07F800
ENDCHAR
STARTCHAR 0262
ENCODING 610
SWIDTH 600 0
DWIDTH 24 0
BBX 19 22 2 0
BITMAP
00FF00
07FFC0
0FFFC0
1F0180
3E0000
3C0000
780000
780000
700000
F00000
F01FE0
F01FE0
F01FE0
7001E0
7001E0
7801E0
7801E0
3C01E0
1F01E0
1FFFE0
07FFE0
01FE00
ENDCHAR
STARTCHAR 0263
ENCODING 611
SWIDTH 600 0
DWIDTH 24 0
BBX 24 32 0 -10
BITMAP
F8001F
78001E
3C003C
3C003C
1E0078
1E0078
0F0070
0F00F0
0700E0
0781E0
0381C0
03C3C0
01C380
01E780
00E700
00FF00
007E00
007E00
003C00
003C00
007E00
00FF00
00FF00
01E780
01E780
01C380
01C380
01C380
01E780
01FF80
00FF00
007C00
ENDCHAR
STARTCHAR 0264
ENCODING 612
SWIDTH 600 0
DWIDTH 24 0
BBX 20 22 2 0
BITMAP
E00070
F001F0
F801F0
3C03C0
1E0780
0E0700
0F0E00
079E00
03FC00
01F800
01F800
00F000
01F800
01F800
039C00
039C00
079C00
071E00
079C00
03FC00
03FC00
00F000
ENDCHAR
STARTCHAR 0265
ENCODING 613
SWIDTH 600 0
DWIDTH 24 0
BBX 18 31 3 -10
BITMAP
F003C0
F003C0
F003C0
F003C0
F003C0
F003C0
F003C0
F003C0
F003C0
F003C0
F003C0
F003C0
F003C0
F003C0
F003C0
F007C0
F007C0
F80FC0
7C1FC0
7FFBC0
3FF3C0
0FC3C0
0003C0
0003C0
0003C0
0003C0
0003C0
0003C0
0003C0
0003C0
0003C0
ENDCHAR
STARTCHAR 0266
ENCODING 614
SWIDTH 600 0
DWIDTH 24 0
BBX 18 31 3 0
BITMAP
1F0000
7F0000
7F0000
F00000
F00000
F00000
F00000
F00000
F00000
F0FC00
F3FE00
F7FF80
FE0F80
FC07C0
F803C0
F803C0
F003C0
F003C0
F003C0
F003C0
F003C0
F003C0
F003C0
F003C0
F003C0
F003C0
F003C0
F003C0
F003C0
F003C0
F003C0
ENDCHAR
STARTCHAR 0267
ENCODING 615
SWIDTH 600 0
DWIDTH 24 0
BBX 18 41 3 -10
BITMAP
1F0000
7F0000
7F0000
F00000
F00000
F00000
F00000
F00000
F00000
F0FC00
F3FE00
F7FF00
FE0F80
FC07C0
F803C0
F803C0
F003C0
F003C0
F003C0
F003C0
F003C0
F003C0
F003C0
F003C0
F003C0
F003C0
F003C0
F003C0
F003C0
F003C0
F003C0
0003C0
0003C0
0003C0
0003C0
0003C0
0003C0
0003C0
001F80
001F80
001F00
ENDCHAR
STARTCHAR 0268
ENCODING 616
SWIDTH 600 0
DWIDTH 24 0
BBX 19 31 3 0
BITMAP
00E000
01F000
01F000
01F000
00E000
000000
000000
000000
000000
7FE000
7FE000
7FE000
00E000
00E000
00E000
00E000
00E000
00E000
00E000
3FFF00
3FFF00
3FFF00
00E000
00E000
00E000
00E000
00E000
00E000
3FFF80
FFFFE0
FFFFE0
ENDCHAR
STARTCHAR 0269
ENCODING 617
SWIDTH 600 0
DWIDTH 24 0
BBX 10 22 10 0
BITMAP
F000
F000
F000
F000
F000
F000
F000
F000
F000
F000
F000
F000
F000
F000
F000
F000
F000
F000
7800
7FC0
3FC0
1FC0
ENDCHAR
STARTCHAR 026A
ENCODING 618
SWIDTH 600 0
DWIDTH 24 0
BBX 16 22 4 0
BITMAP
FFFF
FFFF
FFFF
03C0
03C0
03C0
03C0
03C0
03C0
03C0
03C0
03C0
03C0
03C0
03C0
03C0
03C0
03C0
03C0
FFFF
FFFF
FFFF
ENDCHAR
STARTCHAR 026B
ENCODING 619
SWIDTH 600 0
DWIDTH 24 0
BBX 19 31 3 0
BITMAP
FFF000
FFF000
FFF000
00F000
00F000
00F000
00F000
00F000
00F000
00F000
00F000
00F000
00F000
07F180
0FF380
1FFF80
18FF00
18FE00
00F000
00F000
00F000
00F000
00F000
00F000
00F000
00F000
00F000
00F000
7FFFC0
FFFFE0
FFFFE0
ENDCHAR
STARTCHAR 026C
ENCODING 620
SWIDTH 600 0
DWIDTH 24 0
BBX 19 31 3 0
BITMAP
FFF000
FFF000
FFF000
00F000
00F000
00F000
00F000
00F000
00F000
00F000
00F000
0FF000
3FF000
3FF000
38F000
38F000
3FFF00
3FFF00
0FFF00
00F000
00F000
00F000
00F000
00F000
00F000
00F000
00F000
00F000
7FFFC0
FFFFE0
FFFFE0
ENDCHAR
STARTCHAR 026D
ENCODING 621
SWIDTH 600 0
DWIDTH 24 0
BBX 19 41 3 -10
BITMAP
FFF000
FFF000
FFF000
00F000
00F000
00F000
00F000
00F000
00F000
00F000
00F000
00F000
00F000
00F000
00F000
00F000
00F000
00F000
00F000
00F000
00F000
00F000
00F000
00F000
00F000
00F000
00F000
00F000
00F000
00F000
00F000
00F000
00F000
00F000
00F000
00F000
00F000
007800
007FE0
003FE0
000FE0
ENDCHAR
STARTCHAR 026E
ENCODING 622
SWIDTH 600 0
DWIDTH 24 0
BBX 20 41 3 -10
BITMAP
E00000
E00000
E00000
E00000
E00000
E00000
E00000
E00000
E00000
FFFFE0
FFFFE0
FFFFE0
E003C0
E00780
E00F00
E00E00
E01E00
E03C00
E07800
E0F000
E0F000
E1E000
E3FC00
E3FF00
E3FF80
E00FC0
E003E0
E001E0
E000E0
E000F0
E000F0
0000F0
0000F0
0000E0
0001E0
0001E0
2003C0
380FC0
3FFF80
3FFE00
07F800
ENDCHAR
STARTCHAR 026F
ENCODING 623
SWIDTH 600 0
DWIDTH 24 0
BBX 20 22 2 -1
BITMAP
E0F070
E0F070
E0F070
E0F070
E0F070
E0F070
E0F070
E0F070
E0F070
E0F070
E0F070
E0F070
E0F070
E0F070
E0F070
E0F0F0
E0F0F0
E1F0F0
F1F9F0
7FFFF0
7F3F70
3E1E70
ENDCHAR
STARTCHAR 0270
ENCODING 624
SWIDTH 600 0
DWIDTH 24 0
BBX 20 32 2 -10
BITMAP
E0F070
E0F070
E0F070
E0F070
E0F070
E0F070
E0F070
E0F070
E0F070
E0F070
E0F070
E0F070
E0F070
E0F070
E0F070
E0F0F0
E0F0F0
E1F0F0
F1F9F0
7FFFF0
7F3F70
3E1E70
000070
000070
000070
000070
000070
000070
000070
000070
000070
000070
ENDCHAR
STARTCHAR 0271
ENCODING 625
SWIDTH 600 0
DWIDTH 24 0
BBX 20 32 2 -10
BITMAP
E787C0
EFCFE0
FFFFE0
F9F8F0
F0F870
F0F070
F0F070
E0F070
E0F070
E0F070
E0F070
E0F070
E0F070
E0F070
E0F070
E0F070
E0F070
E0F070
E0F070
E0F070
E0F070
E0F070
000070
000070
000070
000070
000070
000070
0000F0
0007F0
0007E0
0007C0
ENDCHAR
STARTCHAR 0272
ENCODING 626
SWIDTH 600 0
DWIDTH 24 0
BBX 22 32 -1 -10
BITMAP
0E1FC0
0E7FF0
0EFFF8
0FE0F8
0FC03C
0F803C
0F003C
0F003C
0F003C
0F003C
0F003C
0F003C
0F003C
0F003C
0F003C
0F003C
0F003C
0F003C
0F003C
0F003C
0F003C
0F003C
0F0000
0F0000
0F0000
0F0000
0F0000
0F0000
1E0000
FE0000
FC0000
F80000
ENDCHAR
STARTCHAR 0273
ENCODING 627
SWIDTH 600 0
DWIDTH 24 0
BBX 22 32 3 -10
BITMAP
E1FC00
E7FF00
EFFF80
FE0F80
FC07C0
F803C0
F003C0
F003C0
F003C0
F003C0
F003C0
F003C0
F003C0
F003C0
F003C0
F003C0
F003C0
F003C0
F003C0
F003C0
F003C0
F003C0
0003C0
0003C0
0003C0
0003C0
0003C0
0001C0
0001E0
0001FC
0000FC
00007C
ENDCHAR
STARTCHAR 0274
ENCODING 628
SWIDTH 600 0
DWIDTH 24 0
BBX 18 22 3 0
BITMAP
F001C0
F801C0
FC01C0
FC01C0
FE01C0
FE01C0
EF01C0
E781C0
E781C0
E3C1C0
E1E1C0
E1E1C0
E0F1C0
E079C0
E079C0
E03DC0
E01FC0
E01FC0
E00FC0
E00FC0
E007C0
E003C0
ENDCHAR
STARTCHAR 0275
ENCODING 629
SWIDTH 600 0
DWIDTH 24 0
BBX 20 22 2 0
BITMAP
01F800
0FFE00
1FFF80
3E07C0
3C03C0
7801E0
7001E0
7000E0
F000F0
FFFFF0
FFFFF0
FFFFF0
F000F0
F000F0
7000E0
7801E0
7801E0
3C03C0
3E07C0
1FFF80
0FFF00
01F800
ENDCHAR
STARTCHAR 0276
ENCODING 630
SWIDTH 600 0
DWIDTH 24 0
BBX 21 22 1 0
BITMAP
07CFF8
1FEFF8
3FFFF8
3C7C00
783C00
701C00
701C00
701C00
F01C00
F01FF8
F01FF8
F01FF8
F01C00
701C00
701C00
701C00
701C00
783C00
3C7C00
3FEFF8
1FEFF8
07CFF8
ENDCHAR
STARTCHAR 0277
ENCODING 631
SWIDTH 600 0
DWIDTH 24 0
BBX 22 22 1 0
BITMAP
01FE00
07FF80
0FFFC0
1F03E0
3C00F0
380070
780078
700038
700038
F0783C
E0781C
E0781C
E0781C
E0781C
E0781C
F0783C
707838
707838
78FC78
3FEFF0
1FCFE0
0F87C0
ENDCHAR
STARTCHAR 0278
ENCODING 632
SWIDTH 600 0
DWIDTH 24 0
BBX 20 41 2 -10
BITMAP
00F000
00F000
00F000
00F000
00F000
00F000
00F000
00F000
00F000
00F000
07FE00
1FFF00
3FFF80
3CF3C0
78F1E0
78F1E0
70F0E0
F0F0F0
F0F0F0
F0F0F0
F0F0F0
F0F0F0
F0F0F0
F0F0F0
70F0E0
70F1E0
78F1E0
3CF3C0
3EF780
1FFF80
07FE00
01F000
00F000
00F000
00F000
00F000
00F000
00F000
00F000
00F000
00F000
ENDCHAR
STARTCHAR 0279
ENCODING 633
SWIDTH 600 0
DWIDTH 24 0
BBX 21 22 1 -1
BITMAP
0FFFF8
0FFFF8
07FFF0
003C00
003C00
003C00
003C00
003C00
003C00
003C00
003C00
003C00
003C00
003C00
003C00
007C00
007C00
00FC00
41DC00
7F9FF0
FF1FF0
FE1FF0
ENDCHAR
STARTCHAR 027A
ENCODING 634
SWIDTH 600 0
DWIDTH 24 0
BBX 20 31 1 0
BITMAP
003C00
003C00
003C00
003C00
003C00
003C00
003C00
003C00
003C00
003C00
003C00
003C00
003C00
003C00
003C00
003C00
003C00
003C00
003C00
003C00
003C00
003C00
003C00
003C00
007C00
007C00
00FC00
41DC00
7F9FF0
FF9FF0
FE1FF0
ENDCHAR
STARTCHAR 027B
ENCODING 635
SWIDTH 600 0
DWIDTH 24 0
BBX 19 32 3 -10
BITMAP
3FFFE0
3FFFE0
3FFFE0
00F000
00F000
00F000
00F000
00F000
00F000
00F000
00F000
00F000
00F000
00F000
00F000
00F000
01F000
03F000
077000
FF7000
FEF000
F8F000
00F000
00F000
00F000
00F000
007000
007000
007800
007F80
003F80
001F00
ENDCHAR
STARTCHAR 027C
ENCODING 636
SWIDTH 600 0
DWIDTH 24 0
BBX 20 32 3 -10
BITMAP
FF87F0
FF8FF0
FF9FE0
03B820
03F000
03E000
03E000
03C000
03C000
03C000
03C000
03C000
03C000
03C000
03C000
03C000
03C000
03C000
03C000
03C000
03C000
03C000
03C000
03C000
03C000
03C000
03C000
03C000
03C000
03C000
03C000
03C000
ENDCHAR
STARTCHAR 027D
ENCODING 637
SWIDTH 600 0
DWIDTH 24 0
BBX 20 32 3 -10
BITMAP
FF87F0
FF8FF0
FF9FE0
03B820
03F000
03E000
03E000
03C000
03C000
03C000
03C000
03C000
03C000
03C000
03C000
03C000
03C000
03C000
03C000
03C000
03C000
03C000
03C000
03C000
03C000
03C000
03C000
03C000
03E000
01FE00
00FE00
007E00
ENDCHAR
STARTCHAR 027E
ENCODING 638
SWIDTH 600 0
DWIDTH 24 0
BBX 13 22 7 0
BITMAP
07F0
1FF8
3FF8
7C08
7800
F000
F000
F000
E000
E000
E000
E000
E000
E000
E000
E000
E000
E000
E000
E000
E000
E000
ENDCHAR
STARTCHAR 027F
ENCODING 639
SWIDTH 600 0
DWIDTH 24 0
BBX 13 32 4 -10
BITMAP
7F00
FFC0
FFE0
81F0
00F0
0078
0078
0078
0038
0038
0038
0038
0038
0038
0038
0038
0038
0038
0038
0038
0038
0038
0038
0038
0038
0038
0038
0038
0038
0038
0038
0038
ENDCHAR
STARTCHAR 0280
ENCODING 640
SWIDTH 600 0
DWIDTH 24 0
BBX 18 22 4 0
BITMAP
FFF000
FFFC00
FFFE00
F01F00
F00F00
F00700
F00700
F00700
F00F00
F01F00
FFFE00
FFFC00
FFE000
F0F000
F07800
F07800
F03C00
F01E00
F01E00
F00F00
F00780
F007C0
ENDCHAR
STARTCHAR 0281
ENCODING 641
SWIDTH 600 0
DWIDTH 24 0
BBX 18 22 4 -1
BITMAP
F007C0
F00780
F00F00
F01E00
F01E00
F03C00
F07800
F07800
F0F000
FFE000
FFFC00
FFFE00
F01F00
F00F00
F00700
F00700
F00700
F00F00
F01F00
FFFE00
FFFC00
FFF000
ENDCHAR
STARTCHAR 0282
ENCODING 642
SWIDTH 600 0
DWIDTH 24 0
BBX 16 30 4 -8
BITMAP
07F8
1FFE
3FFE
780E
7000
7000
7000
7800
7E00
3F80
0FE0
03F8
00FE
003E
000F
000F
000F
800F
E01E
FFFE
FFFC
FFE0
F000
F000
F000
F000
7800
7F80
3F80
1F00
ENDCHAR
STARTCHAR 0283
ENCODING 643
SWIDTH 600 0
DWIDTH 24 0
BBX 18 41 3 -10
BITMAP
000FC0
003FC0
007FC0
00F840
00F000
01E000
01E000
01E000
01E000
01E000
01E000
01E000
01E000
01E000
01E000
01E000
01E000
01E000
01E000
01E000
01E000
01E000
01E000
01E000
01E000
01E000
01E000
01E000
01E000
01E000
01E000
01E000
01E000
01E000
01E000
01C000
03C000
87C000
FF8000
FF0000
FC0000
ENDCHAR
STARTCHAR 0284
ENCODING 644
SWIDTH 600 0
DWIDTH 24 0
BBX 18 41 3 -10
BITMAP
000FC0
003FC0
007FC0
00F840
00F000
01E000
01E000
01E000
01E000
01E000
01E000
01E000
01E000
01E000
01E000
01E000
01E000
01E000
3FFF00
3FFF00
3FFF00
01E000
01E000
01E000
01E000
01E000
01E000
01E000
01E000
01E000
01E000
01E000
01E000
01E000
01E000
01C000
03C000
87C000
FF8000
FF0000
FC0000
ENDCHAR
STARTCHAR 0285
ENCODING 645
SWIDTH 600 0
DWIDTH 24 0
BBX 18 32 3 -10
BITMAP
FC0000
FF0000
FF8000
87C000
03C000
01E000
01E000
01E000
01E000
01E000
01E000
01E000
01E000
01E000
01E000
01E000
01E000
01E000
01E000
01E000
01E000
01E000
01E000
01E000
01E000
01E000
00E000
00F000
00F840
007FC0
003FC0
000FC0
ENDCHAR
STARTCHAR 0286
ENCODING 646
SWIDTH 600 0
DWIDTH 24 0
BBX 19 41 2 -10
BITMAP
0007E0
001FE0
003FE0
007C20
007800
00F000
00F000
00F000
00F000
00F000
00F000
00F000
00F000
00F000
00F000
00F000
00F000
00F000
00F000
00F000
00F000
00F000
00F000
00F000
00F000
00F000
00F000
00F000
00F000
00F000
00F000
1FFE00
3FFE00
7FFE00
70F000
F0F000
F0E000
71E000
7FE000
3FC000
1F8000
ENDCHAR
STARTCHAR 0287
ENCODING 647
SWIDTH 600 0
DWIDTH 24 0
BBX 19 28 3 -7
BITMAP
7F8000
FFE000
FFF000
81F000
007800
007800
007800
007800
007800
007800
007800
007800
007800
007800
007800
007800
007800
007800
007800
7FFFE0
7FFFE0
7FFFE0
007800
007800
007800
007000
007000
007000
ENDCHAR
STARTCHAR 0288
ENCODING 648
SWIDTH 600 0
DWIDTH 24 0
BBX 19 37 3 -10
BITMAP
01C000
01C000
01C000
03C000
03C000
7FFFC0
FFFFC0
FFFFC0
03C000
03C000
03C000
03C000
03C000
03C000
03C000
03C000
03C000
03C000
03C000
03C000
03C000
03C000
03C000
03C000
03C000
03C000
03C000
03C000
03C000
03C000
03C000
03C000
01E000
01F020
00FFE0
007FE0
001FC0
ENDCHAR
STARTCHAR 0289
ENCODING 649
SWIDTH 600 0
DWIDTH 24 0
BBX 24 22 0 0
BITMAP
1E0078
1E0078
1E0078
1E0078
1E0078
1E0078
1E0078
1E0078
1E0078
FFFFFF
FFFFFF
FFFFFF
1E0078
1E0078
1E0078
1E0078
1E00F8
1E00F8
0F83F8
0FFFB8
07FF38
01FC38
ENDCHAR
STARTCHAR 028A
ENCODING 650
SWIDTH 600 0
DWIDTH 24 0
BBX 21 22 2 -1
BITMAP
FF0FF8
FF0FF8
FF0FF8
0E0700
1C0380
3801C0
3000C0
7000E0
7000E0
F000F0
E00070
E00070
E00070
E000F0
F000F0
7000E0
7801E0
7C03E0
3E07C0
1FFF80
0FFF00
03FC00
ENDCHAR
STARTCHAR 028B
ENCODING 651
SWIDTH 600 0
DWIDTH 24 0
BBX 18 22 3 0
BITMAP
E03E00
E03F80
E03F80
E043C0
E003C0
E001C0
E001C0
E001C0
E001C0
E001C0
E001C0
E001C0
E001C0
E003C0
F003C0
F003C0
F003C0
780780
7C0F80
3FFF00
1FFE00
07F800
ENDCHAR
STARTCHAR 028C
ENCODING 652
SWIDTH 600 0
DWIDTH 24 0
BBX 20 22 2 -1
BITMAP
00F000
01F800
01F800
01FC00
039C00
039C00
079E00
070E00
070E00
0F0F00
0E0700
0E0700
1E0780
1C0380
1C03C0
3C03C0
3801C0
7801E0
7801E0
7000E0
F000F0
F000F0
ENDCHAR
STARTCHAR 028D
ENCODING 653
SWIDTH 600 0
DWIDTH 24 0
BBX 22 22 1 -1
BITMAP
1F01E0
1F03E0
1F03E0
1F03E0
3B8370
3B8770
3B8770
3B8770
39C770
39CE70
79CE78
79CE78
70FE38
70FC38
70FC38
70FC38
F0783C
F0783C
E0003C
E0001C
E0001C
E0001C
ENDCHAR
STARTCHAR 028E
ENCODING 654
SWIDTH 600 0
DWIDTH 24 0
BBX 20 32 2 -1
BITMAP
0003E0
000FE0
001FE0
003E00
003C00
007800
007800
007000
00F000
00E000
00E000
01F000
01F000
01B800
03B800
03B800
079C00
071C00
071E00
0F0E00
0E0F00
0E0700
1E0700
1C0780
1C0380
3C03C0
3803C0
7801C0
7801E0
7000E0
F000F0
F000F0
ENDCHAR
STARTCHAR 028F
ENCODING 655
SWIDTH 600 0
DWIDTH 24 0
BBX 20 22 2 0
BITMAP
F000F0
7801F0
7801E0
3C03C0
1E07C0
1E0780
0F0F00
070F00
079E00
03FC00
01FC00
01F800
00F000
00F000
00F000
00F000
00F000
00F000
00F000
00F000
00F000
00F000
ENDCHAR
STARTCHAR 0290
ENCODING 656
SWIDTH 600 0
DWIDTH 24 0
BBX 21 32 4 -10
BITMAP
FFFF00
FFFF00
FFFF00
000F00
001E00
003C00
003C00
007800
00F000
01E000
03C000
03C000
078000
0F0000
1E0000
1E0000
3C0000
780000
F00000
FFFF00
FFFF00
FFFF00
000700
000700
000700
000700
000700
000780
000780
0003F8
0003F8
0000F8
ENDCHAR
STARTCHAR 0291
ENCODING 657
SWIDTH 600 0
DWIDTH 24 0
BBX 20 26 3 -4
BITMAP
7FFF00
7FFF00
7FFF00
001E00
001C00
003C00
007800
007000
00F000
01E000
03C000
038000
078000
0F0780
0E1FE0
1E3FF0
3C78F0
38F070
78E0F0
FFFFE0
FFFFE0
FFFF80
038000
038000
070000
010000
ENDCHAR
STARTCHAR 0292
ENCODING 658
SWIDTH 600 0
DWIDTH 24 0
BBX 19 32 2 -10
BITMAP
7FFFC0
7FFFC0
7FFFC0
000780
000F00
000E00
001C00
003C00
007800
00F000
01E000
03C000
078000
0FF800
0FFE00
0FFF00
000F80
0003C0
0001C0
0001E0
0001E0
0001E0
0001E0
0001E0
0001E0
0001E0
0003C0
8007C0
F00F80
FFFF00
FFFE00
1FF000
ENDCHAR
STARTCHAR 0293
ENCODING 659
SWIDTH 600 0
DWIDTH 24 0
BBX 21 32 2 -10
BITMAP
7FFFC0
7FFFC0
7FFFC0
000780
000F00
001E00
003C00
003800
007800
00F000
01E000
03C000
078000
07F000
07FE00
07FF00
001F80
0007C0
0003C0
0001C0
0001E0
1FC1E0
7FF1E0
FFFDE0
F07FC0
E01FC0
E007C0
E007E0
F01FF0
7FFEF8
3FFC70
0FE020
ENDCHAR
STARTCHAR 0294
ENCODING 660
SWIDTH 600 0
DWIDTH 24 0
BBX 18 31 3 0
BITMAP
0FF000
7FFC00
FFFE00
F81F00
600780
400780
000380
0003C0
0003C0
0003C0
000380
000780
000780
000F00
001E00
007C00
03F800
03E000
038000
038000
038000
038000
038000
038000
038000
038000
038000
038000
038000
038000
038000
ENDCHAR
STARTCHAR 0295
ENCODING 661
SWIDTH 600 0
DWIDTH 24 0
BBX 18 31 3 0
BITMAP
03FC00
0FFF00
1FFFC0
3E07C0
780180
780080
700000
F00000
F00000
F00000
700000
780000
780000
3C0000
1E0000
0F8000
07F000
01F000
007000
007000
007000
007000
007000
007000
007000
007000
007000
007000
007000
007000
007000
ENDCHAR
STARTCHAR 0296
ENCODING 662
SWIDTH 600 0
DWIDTH 24 0
BBX 18 31 3 -10
BITMAP
038000
038000
038000
038000
038000
038000
038000
038000
038000
038000
038000
038000
038000
03E000
03F800
007C00
001E00
000F00
000780
000780
000380
0003C0
0003C0
0003C0
000380
400780
600780
F81F00
FFFE00
7FFC00
0FF000
ENDCHAR
STARTCHAR 0297
ENCODING 663
SWIDTH 600 0
DWIDTH 24 0
BBX 17 32 3 -10
BITMAP
00FF00
07FF80
0FFF80
1F0380
1E0000
3C0000
380000
780000
700000
700000
700000
F00000
F00000
F00000
F00000
F00000
F00000
F00000
F00000
F00000
F00000
700000
700000
700000
780000
380000
3C0000
3C0000
1F0180
0FFF80
07FF80
01FE00
ENDCHAR
STARTCHAR 0298
ENCODING 664
SWIDTH 600 0
DWIDTH 24 0
BBX 20 29 2 0
BITMAP
01F800
07FE00
1FFF80
1E0780
3C03C0
7801E0
7801E0
7000E0
F000F0
F000F0
F000F0
F000F0
F0F0F0
E0F0F0
E0F070
E0F0F0
F0F0F0
F000F0
F000F0
F000F0
F000F0
7000E0
7801E0
7801E0
3C03C0
1E0780
1FFF80
07FE00
01F800
ENDCHAR
STARTCHAR 0299
ENCODING 665
SWIDTH 600 0
DWIDTH 24 0
BBX 16 22 5 0
BITMAP
FFF0
FFFC
FFFE
F01E
F00F
F00F
F00F
F00E
F01E
FFFC
FFF0
FFFE
F01F
F00F
F007
F007
F007
F00F
F01F
FFFE
FFFC
FFF0
ENDCHAR
STARTCHAR 029A
ENCODING 666
SWIDTH 600 0
DWIDTH 24 0
BBX 20 22 2 0
BITMAP
07F800
1FFE00
3FFF00
780F80
7003C0
F001E0
7001E0
7000E0
7C00F0
1FE0F0
0FE0F0
3FE0F0
7800F0
F000F0
E000E0
E001E0
E001E0
F003C0
780FC0
7FFF80
1FFE00
07F800
ENDCHAR
STARTCHAR 029B
ENCODING 667
SWIDTH 600 0
DWIDTH 24 0
BBX 21 31 3 0
BITMAP
0000F8
0001F8
0001F8
0003C0
000380
000380
000380
000380
000380
01FF80
0FFF80
1FFF80
3E0300
7C0000
780000
F00000
F00000
E00000
E00000
E07F80
E07F80
E07F80
E00380
F00380
F00380
F00380
780380
3E0380
3FFF80
0FFF80
03FC00
ENDCHAR
STARTCHAR 029C
ENCODING 668
SWIDTH 600 0
DWIDTH 24 0
BBX 18 22 3 0
BITMAP
F003C0
F003C0
F003C0
F003C0
F003C0
F003C0
F003C0
F003C0
F003C0
FFFFC0
FFFFC0
FFFFC0
F003C0
F003C0
F003C0
F003C0
F003C0
F003C0
F003C0
F003C0
F003C0
F003C0
ENDCHAR
STARTCHAR 029D
ENCODING 669
SWIDTH 600 0
DWIDTH 24 0
BBX 15 41 4 -10
BITMAP
00E0
01F0
01F0
01F0
00E0
0000
0000
0000
0000
7FF0
7FF0
7FF0
00F0
00F0
00F0
00F0
00F0
00F0
00F0
00F0
00F0
00F0
00F0
00F0
00F0
00F0
00F0
00F0
00F0
00F0
00F0
1FFE
3FFE
7FFE
70F0
F0F0
F0F0
71E0
7FE0
3FC0
1F80
ENDCHAR
STARTCHAR 029E
ENCODING 670
SWIDTH 600 0
DWIDTH 24 0
BBX 19 31 1 -10
BITMAP
F801E0
7801E0
3C01E0
1E01E0
1F01E0
0F01E0
0781E0
03C1E0
03C3E0
01EFE0
00FFE0
007DE0
0079E0
00F9E0
01F1E0
01E1E0
03C1E0
0781E0
0F01E0
1E01E0
3C01E0
7C01E0
0001E0
0001E0
0001E0
0001E0
0001E0
0001E0
0001E0
0001E0
0001E0
ENDCHAR
STARTCHAR 029F
ENCODING 671
SWIDTH 600 0
DWIDTH 24 0
BBX 13 22 7 0
BITMAP
E000
E000
E000
E000
E000
E000
E000
E000
E000
E000
E000
E000
E000
E000
E000
E000
E000
E000
E000
FFF8
FFF8
FFF8
ENDCHAR
STARTCHAR 02A0
ENCODING 672
SWIDTH 600 0
DWIDTH 24 0
BBX 23 41 2 -10
BITMAP
00003E
00007E
0000FE
0000F0
0001E0
0001E0
0001E0
0001E0
0001E0
03F1E0
0FFDE0
1FFFE0
3E0FE0
7C03E0
7803E0
7801E0
7001E0
F001E0
F001E0
F001E0
F001E0
F001E0
F001E0
F001E0
7801E0
7803E0
7C03E0
3E0FE0
1FFFE0
0FFDE0
03F1E0
0001E0
0001E0
0001E0
0001E0
0001E0
0001E0
0001E0
0001E0
0001E0
0001E0
ENDCHAR
STARTCHAR 02A1
ENCODING 673
SWIDTH 600 0
DWIDTH 24 0
BBX 18 31 3 0
BITMAP
0FF000
7FFC00
FFFE00
F81F00
600780
000780
000380
0003C0
0003C0
0003C0
000380
000780
000780
000F00
001E00
007C00
03F800
03E000
038000
038000
038000
038000
7FFC00
7FFC00
7FFC00
038000
038000
038000
038000
038000
038000
ENDCHAR
STARTCHAR 02A2
ENCODING 674
SWIDTH 600 0
DWIDTH 24 0
BBX 18 31 3 0
BITMAP
03FC00
0FFF00
1FFFC0
3E07C0
780180
780000
700000
F00000
F00000
F00000
700000
780000
780000
3C0000
1E0000
0F8000
07F000
01F000
007000
007000
007000
007000
0FFF80
0FFF80
0FFF80
007000
007000
007000
007000
007000
007000
ENDCHAR
STARTCHAR 02A3
ENCODING 675
SWIDTH 600 0
DWIDTH 24 0
BBX 23 31 1 0
BITMAP
007000
007000
007000
007000
007000
007000
007000
007000
007000
1E7FFC
3FFFFC
7FFFFC
78F01C
F0F03C
E07038
E07078
E07070
E07070
E070F0
E070E0
E071E0
E071C0
E071C0
E073C0
E07380
E07780
F0F700
78F700
7FFFFE
3F3FFE
1E3FFE
ENDCHAR
STARTCHAR 02A4
ENCODING 676
SWIDTH 600 0
DWIDTH 24 0
BBX 22 41 1 -10
BITMAP
007000
007000
007000
007000
007000
007000
007000
007000
007000
1E7FF8
3F7FF8
3FFFF8
79F038
70F078
707070
E070F0
E070E0
E071E0
E071C0
E071C0
E07380
E07380
E073E0
E073F0
E07078
707038
70F03C
78F01C
7FF01C
3F701C
1E701C
00001C
00001C
00001C
00003C
000038
000038
001078
001FF0
001FE0
000F80
ENDCHAR
STARTCHAR 02A5
ENCODING 677
SWIDTH 1200 0
DWIDTH 48 0
BBX 43 34 3 -3
BITMAP
000078000000
000078000000
000078000000
000078000000
000078000000
000078000000
000078000000
000078000000
000078000000
03FC7FFFFE00
0FFF3FFFFE00
1FFFBFFFFE00
3E03F8003C00
7C00F8003C00
7800F8007800
78007800F000
F0007801E000
F0007803C000
F00078078000
F00078070000
F000380F0000
F000781E0E00
F000783C7F80
F0007878FFC0
700078F1E1E0
780078E1C1E0
7C00F9E381E0
3E01FBC381E0
1FFFBFFFFFC0
0FFF3FFFFF80
03FC3FFFFE00
0000000E0000
0000001C0000
0000000C0000
ENDCHAR
STARTCHAR 02A6
ENCODING 678
SWIDTH 600 0
DWIDTH 24 0
BBX 23 27 0 0
BITMAP
0C0000
0C0000
0C0000
1C0000
1C0000
3FFFF0
FFFFFC
FFFFFC
1C3C1C
1C3800
1C3800
1C3800
1C3C00
1C3E00
1C1F80
1C0FE0
1C03F8
1C00FC
1C003C
1C001E
1C001E
1C001E
1E001E
1F003C
0FFFFC
0FFFF8
03FFE0
ENDCHAR
STARTCHAR 02A7
ENCODING 679
SWIDTH 600 0
DWIDTH 24 0
BBX 23 41 1 -10
BITMAP
00003E
0000FE
0001FE
0001E0
0603C0
0E03C0
0E03C0
0E03C0
0E03C0
3FFFC0
FFFFC0
FFFFC0
1E03C0
1E03C0
1E03C0
1E03C0
1E03C0
1E03C0
1E03C0
1E03C0
1E03C0
1E03C0
1E03C0
1E03C0
1E03C0
1E03C0
0E03C0
0F83C0
0FFFC0
07FFC0
01FFC0
0003C0
0003C0
0003C0
0003C0
0003C0
0003C0
000780
007F80
007F00
007E00
ENDCHAR
STARTCHAR 02A8
ENCODING 680
SWIDTH 1200 0
DWIDTH 48 0
BBX 41 28 2 0
BITMAP
01C000000000
01C000000000
01C000000000
03C000000000
03C000000000
03C000000000
7FFFC003FC00
FFFFC01FFF00
FFFFC03FFF00
03C0007C0600
03C000F00000
03C001E00000
03C001E00000
03C001C00000
03C001C00000
03C003C00000
03C003C1F800
03C003C7FE00
03C003CFFF00
03C001FF0F80
03C001FC0780
03C001F80380
03C001F00380
01E007F80780
01F81FFE0F80
00FFFF3FFF00
007FFE1FFE00
001FF007F800
ENDCHAR
STARTCHAR 02A9
ENCODING 681
SWIDTH 600 0
DWIDTH 24 0
BBX 23 41 -1 -10
BITMAP
03F000
07F000
0FF000
1E1000
1E0000
1C0000
1C0000
1C0000
1C0000
3FF8F0
FFFBFC
FFFBFC
1C3E1E
1C3C0E
1C3C0E
1C3C0E
1C3C0E
1C3C0E
1C3C0E
1C3C0E
1C3C0E
1C3C0E
1C3C0E
1C3C0E
1C3C0E
1C3C0E
1C3C0E
1C3C0E
1C3C0E
1C3C0E
1C3C0E
00000E
00000E
00000E
00000E
00000E
00000E
00001E
00007E
00007C
000078
ENDCHAR
STARTCHAR 02AA
ENCODING 682
SWIDTH 600 0
DWIDTH 24 0
BBX 19 31 3 0
BITMAP
E00000
E00000
E00000
E00000
E00000
E00000
E00000
E00000
E00000
E07F80
E1FFE0
E3FFE0
E3C0C0
E38000
E38000
E38000
E3C000
E3F000
E1FC00
E07F00
E01F80
E007C0
E001E0
E000E0
E000E0
E000E0
F000E0
FE03E0
FFFFC0
FFFF80
E3FE00
ENDCHAR
STARTCHAR 02AB
ENCODING 683
SWIDTH 600 0
DWIDTH 24 0
BBX 19 31 3 0
BITMAP
F00000
F00000
F00000
F00000
F00000
F00000
F00000
F00000
F00000
FFFFE0
FFFFE0
FFFFE0
F003C0
F00380
F00780
F00F00
F00E00
F01E00
F03C00
F03800
F07800
F0F000
F0F000
F1E000
F3C000
F3C000
F78000
FF0000
FFFFE0
FFFFE0
FFFFE0
ENDCHAR
STARTCHAR 02AC
ENCODING 684
SWIDTH 600 0
DWIDTH 24 0
BBX 20 29 2 0
BITMAP
E0F070
E0F070
60F060
61F0E0
71F8E0
7198E0
3398C0
3B9DC0
3B0DC0
1F0D80
1F0F80
1E0F80
1E0780
0E0700
000000
E06070
E0F070
E0F070
60F060
71F8E0
71B8E0
3198C0
339DC0
3B1DC0
3B0DC0
1F0F80
1E0F80
1E0780
0E0700
ENDCHAR
STARTCHAR 02AD
ENCODING 685
SWIDTH 600 0
DWIDTH 24 0
BBX 17 29 3 0
BITMAP
FFFF80
FFFF80
FFFF80
F00380
F00380
F00380
F00380
F00380
F00380
000000
000000
000000
000000
000000
000000
000000
000000
000000
000000
000000
FFFF80
FFFF80
FFFF80
F00380
F00380
F00380
F00380
F00380
F00380
ENDCHAR
STARTCHAR 02AE
ENCODING 686
SWIDTH 600 0
DWIDTH 24 0
BBX 22 31 -1 -9
BITMAP
F8003C
FC003C
FE003C
1E003C
0F003C
0F003C
0F003C
0F003C
0F003C
0F003C
0F003C
0F003C
0F003C
0F003C
0F003C
0F007C
0F007C
0F80FC
07C1FC
07FFBC
03FF3C
00FC3C
00003C
00003C
00003C
00003C
00003C
00003C
00003C
00003C
00003C
ENDCHAR
STARTCHAR 02AF
ENCODING 687
SWIDTH 600 0
DWIDTH 24 0
BBX 26 32 -1 -10
BITMAP
F8003C00
FC003C00
FE003C00
1E003C00
0F003C00
0F003C00
0F003C00
0F003C00
0F003C00
0F003C00
0F003C00
0F003C00
0F003C00
0F003C00
0F003C00
0F007C00
0F007C00
0F80FC00
07C1FC00
07FFBC00
03FF3C00
00FC3C00
00003C00
00003C00
00003C00
00003C00
00003C00
00003C00
00001E00
00001FC0
00000FC0
000007C0
ENDCHAR
STARTCHAR 02B0
ENCODING 688
SWIDTH 600 0
DWIDTH 24 0
BBX 12 19 6 11
BITMAP
E000
E000
E000
E000
E000
E000
EFC0
DFE0
F060
E070
E070
E070
E070
E070
E070
E070
E070
E070
E070
ENDCHAR
STARTCHAR 02B1
ENCODING 689
SWIDTH 600 0
DWIDTH 24 0
BBX 12 19 6 11
BITMAP
3000
7800
E000
E000
E000
E000
EFC0
DFE0
F060
E070
E070
E070
E070
E070
E070
E070
E070
E070
E070
ENDCHAR
STARTCHAR 02B2
ENCODING 690
SWIDTH 600 0
DWIDTH 24 0
BBX 9 25 7 5
BITMAP
0100
0380
0380
0000
0000
0000
3F80
1F80
0180
0180
0180
0180
0180
0180
0180
0180
0180
0180
0180
0180
0180
0180
0380
FF00
FE00
ENDCHAR
STARTCHAR 02B3
ENCODING 691
SWIDTH 600 0
DWIDTH 24 0
BBX 14 13 5 11
BITMAP
7EFC
3FF8
0780
0700
0600
0600
0600
0600
0600
0600
0600
7FE0
FFE0
ENDCHAR
STARTCHAR 02B4
ENCODING 692
SWIDTH 600 0
DWIDTH 24 0
BBX 14 14 5 10
BITMAP
1FFC
1FFC
0180
0180
0180
0180
0180
0180
0180
0380
0380
4780
7DF8
F1F8
ENDCHAR
STARTCHAR 02B5
ENCODING 693
SWIDTH 600 0
DWIDTH 24 0
BBX 13 19 6 5
BITMAP
3FF8
1FF0
0380
0380
0380
0380
0380
0380
0380
0780
0F80
7F80
F380
0380
0380
0380
0380
01F0
00F0
ENDCHAR
STARTCHAR 02B6
ENCODING 694
SWIDTH 600 0
DWIDTH 24 0
BBX 12 14 6 10
BITMAP
E070
E0E0
E1C0
E180
E380
E300
FF80
FFC0
E0E0
E060
E0E0
E1C0
FFC0
FE00
ENDCHAR
STARTCHAR 02B7
ENCODING 695
SWIDTH 600 0
DWIDTH 24 0
BBX 14 13 5 11
BITMAP
C00C
C00C
C30C
C78C
E79C
6798
6CD8
6CD8
6CD8
6CD8
7878
3870
3870
ENDCHAR
STARTCHAR 02B8
ENCODING 696
SWIDTH 600 0
DWIDTH 24 0
BBX 14 19 5 5
BITMAP
E01C
6018
3038
3030
3830
1860
1C60
0CE0
0CC0
06C0
0780
0380
0380
0300
0300
0600
0E00
7C00
7800
ENDCHAR
STARTCHAR 02B9
ENCODING 697
SWIDTH 600 0
DWIDTH 24 0
BBX 7 10 8 19
BITMAP
3E
3E
3C
3C
3C
78
78
70
70
F0
ENDCHAR
STARTCHAR 02BA
ENCODING 698
SWIDTH 600 0
DWIDTH 24 0
BBX 14 10 5 19
BITMAP
3E7C
3C78
3C78
3C78
38F0
78F0
78F0
70E0
70E0
E1C0
ENDCHAR
STARTCHAR 02BB
ENCODING 699
SWIDTH 600 0
DWIDTH 24 0
BBX 6 10 9 19
BITMAP
1C
1C
38
38
38
78
78
70
F0
F0
ENDCHAR
STARTCHAR 02BC
ENCODING 700
SWIDTH 600 0
DWIDTH 24 0
BBX 7 10 8 19
BITMAP
3E
3E
3C
3C
3C
78
78
70
70
F0
ENDCHAR
STARTCHAR 02BD
ENCODING 701
SWIDTH 600 0
DWIDTH 24 0
BBX 6 10 9 19
BITMAP
F0
F0
70
78
78
38
38
38
1C
1C
ENDCHAR
STARTCHAR 02BE
ENCODING 702
SWIDTH 600 0
DWIDTH 24 0
BBX 5 8 10 23
BITMAP
E0
F0
38
18
18
38
F0
E0
ENDCHAR
STARTCHAR 02BF
ENCODING 703
SWIDTH 600 0
DWIDTH 24 0
BBX 4 8 10 23
BITMAP
30
70
E0
C0
C0
E0
70
30
ENDCHAR
STARTCHAR 02C0
ENCODING 704
SWIDTH 600 0
DWIDTH 24 0
BBX 10 12 7 19
BITMAP
7F00
FF80
C3C0
01C0
01C0
01C0
01C0
0380
1F00
1C00
1800
1800
ENDCHAR
STARTCHAR 02C1
ENCODING 705
SWIDTH 600 0
DWIDTH 24 0
BBX 10 12 7 19
BITMAP
3F80
7FC0
F0C0
E000
C000
E000
E000
7000
3E00
0E00
0600
0600
ENDCHAR
STARTCHAR 02C2
ENCODING 706
SWIDTH 600 0
DWIDTH 24 0
BBX 8 10 8 21
BITMAP
01
07
1C
30
E0
E0
38
0E
03
01
ENDCHAR
STARTCHAR 02C3
ENCODING 707
SWIDTH 600 0
DWIDTH 24 0
BBX 8 10 8 21
BITMAP
80
E0
38
0C
07
07
1C
70
C0
80
ENDCHAR
STARTCHAR 02C4
ENCODING 708
SWIDTH 600 0
DWIDTH 24 0
BBX 10 10 7 22
BITMAP
0C00
0C00
0C00
1E00
1200
3300
2100
6180
4080
C0C0
ENDCHAR
STARTCHAR 02C5
ENCODING 709
SWIDTH 600 0
DWIDTH 24 0
BBX 10 10 7 21
BITMAP
C0C0
4080
6180
2100
3300
1200
1E00
0C00
0C00
0C00
ENDCHAR
STARTCHAR 02C6
ENCODING 710
SWIDTH 600 0
DWIDTH 24 0
BBX 14 7 5 24
BITMAP
0780
0F80
0FC0
1FE0
3CF0
7078
E01C
ENDCHAR
STARTCHAR 02C7
ENCODING 711
SWIDTH 600 0
DWIDTH 24 0
BBX 14 7 5 24
BITMAP
E01C
7038
3870
3CE0
1FE0
0FC0
0780
ENDCHAR
STARTCHAR 02C8
ENCODING 712
SWIDTH 600 0
DWIDTH 24 0
BBX 4 11 10 20
BITMAP
F0
F0
F0
F0
F0
F0
F0
F0
F0
F0
F0
ENDCHAR
STARTCHAR 02C9
ENCODING 713
SWIDTH 600 0
DWIDTH 24 0
BBX 12 3 6 25
BITMAP
FFF0
FFF0
FFF0
ENDCHAR
STARTCHAR 02CA
ENCODING 714
SWIDTH 600 0
DWIDTH 24 0
BBX 8 7 8 24
BITMAP
0F
1F
1E
3C
78
70
E0
ENDCHAR
STARTCHAR 02CB
ENCODING 715
SWIDTH 600 0
DWIDTH 24 0
BBX 8 7 8 24
BITMAP
F0
F8
78
3C
1E
0E
07
ENDCHAR
STARTCHAR 02CC
ENCODING 716
SWIDTH 600 0
DWIDTH 24 0
BBX 4 11 10 -8
BITMAP
F0
F0
F0
F0
F0
F0
F0
F0
F0
F0
F0
ENDCHAR
STARTCHAR 02CD
ENCODING 717
SWIDTH 600 0
DWIDTH 24 0
BBX 12 3 6 -6
BITMAP
FFF0
FFF0
FFF0
ENDCHAR
STARTCHAR 02CE
ENCODING 718
SWIDTH 600 0
DWIDTH 24 0
BBX 8 7 9 -8
BITMAP
F0
F8
78
3C
1E
0E
07
ENDCHAR
STARTCHAR 02CF
ENCODING 719
SWIDTH 600 0
DWIDTH 24 0
BBX 8 7 8 -8
BITMAP
0F
0F
1E
1C
38
70
E0
ENDCHAR
STARTCHAR 02D0
ENCODING 720
SWIDTH 600 0
DWIDTH 24 0
BBX 8 22 8 0
BITMAP
FF
7E
3C
18
18
08
00
00
00
00
00
00
00
00
00
00
10
18
18
3C
7E
FF
ENDCHAR
STARTCHAR 02D1
ENCODING 721
SWIDTH 600 0
DWIDTH 24 0
BBX 8 6 8 16
BITMAP
FF
7E
3C
18
18
08
ENDCHAR
STARTCHAR 02D2
ENCODING 722
SWIDTH 600 0
DWIDTH 24 0
BBX 5 8 10 8
BITMAP
E0
F0
38
18
18
38
F0
E0
ENDCHAR
STARTCHAR 02D3
ENCODING 723
SWIDTH 600 0
DWIDTH 24 0
BBX 4 8 10 8
BITMAP
30
70
E0
C0
C0
E0
70
30
ENDCHAR
STARTCHAR 02D4
ENCODING 724
SWIDTH 600 0
DWIDTH 24 0
BBX 8 7 8 10
BITMAP
18
18
18
18
18
FF
FF
ENDCHAR
STARTCHAR 02D5
ENCODING 725
SWIDTH 600 0
DWIDTH 24 0
BBX 8 7 8 10
BITMAP
FF
FF
FF
18
18
18
18
ENDCHAR
STARTCHAR 02D6
ENCODING 726
SWIDTH 600 0
DWIDTH 24 0
BBX 8 8 8 9
BITMAP
18
18
FF
FF
FF
18
18
18
ENDCHAR
STARTCHAR 02D7
ENCODING 727
SWIDTH 600 0
DWIDTH 24 0
BBX 12 3 6 11
BITMAP
FFF0
FFF0
FFF0
ENDCHAR
STARTCHAR 02D8
ENCODING 728
SWIDTH 600 0
DWIDTH 24 0
BBX 12 6 6 24
BITMAP
C030
E070
F0F0
7FE0
3FC0
1F80
ENDCHAR
STARTCHAR 02D9
ENCODING 729
SWIDTH 600 0
DWIDTH 24 0
BBX 6 5 9 25
BITMAP
78
78
FC
78
78
ENDCHAR
STARTCHAR 02DA
ENCODING 730
SWIDTH 600 0
DWIDTH 24 0
BBX 8 8 8 24
BITMAP
7C
FF
C7
C3
C3
E7
FF
3C
ENDCHAR
STARTCHAR 02DB
ENCODING 731
SWIDTH 600 0
DWIDTH 24 0
BBX 6 10 9 -9
BITMAP
18
38
70
E0
E0
E0
E0
FC
FC
3C
ENDCHAR
STARTCHAR 02DC
ENCODING 732
SWIDTH 600 0
DWIDTH 24 0
BBX 14 5 5 24
BITMAP
3C0C
7F1C
FFFC
E3F8
C0F0
ENDCHAR
STARTCHAR 02DD
ENCODING 733
SWIDTH 600 0
DWIDTH 24 0
BBX 15 6 6 24
BITMAP
1F3E
1E3C
3C78
3870
70E0
E1C0
ENDCHAR
STARTCHAR 02DE
ENCODING 734
SWIDTH 600 0
DWIDTH 24 0
BBX 18 9 -4 8
BITMAP
002000
01E000
1FE000
FFF000
FEF000
E07880
007FC0
003FC0
001F00
ENDCHAR
STARTCHAR 02DF
ENCODING 735
SWIDTH 600 0
DWIDTH 24 0
BBX 8 8 8 23
BITMAP
42
E7
7E
3C
3C
7E
E7
42
ENDCHAR
STARTCHAR 02E0
ENCODING 736
SWIDTH 600 0
DWIDTH 24 0
BBX 15 19 4 5
BITMAP
E006
700E
300C
381C
1838
1C30
0C30
0660
0660
03C0
03C0
03C0
03C0
07E0
0660
0660
0660
07E0
03C0
ENDCHAR
STARTCHAR 02E1
ENCODING 737
SWIDTH 600 0
DWIDTH 24 0
BBX 12 19 6 11
BITMAP
FE00
FE00
0600
0600
0600
0600
0600
0600
0600
0600
0600
0600
0600
0600
0600
0600
0600
7FF0
FFF0
ENDCHAR
STARTCHAR 02E2
ENCODING 738
SWIDTH 600 0
DWIDTH 24 0
BBX 10 13 7 11
BITMAP
3FC0
7FC0
E000
C000
E000
7C00
1F00
03C0
01C0
00C0
81C0
FF80
7F00
ENDCHAR
STARTCHAR 02E3
ENCODING 739
SWIDTH 600 0
DWIDTH 24 0
BBX 14 13 5 11
BITMAP
7038
3870
1860
1CE0
0FC0
0780
0780
0780
0CC0
1CE0
3870
3030
E01C
ENDCHAR
STARTCHAR 02E4
ENCODING 740
SWIDTH 600 0
DWIDTH 24 0
BBX 12 19 6 11
BITMAP
0600
3FE0
70F0
E020
E000
C000
E000
6000
7000
3800
0F00
0300
0300
0300
0300
0300
0300
0300
0300
ENDCHAR
STARTCHAR 02E5
ENCODING 741
SWIDTH 600 0
DWIDTH 24 0
BBX 11 28 5 0
BITMAP
FFE0
FFE0
FFE0
00E0
00E0
00E0
00E0
00E0
00E0
00E0
00E0
00E0
00E0
00E0
00E0
00E0
00E0
00E0
00E0
00E0
00E0
00E0
00E0
00E0
00E0
00E0
00E0
00E0
ENDCHAR
STARTCHAR 02E6
ENCODING 742
SWIDTH 600 0
DWIDTH 24 0
BBX 11 28 5 0
BITMAP
00E0
00E0
00E0
00E0
00E0
00E0
00E0
FFE0
FFE0
FFE0
00E0
00E0
00E0
00E0
00E0
00E0
00E0
00E0
00E0
00E0
00E0
00E0
00E0
00E0
00E0
00E0
00E0
00E0
ENDCHAR
STARTCHAR 02E7
ENCODING 743
SWIDTH 600 0
DWIDTH 24 0
BBX 11 28 5 0
BITMAP
00E0
00E0
00E0
00E0
00E0
00E0
00E0
00E0
00E0
00E0
00E0
00E0
FFE0
FFE0
FFE0
00E0
00E0
00E0
00E0
00E0
00E0
00E0
00E0
00E0
00E0
00E0
00E0
00E0
ENDCHAR
STARTCHAR 02E8
ENCODING 744
SWIDTH 600 0
DWIDTH 24 0
BBX 11 28 5 0
BITMAP
00E0
00E0
00E0
00E0
00E0
00E0
00E0
00E0
00E0
00E0
00E0
00E0
00E0
00E0
00E0
00E0
00E0
00E0
FFE0
FFE0
FFE0
00E0
00E0
00E0
00E0
00E0
00E0
00E0
ENDCHAR
STARTCHAR 02E9
ENCODING 745
SWIDTH 600 0
DWIDTH 24 0
BBX 11 28 5 0
BITMAP
00E0
00E0
00E0
00E0
00E0
00E0
00E0
00E0
00E0
00E0
00E0
00E0
00E0
00E0
00E0
00E0
00E0
00E0
00E0
00E0
00E0
00E0
00E0
00E0
00E0
FFE0
FFE0
FFE0
ENDCHAR
STARTCHAR 02EA
ENCODING 746
SWIDTH 600 0
DWIDTH 24 0
BBX 11 15 8 7
BITMAP
E000
E000
E000
E000
E000
E000
E000
E000
E000
E000
E000
E000
FFE0
FFE0
FFE0
ENDCHAR
STARTCHAR 02EB
ENCODING 747
SWIDTH 600 0
DWIDTH 24 0
BBX 11 15 8 7
BITMAP
E000
E000
E000
E000
E000
E000
FFE0
FFE0
FFE0
E000
E000
E000
E000
E000
E000
ENDCHAR
STARTCHAR 02EC
ENCODING 748
SWIDTH 600 0
DWIDTH 24 0
BBX 14 7 5 -8
BITMAP
E01C
7038
3870
3CE0
1FE0
0FC0
0780
ENDCHAR
STARTCHAR 02ED
ENCODING 749
SWIDTH 600 0
DWIDTH 24 0
BBX 24 8 0 22
BITMAP
FFFFFF
FFFFFF
FFFFFF
000000
000000
FFFFFF
FFFFFF
FFFFFF
ENDCHAR
STARTCHAR 02EE
ENCODING 750
SWIDTH 600 0
DWIDTH 24 0
BBX 13 10 6 18
BITMAP
3C78
7878
7870
78F0
70F0
70E0
F0E0
E0E0
E1C0
C1C0
ENDCHAR
STARTCHAR 02EF
ENCODING 751
SWIDTH 600 0
DWIDTH 24 0
BBX 14 9 5 -10
BITMAP
F03C
7038
3870
1CE0
1CE0
0FC0
0FC0
0780
0300
ENDCHAR
STARTCHAR 02F0
ENCODING 752
SWIDTH 600 0
DWIDTH 24 0
BBX 14 9 5 -10
BITMAP
0300
0780
0FC0
0FC0
1CE0
1CE0
3870
7038
F03C
ENDCHAR
STARTCHAR 02F1
ENCODING 753
SWIDTH 600 0
DWIDTH 24 0
BBX 10 11 7 -10
BITMAP
0040
01C0
0FC0
3F00
FC00
F000
FE00
1F80
07C0
01C0
0040
ENDCHAR
STARTCHAR 02F2
ENCODING 754
SWIDTH 600 0
DWIDTH 24 0
BBX 10 11 7 -10
BITMAP
8000
E000
FC00
3F00
0FC0
03C0
1FC0
7E00
F800
E000
8000
ENDCHAR
STARTCHAR 02F3
ENCODING 755
SWIDTH 600 0
DWIDTH 24 0
BBX 8 8 8 -11
BITMAP
7C
FF
C7
C3
C3
E7
FF
3C
ENDCHAR
STARTCHAR 02F4
ENCODING 756
SWIDTH 600 0
DWIDTH 24 0
BBX 8 7 8 11
BITMAP
F0
F8
78
3C
1E
0E
07
ENDCHAR
STARTCHAR 02F5
ENCODING 757
SWIDTH 600 0
DWIDTH 24 0
BBX 14 6 5 11
BITMAP
F1E0
70E0
78F0
3C78
1C38
0E1C
ENDCHAR
STARTCHAR 02F6
ENCODING 758
SWIDTH 600 0
DWIDTH 24 0
BBX 14 6 5 11
BITMAP
1E3C
3C78
3878
78F0
70E0
C180
ENDCHAR
STARTCHAR 02F7
ENCODING 759
SWIDTH 600 0
DWIDTH 24 0
BBX 14 5 5 -8
BITMAP
3C0C
7F1C
FFFC
E3F8
C0F0
ENDCHAR
STARTCHAR 02F8
ENCODING 760
SWIDTH 600 0
DWIDTH 24 0
BBX 4 22 10 8
BITMAP
F0
F0
F0
F0
F0
00
00
00
00
00
00
00
00
00
00
00
00
F0
F0
F0
F0
F0
ENDCHAR
STARTCHAR 02F9
ENCODING 761
SWIDTH 600 0
DWIDTH 24 0
BBX 8 10 8 17
BITMAP
FF
FF
C0
C0
C0
C0
C0
C0
C0
C0
ENDCHAR
STARTCHAR 02FA
ENCODING 762
SWIDTH 600 0
DWIDTH 24 0
BBX 10 10 7 17
BITMAP
FFC0
FFC0
01C0
01C0
01C0
01C0
01C0
01C0
01C0
01C0
ENDCHAR
STARTCHAR 02FB
ENCODING 763
SWIDTH 600 0
DWIDTH 24 0
BBX 8 10 8 0
BITMAP
C0
C0
C0
C0
C0
C0
C0
C0
FF
FF
ENDCHAR
STARTCHAR 02FC
ENCODING 764
SWIDTH 600 0
DWIDTH 24 0
BBX 8 10 8 0
BITMAP
03
03
03
03
03
03
03
03
FF
FF
ENDCHAR
STARTCHAR 02FD
ENCODING 765
SWIDTH 600 0
DWIDTH 24 0
BBX 18 7 3 -8
BITMAP
C000C0
C000C0
C000C0
C000C0
FFFFC0
FFFFC0
FFFFC0
ENDCHAR
STARTCHAR 02FE
ENCODING 766
SWIDTH 600 0
DWIDTH 24 0
BBX 18 7 3 -8
BITMAP
C00000
C00000
C00000
C00000
FFFFC0
FFFFC0
FFFFC0
ENDCHAR
STARTCHAR 02FF
ENCODING 767
SWIDTH 600 0
DWIDTH 24 0
BBX 18 13 3 -9
BITMAP
004000
01C000
07C000
1F0000
3C0000
FFFFC0
FFFFC0
FFFFC0
7C0000
1F0000
078000
01C000
004000
ENDCHAR
STARTCHAR 0300
ENCODING 768
SWIDTH 0 0
DWIDTH 0 0
BBX 8 7 -5 24
BITMAP
F0
F0
78
3C
1C
0E
07
ENDCHAR
STARTCHAR 0301
ENCODING 769
SWIDTH 0 0
DWIDTH 0 0
BBX 8 7 -2 24
BITMAP
0F
0F
1E
3C
38
70
E0
ENDCHAR
STARTCHAR 0302
ENCODING 770
SWIDTH 0 0
DWIDTH 0 0
BBX 14 7 -7 24
BITMAP
0780
0F80
0FC0
1FE0
3CF0
7078
E01C
ENDCHAR
STARTCHAR 0303
ENCODING 771
SWIDTH 0 0
DWIDTH 0 0
BBX 14 5 -7 24
BITMAP
3C0C
7F1C
FFFC
E3F8
C0F0
ENDCHAR
STARTCHAR 0304
ENCODING 772
SWIDTH 0 0
DWIDTH 0 0
BBX 12 3 -6 25
BITMAP
FFF0
FFF0
FFF0
ENDCHAR
STARTCHAR 0305
ENCODING 773
SWIDTH 0 0
DWIDTH 0 0
BBX 16 3 -8 31
BITMAP
FFFF
FFFF
FFFF
ENDCHAR
STARTCHAR 0306
ENCODING 774
SWIDTH 0 0
DWIDTH 0 0
BBX 12 6 -6 24
BITMAP
C030
C070
F0F0
7FE0
7FC0
1F80
ENDCHAR
STARTCHAR 0307
ENCODING 775
SWIDTH 0 0
DWIDTH 0 0
BBX 5 5 -3 25
BITMAP
78
78
F8
78
78
ENDCHAR
STARTCHAR 0308
ENCODING 776
SWIDTH 0 0
DWIDTH 0 0
BBX 14 5 -7 25
BITMAP
7038
F07C
F87C
F03C
7038
ENDCHAR
STARTCHAR 0309
ENCODING 777
SWIDTH 0 0
DWIDTH 0 0
BBX 8 9 -3 24
BITMAP
FC
FE
0E
07
0E
3E
38
30
30
ENDCHAR
STARTCHAR 030A
ENCODING 778
SWIDTH 0 0
DWIDTH 0 0
BBX 8 8 -4 24
BITMAP
7C
FF
C7
C3
C3
E7
FF
3C
ENDCHAR
STARTCHAR 030B
ENCODING 779
SWIDTH 0 0
DWIDTH 0 0
BBX 14 6 -6 24
BITMAP
1E3C
3C78
3870
70E0
E1C0
C180
ENDCHAR
STARTCHAR 030C
ENCODING 780
SWIDTH 0 0
DWIDTH 0 0
BBX 14 7 -7 24
BITMAP
E01C
7038
3870
3CE0
1FE0
0FC0
0780
ENDCHAR
STARTCHAR 030D
ENCODING 781
SWIDTH 0 0
DWIDTH 0 0
BBX 4 7 -2 24
BITMAP
F0
F0
F0
F0
F0
F0
F0
ENDCHAR
STARTCHAR 030E
ENCODING 782
SWIDTH 0 0
DWIDTH 0 0
BBX 10 7 -5 24
BITMAP
E1C0
E1C0
E1C0
E1C0
E1C0
E1C0
E1C0
ENDCHAR
STARTCHAR 030F
ENCODING 783
SWIDTH 0 0
DWIDTH 0 0
BBX 14 6 -8 24
BITMAP
F1E0
F1E0
78F0
3878
1C38
0E1C
ENDCHAR
STARTCHAR 0310
ENCODING 784
SWIDTH 0 0
DWIDTH 0 0
BBX 12 10 -6 24
BITMAP
0600
0F00
0F00
0F00
0600
C030
E070
7FE0
7FC0
1F80
ENDCHAR
STARTCHAR 0311
ENCODING 785
SWIDTH 0 0
DWIDTH 0 0
BBX 12 6 -6 25
BITMAP
1F80
7FC0
7FE0
F0F0
C070
C030
ENDCHAR
STARTCHAR 0312
ENCODING 786
SWIDTH 0 0
DWIDTH 0 0
BBX 6 10 -3 19
BITMAP
1C
1C
38
38
38
78
78
70
F0
F0
ENDCHAR
STARTCHAR 0313
ENCODING 787
SWIDTH 0 0
DWIDTH 0 0
BBX 6 10 -3 19
BITMAP
3C
3C
7C
78
78
78
70
F0
E0
E0
ENDCHAR
STARTCHAR 0314
ENCODING 788
SWIDTH 0 0
DWIDTH 0 0
BBX 6 10 -3 19
BITMAP
F0
F0
70
78
78
38
38
38
1C
1C
ENDCHAR
STARTCHAR 0315
ENCODING 789
SWIDTH 0 0
DWIDTH 0 0
BBX 6 10 -2 19
BITMAP
3C
3C
3C
7C
78
78
70
70
F0
E0
ENDCHAR
STARTCHAR 0316
ENCODING 790
SWIDTH 0 0
DWIDTH 0 0
BBX 8 7 -4 -8
BITMAP
F0
F8
78
3C
1E
0E
07
ENDCHAR
STARTCHAR 0317
ENCODING 791
SWIDTH 0 0
DWIDTH 0 0
BBX 8 7 -4 -8
BITMAP
0F
1F
1E
3C
78
70
E0
ENDCHAR
STARTCHAR 0318
ENCODING 792
SWIDTH 0 0
DWIDTH 0 0
BBX 8 8 -4 -9
BITMAP
07
07
07
FF
FF
FF
07
07
ENDCHAR
STARTCHAR 0319
ENCODING 793
SWIDTH 0 0
DWIDTH 0 0
BBX 8 8 -4 -9
BITMAP
E0
E0
E0
FF
FF
FF
E0
E0
ENDCHAR
STARTCHAR 031A
ENCODING 794
SWIDTH 0 0
DWIDTH 0 0
BBX 12 10 -6 30
BITMAP
FFF0
FFF0
FFF0
0070
0070
0070
0070
0070
0070
0070
ENDCHAR
STARTCHAR 031B
ENCODING 795
SWIDTH 0 0
DWIDTH 0 0
BBX 6 11 -3 19
BITMAP
08
38
3C
1C
1C
1C
1C
38
70
E0
40
ENDCHAR
STARTCHAR 031C
ENCODING 796
SWIDTH 0 0
DWIDTH 0 0
BBX 4 8 -2 -9
BITMAP
30
70
E0
C0
C0
E0
70
30
ENDCHAR
STARTCHAR 031D
ENCODING 797
SWIDTH 0 0
DWIDTH 0 0
BBX 8 7 -4 -8
BITMAP
18
18
18
18
18
FF
FF
ENDCHAR
STARTCHAR 031E
ENCODING 798
SWIDTH 0 0
DWIDTH 0 0
BBX 8 7 -4 -8
BITMAP
FF
FF
FF
18
18
18
18
ENDCHAR
STARTCHAR 031F
ENCODING 799
SWIDTH 0 0
DWIDTH 0 0
BBX 8 8 -4 -9
BITMAP
18
18
FF
FF
FF
18
18
18
ENDCHAR
STARTCHAR 0320
ENCODING 800
SWIDTH 0 0
DWIDTH 0 0
BBX 12 3 -6 -7
BITMAP
FFF0
FFF0
FFF0
ENDCHAR
STARTCHAR 0321
ENCODING 801
SWIDTH 0 0
DWIDTH 0 0
BBX 8 12 -4 -10
BITMAP
0F
0F
0F
0F
0F
0F
0F
0E
0E
FE
FC
F8
ENDCHAR
STARTCHAR 0322
ENCODING 802
SWIDTH 0 0
DWIDTH 0 0
BBX 8 12 -4 -10
BITMAP
F0
F0
F0
F0
F0
F0
F0
F0
70
7F
3F
1F
ENDCHAR
STARTCHAR 0323
ENCODING 803
SWIDTH 0 0
DWIDTH 0 0
BBX 5 5 -3 -8
BITMAP
78
78
F8
78
78
ENDCHAR
STARTCHAR 0324
ENCODING 804
SWIDTH 0 0
DWIDTH 0 0
BBX 14 5 -7 -7
BITMAP
7038
F07C
F87C
F03C
7038
ENDCHAR
STARTCHAR 0325
ENCODING 805
SWIDTH 0 0
DWIDTH 0 0
BBX 8 8 -4 -10
BITMAP
7C
FF
C7
C3
C3
E7
FF
3C
ENDCHAR
STARTCHAR 0326
ENCODING 806
SWIDTH 0 0
DWIDTH 0 0
BBX 5 6 -3 -9
BITMAP
78
70
70
E0
E0
C0
ENDCHAR
STARTCHAR 0327
ENCODING 807
SWIDTH 0 0
DWIDTH 0 0
BBX 8 10 -4 -10
BITMAP
18
38
38
7E
0E
07
07
0E
FE
F8
ENDCHAR
STARTCHAR 0328
ENCODING 808
SWIDTH 0 0
DWIDTH 0 0
BBX 6 10 -3 -9
BITMAP
18
30
70
E0
E0
E0
E0
FC
FC
7C
ENDCHAR
STARTCHAR 0329
ENCODING 809
SWIDTH 0 0
DWIDTH 0 0
BBX 4 7 -2 -8
BITMAP
F0
F0
F0
F0
F0
F0
F0
ENDCHAR
STARTCHAR 032A
ENCODING 810
SWIDTH 0 0
DWIDTH 0 0
BBX 14 7 -7 -8
BITMAP
FFFC
FFFC
FFFC
E01C
E01C
E01C
E01C
ENDCHAR
STARTCHAR 032B
ENCODING 811
SWIDTH 0 0
DWIDTH 0 0
BBX 16 5 -8 -7
BITMAP
E187
E187
63C6
7FFE
3E78
ENDCHAR
STARTCHAR 032C
ENCODING 812
SWIDTH 0 0
DWIDTH 0 0
BBX 14 7 -7 -8
BITMAP
E01C
7038
3870
3CE0
1FE0
0FC0
0780
ENDCHAR
ENDFONT
